<?xml version="1.0" encoding="utf-8"?>
<!-- Generator: Adobe Illustrator 23.0.2, SVG Export Plug-In . SVG Version: 6.00 Build 0)  -->
<svg version="1.1" id="Capa_1" xmlns="http://www.w3.org/2000/svg" xmlns:xlink="http://www.w3.org/1999/xlink" x="0px" y="0px"
	 viewBox="0 0 512 512" style="enable-background:new 0 0 512 512;" xml:space="preserve">
<style type="text/css">
	.st0{fill:#AAAAAA;}
</style>
<g>
	<g>
		<path class="st0" d="M63.8,474.6c49.8,49.8,130.5,49.8,180.3,0l193.8-193.8c5.9-5.9,5.9-15.4,0-21.2c-5.9-5.9-15.4-5.9-21.2,0
			L222.9,453.4c-38.1,38.1-99.8,38.1-137.9,0s-38.1-99.8,0-137.9l268-268c23.4-23.4,61.4-23.4,84.8,0s23.4,61.4,0,84.8L180.5,389.8
			c-8.8,8.8-23,8.8-31.8,0s-8.8-23,0-31.8l246.8-246.8c5.9-5.9,5.9-15.4,0-21.2c-5.9-5.9-15.4-5.9-21.2,0L127.5,336.8
			c-20.5,20.5-20.5,53.7,0,74.2s53.8,20.5,74.2,0l257.4-257.4c35.1-35.1,35.1-92.2,0-127.3C441.6,8.8,418.5,0,395.5,0
			s-46.1,8.8-63.6,26.3l-268,268C14.1,344.1,14.1,424.9,63.8,474.6z"/>
	</g>
</g>
</svg>
