<svg xmlns="http://www.w3.org/2000/svg" xmlns:xlink="http://www.w3.org/1999/xlink" width="30" height="30" viewBox="0 0 30 30">
  <defs>
    <clipPath id="clip-path">
      <rect id="Rectangle_13" data-name="Rectangle 13" width="30" height="30" transform="translate(44 587)" fill="#fff" stroke="#707070" stroke-width="1"/>
    </clipPath>
  </defs>
  <g id="Mask_Group_10" data-name="Mask Group 10" transform="translate(-44 -587)" clip-path="url(#clip-path)">
    <g id="blogging" transform="translate(44 588.144)">
      <path id="Path_51" data-name="Path 51" d="M3.936,2.836H3.93a.586.586,0,0,0,0,1.172h.006a.586.586,0,0,0,0-1.172Zm0,0" fill="rgba(86,86,90,0.6)"/>
      <path id="Path_52" data-name="Path 52" d="M6.839,2.836H6.833a.586.586,0,0,0,0,1.172h.006a.586.586,0,0,0,0-1.172Zm0,0" fill="rgba(86,86,90,0.6)"/>
      <path id="Path_53" data-name="Path 53" d="M9.741,2.836H9.735a.586.586,0,0,0,0,1.172h.006a.586.586,0,0,0,0-1.172Zm0,0" fill="rgba(86,86,90,0.6)"/>
      <path id="Path_54" data-name="Path 54" d="M26.034,2.836h-11.3a.586.586,0,0,0,0,1.172h11.3a.586.586,0,0,0,0-1.172Zm0,0" fill="rgba(86,86,90,0.6)"/>
      <path id="Path_55" data-name="Path 55" d="M15.4,26.51a.586.586,0,1,0,.414.172A.592.592,0,0,0,15.4,26.51Zm0,0" fill="rgba(86,86,90,0.6)"/>
      <path id="Path_56" data-name="Path 56" d="M28.138.029H1.861A1.864,1.864,0,0,0,0,1.891V25.82a1.864,1.864,0,0,0,1.861,1.861H12.949a.586.586,0,0,0,0-1.172H1.861a.69.69,0,0,1-.69-.69V6.814H28.828V25.82a.691.691,0,0,1-.69.69H17.793a.586.586,0,0,0,0,1.172H28.138A1.864,1.864,0,0,0,30,25.82V1.891A1.864,1.864,0,0,0,28.138.029ZM1.172,5.642V1.891a.691.691,0,0,1,.69-.69H28.139a.691.691,0,0,1,.69.69V5.642H1.172Zm0,0" fill="rgba(86,86,90,0.6)"/>
      <path id="Path_57" data-name="Path 57" d="M10.432,13.506A2.112,2.112,0,0,0,8.323,11.4H6.35a.586.586,0,0,0-.586.586v6.094a.586.586,0,0,0,.586.586H8.323a2.108,2.108,0,0,0,1.457-3.633A2.1,2.1,0,0,0,10.432,13.506ZM9.26,16.553a.939.939,0,0,1-.937.938H6.936V15.615H8.323A.939.939,0,0,1,9.26,16.553ZM6.936,14.443V12.568H8.323a.938.938,0,0,1,0,1.875Zm0,0" fill="rgba(86,86,90,0.6)"/>
      <path id="Path_58" data-name="Path 58" d="M12.108,11.4a.586.586,0,0,0-.586.586v4.739a1.943,1.943,0,0,0,1.941,1.941.586.586,0,0,0,0-1.172.77.77,0,0,1-.769-.769V11.982a.586.586,0,0,0-.586-.586Zm0,0" fill="rgba(86,86,90,0.6)"/>
      <path id="Path_59" data-name="Path 59" d="M19.035,16.54a2.122,2.122,0,1,0-2.122,2.122A2.124,2.124,0,0,0,19.035,16.54Zm-3.072,0a.95.95,0,1,1,.95.95A.951.951,0,0,1,15.964,16.54Zm0,0" fill="rgba(86,86,90,0.6)"/>
      <path id="Path_60" data-name="Path 60" d="M22.114,20.3a.951.951,0,0,1-.95-.95.586.586,0,0,0-1.172,0,2.122,2.122,0,0,0,4.244,0V16.54a2.124,2.124,0,1,0-1.172,1.9v.916a.951.951,0,0,1-.95.95Zm0-2.812a.95.95,0,1,1,.95-.95A.951.951,0,0,1,22.114,17.49Zm0,0" fill="rgba(86,86,90,0.6)"/>
      <path id="Path_61" data-name="Path 61" d="M6.35,24.4h17.3a.586.586,0,0,0,0-1.172H6.35a.586.586,0,0,0,0,1.172Zm0,0" fill="rgba(86,86,90,0.6)"/>
    </g>
  </g>
</svg>
