<svg xmlns="http://www.w3.org/2000/svg" xmlns:xlink="http://www.w3.org/1999/xlink" width="30" height="30" viewBox="0 0 30 30">
  <defs>
    <clipPath id="clip-path">
      <rect id="Rectangle_11" data-name="Rectangle 11" width="30" height="30" transform="translate(19 464)" fill="#fff" stroke="#707070" stroke-width="1"/>
    </clipPath>
  </defs>
  <g id="Mask_Group_9" data-name="Mask Group 9" transform="translate(-19 -464)" clip-path="url(#clip-path)">
    <g id="speech-bubble" transform="translate(19 465.523)">
      <path id="Path_45" data-name="Path 45" d="M19.8,7.812a.586.586,0,1,0,.586.586A.586.586,0,0,0,19.8,7.812Zm0,0" transform="translate(-4.805 -1.953)" fill="rgba(86,86,90,0.6)"/>
      <path id="Path_46" data-name="Path 46" d="M6.836,21.484A.586.586,0,1,0,6.25,20.9.586.586,0,0,0,6.836,21.484Zm0,0" transform="translate(-1.562 -5.078)" fill="rgba(86,86,90,0.6)"/>
      <path id="Path_47" data-name="Path 47" d="M19.687,0c-5.275,0-9.6,3.637-9.939,8.218C4.724,8.47,0,12.093,0,16.992a8.188,8.188,0,0,0,2.285,5.6,3.563,3.563,0,0,1-.942,3.357.586.586,0,0,0,.414,1,6.463,6.463,0,0,0,4.478-1.81,13.352,13.352,0,0,0,4.077.638c5.274,0,9.6-3.636,9.939-8.216a13.176,13.176,0,0,0,3.512-.625,6.463,6.463,0,0,0,4.478,1.81.586.586,0,0,0,.414-1,3.563,3.563,0,0,1-.942-3.357A8.188,8.188,0,0,0,30,8.789C30,3.7,24.912,0,19.688,0ZM10.312,24.609A11.845,11.845,0,0,1,6.3,23.918a.586.586,0,0,0-.649.149,5.287,5.287,0,0,1-2.63,1.561,4.739,4.739,0,0,0,.357-3.487.585.585,0,0,0-.143-.248,7.041,7.041,0,0,1-2.062-4.9c0-4.129,4.186-7.617,9.141-7.617,4.679,0,8.789,3.254,8.789,7.617,0,4.2-3.943,7.617-8.789,7.617Zm16.454-10.92a.588.588,0,0,0-.143.248,4.739,4.739,0,0,0,.357,3.487,5.285,5.285,0,0,1-2.63-1.561.586.586,0,0,0-.649-.149,11.543,11.543,0,0,1-3.452.677,8.387,8.387,0,0,0-3.166-5.845h7.643a.586.586,0,1,0,0-1.172H15.284A10.928,10.928,0,0,0,10.923,8.22c.337-3.935,4.139-7.048,8.765-7.048,4.955,0,9.141,3.488,9.141,7.617a7.041,7.041,0,0,1-2.062,4.9Zm0,0" transform="translate(0 0)" fill="rgba(86,86,90,0.6)"/>
      <path id="Path_48" data-name="Path 48" d="M17.344,20.312H9.961a.586.586,0,0,0,0,1.172h7.383a.586.586,0,0,0,0-1.172Zm0,0" transform="translate(-2.344 -5.078)" fill="rgba(86,86,90,0.6)"/>
      <path id="Path_49" data-name="Path 49" d="M16.562,25H6.836a.586.586,0,0,0,0,1.172h9.727a.586.586,0,0,0,0-1.172Zm0,0" transform="translate(-1.562 -6.25)" fill="rgba(86,86,90,0.6)"/>
      <path id="Path_50" data-name="Path 50" d="M30.312,7.812H22.93a.586.586,0,1,0,0,1.172h7.383a.586.586,0,1,0,0-1.172Zm0,0" transform="translate(-5.586 -1.953)" fill="rgba(86,86,90,0.6)"/>
    </g>
  </g>
</svg>
