<?xml version="1.0" encoding="utf-8"?>
<!-- Generator: Adobe Illustrator 23.0.2, SVG Export Plug-In . SVG Version: 6.00 Build 0)  -->
<svg version="1.1" xmlns="http://www.w3.org/2000/svg" xmlns:xlink="http://www.w3.org/1999/xlink" x="0px" y="0px"
	 viewBox="0 0 500 500" style="enable-background:new 0 0 500 500;" xml:space="preserve">
<style type="text/css">
	.st0{fill:#999999;}
	.st1{fill:#CCCCCC;}
	.st2{fill:#AAAAAA;}
	.st3{fill:none;stroke:#CCCCCC;stroke-width:2;stroke-miterlimit:10;stroke-dasharray:5;}
</style>
<g id="BACKGROUND">
</g>
<g id="OBJECTS">
	<g>
		<g>
			<path class="st0" d="M285.2,206.6l12.1,37.1c0.9,2.6,4.1,3.6,6.2,1.8l36.2-29.9c0,0-38.5-15-38.5-14.2
				C301.3,202.3,285.2,206.6,285.2,206.6z"/>
			<path class="st1" d="M380.8,135.3c-23.7,9.4-100,40.6-128.9,52.5c-3.8,1.6-3.6,7,0.3,8.3l33,10.5l12.1,37
				c0.5,1.5,1.7,2.4,3.1,2.7c1.1,0.2,2.8-29.9,2.8-29.9s34.7,25.7,51.1,37.9c4.1,3,9.8,0.7,10.8-4.2c4.9-25.3,17.2-88.4,21.3-110
				C387,136.8,383.8,134.1,380.8,135.3z"/>
			<path class="st2" d="M300.4,246.3c1.1,0.2,2.8-29.9,2.8-29.9l57-53.5c0.4-0.4-0.1-1-0.5-0.7l-74.4,44.5l12.1,37
				C297.8,245.1,299,246.1,300.4,246.3z"/>
		</g>
		<path class="st3" d="M102.9,318.9c39.1-0.1,91.2-22.2,101.6-64.6c4.2-17.1,0.5-35.4-13.1-47.9c-17.1-15.8-35.9-1.4-31.3,20.7
			c7.6,36.2,51.8,63,85.4,63.3c19.4,0.2,37.6-9.1,44.6-28.1"/>
	</g>
</g>
<g id="DESIGNED_BY_FREEPIK_1_">
</g>
</svg>
