<svg xmlns="http://www.w3.org/2000/svg" viewBox="0 0 512 512"><defs><style>.cls-1{fill:#764BCB;}</style></defs><title>search</title><g id="Layer_2" data-name="Layer 2"><g id="Capa_1" data-name="Capa 1"><path class="cls-1" d="M372.45,54.84a10,10,0,1,1-10,10A10,10,0,0,1,372.45,54.84Z"/><path class="cls-1" d="M11.72,443.72,145.2,310.24A198.2,198.2,0,0,1,112,200C112,89.72,201.72,0,312,0S512,89.72,512,200,422.28,400,312,400a198.15,198.15,0,0,1-110.24-33.2l-36.89,36.9h0L68.28,500.28a40,40,0,0,1-56.56,0,40,40,0,0,1,0-56.56Zm173.76-88.93a200.36,200.36,0,0,1-28.27-28.27l-28.37,28.37a241.92,241.92,0,0,0,28.27,28.27ZM492,200c0-99.25-80.75-180-180-180S132,100.75,132,200a178.47,178.47,0,0,0,34.27,105.54,181.13,181.13,0,0,0,40.19,40.19h0A178.42,178.42,0,0,0,312,380C411.25,380,492,299.25,492,200ZM25.86,486.14a20,20,0,0,0,28.28,0l88.79-88.8a263.84,263.84,0,0,1-28.27-28.27l-88.8,88.79a20,20,0,0,0,0,28.28Z"/><path class="cls-1" d="M457.94,204a10,10,0,0,0,10.93-9A120.21,120.21,0,0,0,403.2,75.9a10,10,0,0,0-9,17.88A100.7,100.7,0,0,1,449,193.06a10,10,0,0,0,9,10.92Z"/></g></g></svg>