<svg xmlns="http://www.w3.org/2000/svg" viewBox="0 0 635.53 635.53"><defs><style>.cls-1{fill:#b8afdd;}.cls-2{fill:#643eae;}.cls-3{fill:#aa9bce;}.cls-4{fill:#764bcb;}</style></defs><title>community</title><g id="Layer_2" data-name="Layer 2"><g id="Layer_1-2" data-name="Layer 1"><circle class="cls-1" cx="317.76" cy="317.76" r="317.76"/><path class="cls-2" d="M501,478.5a11.26,11.26,0,0,1-7.85,19.26l-146.67.75a157.79,157.79,0,0,1-132.72-72.36c106.54.51,43.88.36,64.47.36,118.39,0,191-127.8,134.77-228.84a11.19,11.19,0,0,1,2.18.79c94.27,45.62,118,167.8,50.74,245.42Z"/><path class="cls-2" d="M493.12,497.76l-146.67.75V410.79c75.11-37.2,110.84-133.47,66.52-213.12a11.19,11.19,0,0,1,2.18.79c94.27,45.62,118,167.81,50.74,245.42L501,478.5a11.26,11.26,0,0,1-7.85,19.26Z"/><path class="cls-3" d="M298.59,305.76h135a11.25,11.25,0,0,0,0-22.5h-135a11.25,11.25,0,1,0,0,22.5Z"/><path class="cls-3" d="M444.84,294.51a11.25,11.25,0,0,1-11.25,11.25H365.71v-22.5h67.88a11.25,11.25,0,0,1,11.25,11.25Z"/><path class="cls-3" d="M433.58,328.26h-135a11.25,11.25,0,1,0,0,22.5h135a11.25,11.25,0,0,0,0-22.5Z"/><path class="cls-3" d="M444.84,339.51a11.25,11.25,0,0,1-11.25,11.25H365.71v-22.5h67.88a11.25,11.25,0,0,1,11.25,11.25Z"/><path class="cls-3" d="M433.58,373.26h-135a11.25,11.25,0,1,0,0,22.5h135a11.25,11.25,0,0,0,0-22.5Z"/><path class="cls-3" d="M444.84,384.51a11.25,11.25,0,0,1-11.25,11.25H365.71v-22.5h67.88a11.25,11.25,0,0,1,11.25,11.25Z"/><path class="cls-4" d="M278.2,114.51c-87,0-157.87,70.83-157.87,157.88a156.7,156.7,0,0,0,38.43,103.24l-35.08,34.63a11.25,11.25,0,0,0,7.85,19.25l142,.68c89.58,2.6,162.5-69.65,162.5-157.8,0-87-70.82-157.88-157.87-157.88Z"/><path class="cls-3" d="M211.08,239h135a11.25,11.25,0,0,0,0-22.5h-135a11.25,11.25,0,0,0,0,22.5Z"/><path class="cls-3" d="M357.33,227.76A11.25,11.25,0,0,1,346.08,239H278.2v-22.5h67.88a11.25,11.25,0,0,1,11.25,11.25Z"/><path class="cls-3" d="M346.07,261.51h-135a11.25,11.25,0,0,0,0,22.5h135a11.25,11.25,0,0,0,0-22.5Z"/><path class="cls-3" d="M357.33,272.76A11.25,11.25,0,0,1,346.08,284H278.2v-22.5h67.88a11.25,11.25,0,0,1,11.25,11.25Z"/><path class="cls-3" d="M346.07,306.51h-135a11.25,11.25,0,0,0,0,22.5h135a11.25,11.25,0,0,0,0-22.5Z"/><path class="cls-3" d="M357.33,317.76A11.25,11.25,0,0,1,346.08,329H278.2v-22.5h67.88a11.25,11.25,0,0,1,11.25,11.25Z"/></g></g></svg>