<?xml version="1.0" encoding="utf-8"?>
<!-- Generator: Adobe Illustrator 23.0.2, SVG Export Plug-In . SVG Version: 6.00 Build 0)  -->
<svg version="1.1" id="Capa_1" xmlns="http://www.w3.org/2000/svg" xmlns:xlink="http://www.w3.org/1999/xlink" x="0px" y="0px"
	 viewBox="0 0 512 512" style="enable-background:new 0 0 512 512;" xml:space="preserve">
<style type="text/css">
	.st0{fill:#FFFFFF;}
</style>
<g>
	<path class="st0" d="M61,497c0,8.3,6.7,15,15,15h360c8.3,0,15-6.7,15-15v-46H61V497z"/>
	<path class="st0" d="M256,120c-82.7,0-150,67.3-150,150v151h300V270C406,187.3,338.7,120,256,120z"/>
	<path class="st0" d="M255,90c8.3,0,15-6.7,15-15V15c0-8.3-6.7-15-15-15s-15,6.7-15,15v60C240,83.3,246.7,90,255,90z"/>
	<path class="st0" d="M136.9,111.2c4.2,7.2,13.3,9.6,20.5,5.5c7.2-4.1,9.6-13.3,5.5-20.5l-30-52c-4.1-7.2-13.3-9.6-20.5-5.5
		c-7.2,4.1-9.6,13.3-5.5,20.5L136.9,111.2z"/>
	<path class="st0" d="M86.2,188.6c4.1-7.2,1.7-16.3-5.5-20.5l-52-30c-7.2-4.1-16.3-1.7-20.5,5.5c-4.1,7.2-1.7,16.3,5.5,20.5l52,30
		C72.8,198.2,82,195.8,86.2,188.6z"/>
	<path class="st0" d="M354.6,116.7c7.1,4.1,16.3,1.7,20.5-5.5l30-52c4.1-7.2,1.7-16.3-5.5-20.5c-7.2-4.1-16.3-1.7-20.5,5.5l-30,52
		C345,103.4,347.4,112.6,354.6,116.7z"/>
	<path class="st0" d="M503.8,143.6c-4.1-7.2-13.3-9.6-20.5-5.5l-52,30c-7.2,4.1-9.6,13.3-5.5,20.5c4.2,7.2,13.3,9.6,20.5,5.5l52-30
		C505.4,160,507.9,150.8,503.8,143.6z"/>
</g>
</svg>
