<svg xmlns="http://www.w3.org/2000/svg" xmlns:xlink="http://www.w3.org/1999/xlink" width="30" height="30" viewBox="0 0 30 30">
  <defs>
    <clipPath id="clip-path">
      <rect id="Rectangle_9" data-name="Rectangle 9" width="30" height="30" transform="translate(19 294)" fill="#fff" stroke="#707070" stroke-width="1"/>
    </clipPath>
  </defs>
  <g id="Mask_Group_6" data-name="Mask Group 6" transform="translate(-19 -294)" clip-path="url(#clip-path)">
    <g id="dashboard" transform="translate(19 294)">
      <path id="Path_39" data-name="Path 39" d="M11.562,10H2.187A2.19,2.19,0,0,1,0,7.812V2.187A2.19,2.19,0,0,1,2.187,0h9.375A2.19,2.19,0,0,1,13.75,2.187V7.812A2.19,2.19,0,0,1,11.562,10ZM2.187,1.875a.313.313,0,0,0-.312.312V7.812a.313.313,0,0,0,.312.313h9.375a.313.313,0,0,0,.313-.313V2.187a.313.313,0,0,0-.313-.312Zm0,0" transform="translate(0 0)" fill="rgba(86,86,90,0.6)"/>
      <path id="Path_40" data-name="Path 40" d="M11.562,34.167H2.187A2.19,2.19,0,0,1,0,31.979V18.854a2.19,2.19,0,0,1,2.187-2.188h9.375a2.19,2.19,0,0,1,2.188,2.188V31.979A2.19,2.19,0,0,1,11.562,34.167ZM2.187,18.542a.313.313,0,0,0-.312.313V31.979a.313.313,0,0,0,.312.312h9.375a.313.313,0,0,0,.313-.312V18.854a.313.313,0,0,0-.313-.313Zm0,0" transform="translate(0 -4.167)" fill="rgba(86,86,90,0.6)"/>
      <path id="Path_41" data-name="Path 41" d="M33.229,36.667H23.854a2.19,2.19,0,0,1-2.188-2.187V28.854a2.19,2.19,0,0,1,2.188-2.188h9.375a2.19,2.19,0,0,1,2.187,2.188v5.625A2.19,2.19,0,0,1,33.229,36.667Zm-9.375-8.125a.313.313,0,0,0-.313.313v5.625a.313.313,0,0,0,.313.312h9.375a.313.313,0,0,0,.312-.312V28.854a.313.313,0,0,0-.312-.313Zm0,0" transform="translate(-5.417 -6.667)" fill="rgba(86,86,90,0.6)"/>
      <path id="Path_42" data-name="Path 42" d="M33.229,17.5H23.854a2.19,2.19,0,0,1-2.188-2.188V2.187A2.19,2.19,0,0,1,23.854,0h9.375a2.19,2.19,0,0,1,2.187,2.187V15.312A2.19,2.19,0,0,1,33.229,17.5ZM23.854,1.875a.313.313,0,0,0-.313.312V15.312a.313.313,0,0,0,.313.313h9.375a.313.313,0,0,0,.312-.313V2.187a.313.313,0,0,0-.312-.312Zm0,0" transform="translate(-5.417 0)" fill="rgba(86,86,90,0.6)"/>
    </g>
  </g>
</svg>
