<svg xmlns="http://www.w3.org/2000/svg" width="38.2" height="38.2" viewBox="0 0 38.2 38.2">
  <path id="Icon_awesome-user-md" data-name="Icon awesome-user-md" d="M18,18c5.681,0,10.286-4.029,10.286-9S23.681,0,18,0,7.714,4.029,7.714,9,12.319,18,18,18ZM8.357,29.813A1.816,1.816,0,0,0,10.286,31.5a1.7,1.7,0,1,0,0-3.375A1.816,1.816,0,0,0,8.357,29.813Zm17.357-9.52v3.445a5.88,5.88,0,0,1,5.143,5.513v2.932a1.178,1.178,0,0,1-1.037,1.1l-2.587.45a.642.642,0,0,1-.755-.443l-.249-1.1a.564.564,0,0,1,.506-.661l1.551-.274v-2c0-4.416-7.714-4.577-7.714.134v1.877l1.551.274a.578.578,0,0,1,.506.661l-.249,1.1a.654.654,0,0,1-.755.443l-2.507-.3a1.184,1.184,0,0,1-1.109-1.118V29.25a5.885,5.885,0,0,1,5.143-5.513V20.559c-.177.049-.354.077-.53.134a15.782,15.782,0,0,1-9.225,0,9.965,9.965,0,0,0-1.816-.366v5.737a4.036,4.036,0,0,1,3.214,3.755,4.25,4.25,0,0,1-4.5,3.937,4.25,4.25,0,0,1-4.5-3.937,4.036,4.036,0,0,1,3.214-3.755V20.412C3.9,21.164,0,25.017,0,29.7v3.15A3.4,3.4,0,0,0,3.6,36H32.4A3.4,3.4,0,0,0,36,32.85V29.7C36,24.637,31.436,20.538,25.714,20.292Z" transform="translate(1.1 1.1)" fill="transparent" stroke="#999" stroke-width="2.2"/>
</svg>
