<?xml version="1.0" encoding="utf-8"?>
<!-- Generator: Adobe Illustrator 23.0.2, SVG Export Plug-In . SVG Version: 6.00 Build 0)  -->
<svg version="1.1" id="Layer_1" xmlns="http://www.w3.org/2000/svg" xmlns:xlink="http://www.w3.org/1999/xlink" x="0px" y="0px"
	 viewBox="0 0 71.4 60.2" style="enable-background:new 0 0 71.4 60.2;" xml:space="preserve">
<style type="text/css">
	.st0{fill:#555555;}
	.st1{fill:#258ACD;}
</style>
<title>favicon</title>
<g>
	<g id="Layer_1-2">
		<g id="Layer_1-2-2">
			<g id="Mask_Group_1">
				<g id="logo-brand">
					<g id="Group_1">
						<path id="Path_1" class="st0" d="M47.3,60.2l-0.1-23L35.6,55.7h-7.9L16.3,38v22.1H0V9.9h14.7l17.3,26.8L48.8,9.9h14.7
							l0.1,50.3L47.3,60.2z"/>
					</g>
				</g>
			</g>
		</g>
		<path class="st1" d="M48.8,0h13.5c0.6,0,1.1,0.5,1.1,1.1v29.3c0,0.6-0.5,1.1-1.1,1.1H48.8c-0.6,0-1.1-0.5-1.1-1.1V1.1
			C47.7,0.5,48.2,0,48.8,0z"/>
		<path class="st1" d="M39.8,22.5V9c0-0.6,0.5-1.1,1.1-1.1h29.3c0.6,0,1.1,0.5,1.1,1.1v13.5c0,0.6-0.5,1.1-1.1,1.1H41
			C40.3,23.6,39.8,23.1,39.8,22.5z"/>
	</g>
</g>
</svg>
