<svg xmlns="http://www.w3.org/2000/svg" xmlns:xlink="http://www.w3.org/1999/xlink" viewBox="0 0 512 512"><defs><style>.cls-1{fill:#edf0f1;}.cls-2{fill:url(#radial-gradient);}.cls-3{fill:#f0ba7c;}.cls-4{fill:#48c1ba;}.cls-5{fill:#eff3f7;}.cls-6{fill:#fff;}.cls-7{fill:#fed299;}.cls-8{fill:#676767;}.cls-9{fill:#147a86;}.cls-10{fill:#ebeceb;}.cls-11{fill:#4e4e4e;}.cls-12{fill:#0c6673;}</style><radialGradient id="radial-gradient" cx="256" cy="256" r="256" gradientUnits="userSpaceOnUse"><stop offset="0" stop-color="#288aca"/><stop offset="1" stop-color="#1d6a94"/></radialGradient></defs><title>femalDoctor</title><g id="Layer_2" data-name="Layer 2"><g id="Layer_1-2" data-name="Layer 1"><circle class="cls-1" cx="256" cy="256" r="256"/><circle class="cls-2" cx="256" cy="256" r="256"/><path class="cls-3" d="M228.55,238.63l-7,34.95-23.31,8,13.79,217.59,88.69-.5,4.14-221.2L290,272.81l-7.58-35.66-53.88,1.48Z"/><path class="cls-4" d="M193,342.31c38.8,18.81,78.72,22.76,120.73,1.07l-1.43,162.4a257.83,257.83,0,0,1-120.72-2Z"/><path class="cls-5" d="M297.5,275.47l67.59,18.43c17.53,5.42,33.19,15.78,33.69,34.4L402.49,466A255.62,255.62,0,0,1,352.81,493l-4.31-76.13L336.66,499A255.5,255.5,0,0,1,256,512l-2.2,0,0-69.78Z"/><path class="cls-6" d="M296.86,275l8.9,3.6,30.38,45.61-35.61-.58,22.07,11.82L253.77,442.19,296.86,275Z"/><path class="cls-6" d="M218.42,274.77,150.52,292c-17.62,5.11-33.46,15.19-34.29,33.8L110,466.27A255.87,255.87,0,0,0,159.16,493l5.78-77.73,10.57,83.78A255.56,255.56,0,0,0,253.8,512l0-69.78L218.42,274.77Z"/><path class="cls-5" d="M219.08,274.31l-10.62,4.06-29.53,44.44,35.61.06-22.28,11.42,61.51,107.9L219.08,274.31Z"/><path class="cls-7" d="M182.58,154.8c-1.14,11.46,1.16,36.89,15,35.92,0,0,20,58.3,58.51,64.9,33.25-6.07,53.47-58.87,55-63.9,4.58,1.57,17.4-19.75,7.57-37.19-2.82-5-10.79-1-10.79-1L307.31,139C254.78,144.11,222,93.3,222,93.3c-20,21.78-24.85,34.22-27,61.31a17.87,17.87,0,0,0-7.94-2.42c-1.25,0-2.87,1.07-4.51,2.61Z"/><path class="cls-8" d="M221.59,273.58l6.8-34.17c-19.71-19.41-30-48.69-30-48.69-13.43,1.5-18.83-35.52-9.79-36.81a13.19,13.19,0,0,1,6.9.7c2-28.61,7.55-37.3,26.5-61.31,0,0,33.12,55.72,85.62,50.62l.75,12c2.48-2.44,7-4.73,10.8,1.48,6.15,10.12-1.9,33.11-9.35,34.51-1.05,3.54-9.34,29.69-26.9,47.61L290,272.81c19.7,6.38,38.69,11.3,57.76,16.37-9.69-59-15.24-122.92-26.8-177.46-11.1-52.33-71.76-67-106.65-43.72,0,0-30.08,12.12-35.58,52.32s-3.38,44.07-3.38,44.07l-9.7,123.78c18-4.56,38.79-8.69,55.93-14.59Z"/><path class="cls-6" d="M348.53,418.91a18.36,18.36,0,1,1,21.21-15A18.36,18.36,0,0,1,348.53,418.91Z"/><path class="cls-9" d="M348.71,417.86a17.29,17.29,0,1,1,20-14.09A17.29,17.29,0,0,1,348.71,417.86Z"/><path class="cls-10" d="M350,410.25a9.56,9.56,0,1,1,11.06-7.8,9.58,9.58,0,0,1-11.06,7.8Z"/><path class="cls-6" d="M351.15,392.42l4.2.73,2.26-13.09-4.2-.73-2.26,13.09Z"/><path class="cls-4" d="M210.37,422.55l7.88-1.57A12.44,12.44,0,0,0,228,406.4l-9.26-46.67c-3.5-17.61-17.27-26.59-33-28.58a59.39,59.39,0,0,0-35.84,7.11c-13.75,7.83-23,21.38-19.52,39l9.26,46.67a12.41,12.41,0,0,0,5.28,7.89h0a12.36,12.36,0,0,0,9.3,1.86l7.87-1.56-.64-3.24-7.88,1.56a9,9,0,0,1-6.82-1.37h0a9.09,9.09,0,0,1-3.87-5.78l-9.26-46.67c-3.18-16,5.31-28.34,17.9-35.5a56,56,0,0,1,33.81-6.71c14.4,1.82,27,10,30.17,26l9.27,46.67a9.12,9.12,0,0,1-7.16,10.69l-7.87,1.56.64,3.25Z"/><path class="cls-11" d="M221.23,366.65l-1.41-7.13c-3.6-18.16-17.78-27.41-34-29.46a60.48,60.48,0,0,0-36.52,7.24c-14.14,8.06-23.67,22-20.06,40.19l1.42,7.13,5.4-1.08-1.41-7.13c-3.07-15.45,5.16-27.39,17.36-34.33a55,55,0,0,1,33.13-6.57c14,1.76,26.17,9.65,29.23,25.08l1.42,7.13,5.4-1.07Z"/><path class="cls-12" d="M155.84,434.08l4.21-.84a4.63,4.63,0,1,0-.91-4.58l-4.21.83Z"/><path class="cls-12" d="M213.72,422.59l-4.21.84a4.63,4.63,0,1,1-.91-4.59l4.21-.84.91,4.59Z"/><path class="cls-8" d="M169.59,330.38l-1.61-8.1-3.19.64-3.19.63,1.62,8.18c1.22-.36,2.45-.66,3.7-.91C167.8,330.65,168.69,330.5,169.59,330.38Z"/><path class="cls-9" d="M162.7,429.58a1.4,1.4,0,1,0-1.65-1.1,1.4,1.4,0,0,0,1.65,1.1Z"/><path class="cls-9" d="M204.35,421.3a1.4,1.4,0,1,0-1.65-1.1A1.42,1.42,0,0,0,204.35,421.3Z"/><path class="cls-6" d="M349.51,410.16A9,9,0,1,1,360,402.79,9,9,0,0,1,349.51,410.16Z"/><path class="cls-11" d="M208.56,278.56c-.14,0-49.86.42-41.46,43.92l-4.62.88c-9.47-49,45.87-49.49,46-49.49l.05,4.69Z"/><path class="cls-11" d="M307.77,274.09c8.12.22,23.8,2.43,35.87,17.11,11.81,14.37,20.09,40.75,13.89,89.13l-4.66-.59c6-46.82-1.75-72-12.86-85.55C329.15,281,315,279,307.66,278.79l.11-4.7Z"/></g></g></svg>