<svg xmlns="http://www.w3.org/2000/svg" xmlns:xlink="http://www.w3.org/1999/xlink" viewBox="0 0 1359.8 470"><defs><style>.cls-1{fill:url(#linear-gradient);}</style><linearGradient id="linear-gradient" x1="678.67" y1="453.11" x2="681.71" y2="-86.5" gradientUnits="userSpaceOnUse"><stop offset="0.28" stop-color="#764bcb"/><stop offset="0.47" stop-color="#744ac8"/><stop offset="0.6" stop-color="#6d47bf"/><stop offset="0.72" stop-color="#6142af"/><stop offset="0.81" stop-color="#543c9e"/></linearGradient></defs><title>homeback2</title><g id="Layer_2" data-name="Layer 2"><g id="Layer_1-2" data-name="Layer 1"><path class="cls-1" d="M126.11,421.93c24.13.07,47.1,2.31,69.86,13.85,23.48,11.9,45.61,32.29,71.66,29.54,15.1-1.59,29.09-11.07,43.23-18.66,61.75-33.17,132.9-30.9,193.49,6.17,10.29,6.29,20.61,13.66,31.83,14.62,14.4,1.23,28-8.21,41.31-15.94,65.56-38,142.24-37.09,207.32,2.48,9.15,5.57,18.31,11.95,28.26,13.28,15.59,2.08,30.4-8.45,44.84-16.88,61-35.57,132.05-36.16,193.33-1.6,14.78,8.33,29.72,18.82,45.66,18,12.73-.66,24.59-8.52,36.41-15.1,33.8-18.82,68.6-27,102.79-26.06,43.33,1.19,85.67,17,123.7,44.39V0H0V465.79C38.82,437.56,82.21,421.8,126.11,421.93Z"/></g></g></svg>