<?xml version="1.0" encoding="utf-8"?>
<!-- Generator: Adobe Illustrator 23.0.2, SVG Export Plug-In . SVG Version: 6.00 Build 0)  -->
<svg version="1.1" id="Layer_1" xmlns="http://www.w3.org/2000/svg" xmlns:xlink="http://www.w3.org/1999/xlink" x="0px" y="0px"
	 viewBox="0 0 1360 677" style="enable-background:new 0 0 1360 677;" xml:space="preserve">
<style type="text/css">
	.st0{fill:url(#SVGID_1_);}
	.st1{opacity:0.5;}
	.st2{fill:#F3F3F3;}
</style>
<title>backHome</title>
<g>
	<g id="Layer_1-2">
		<linearGradient id="SVGID_1_" gradientUnits="userSpaceOnUse" x1="1050.2684" y1="855.8236" x2="417.1188" y2="-240.8236">
			<stop  offset="0" style="stop-color:#2A9DDD"/>
			<stop  offset="0.7433" style="stop-color:#2072A0"/>
		</linearGradient>
		<path class="st0" d="M0,0h1360v677c-213.8-108-389.7-133.5-511.5-136.5c-180.5-4.5-274.2,39.5-462,17C217.4,537.2,85,476.6,0,429
			V0z"/>
	</g>
</g>
<g class="st1">
	<g>
		<path class="st2" d="M640.9,76.4c-1.4,0.7-2.4,1.7-3,3.2l-7.4,19.8c-0.5,1.5-0.5,2.9,0.2,4.3s1.7,2.4,3.2,3l0.8,0.3L646,76.5
			l-0.8-0.3C643.8,75.7,642.3,75.7,640.9,76.4L640.9,76.4z"/>
		<path class="st2" d="M671.9,81.8c0.2-0.7,0.2-1.3-0.1-1.9s-0.7-1-1.4-1.3l-13.7-5.2c-0.7-0.2-1.3-0.2-1.9,0.1
			c-0.6,0.3-1,0.7-1.3,1.4l-1.4,3.8l-3.8-1.4l-11.4,30.5l25.9,9.7L674.3,87l-3.8-1.4L671.9,81.8z M656.3,76.9l12.2,4.6l-1.2,3.1
			L655.1,80L656.3,76.9z M663.8,103.2c-0.1,0.2-0.2,0.4-0.4,0.5s-0.4,0.1-0.6,0l-5.3-2l-2,5.3c-0.1,0.2-0.2,0.4-0.4,0.5
			s-0.4,0.1-0.6,0l-4.6-1.7c-0.2-0.1-0.4-0.2-0.5-0.4c-0.1-0.2-0.1-0.4,0-0.6l2-5.3l-5.3-2c-0.2-0.1-0.4-0.2-0.5-0.4
			c-0.1-0.2-0.1-0.4,0-0.6l1.7-4.6c0.1-0.2,0.2-0.4,0.4-0.5s0.4-0.1,0.6,0l5.3,2l2-5.3c0.1-0.2,0.2-0.4,0.4-0.5s0.4-0.1,0.6,0
			l4.6,1.7c0.2,0.1,0.4,0.2,0.5,0.4c0.1,0.2,0.1,0.4,0,0.6l-2,5.3l5.3,2c0.2,0.1,0.4,0.2,0.5,0.4c0.1,0.2,0.1,0.4,0,0.6L663.8,103.2
			L663.8,103.2z"/>
		<path class="st2" d="M680.4,91.2c-0.7-1.4-1.7-2.4-3.2-3l-0.8-0.3L665,118.5l0.8,0.3c1.5,0.5,2.9,0.5,4.3-0.2
			c1.4-0.7,2.4-1.7,3-3.2l7.4-19.8C681.1,94.1,681.1,92.7,680.4,91.2L680.4,91.2z"/>
	</g>
	<g>
		<g>
			<path class="st2" d="M545.8,542.2c6.6-3.7,11.8-9.7,14.9-14.1s4.9-7.9,5.3-8.6c0.4-0.4,1.5-1.8,1.2-3.7c0-0.5-0.1-2.9-0.6-5.5
				c-0.9-4-2.5-6.4-4.9-6.9c-3.2-0.8-5.5-0.5-6.8,0.5c-0.6,0.5-0.9,1.2-1,1.6c-0.2,0.1-0.3,0.2-0.5,0.3c-0.7,0.7-1,1.9-0.9,3.7
				c0.2,3.6,2.5,4.9,4,5.9c0.2,0.1,0.3,0.2,0.4,0.3c0.2,0.2,0.2,0.3,0.2,0.3c0.1,0.3-0.2,0.7-0.4,1c-1.4,0.6-9.5,4.2-13.8,8.2
				c-0.7-2.7-2.3-4.7-3.7-5.9c-1.6-1.5-3.3-2.3-4.1-2.6c-0.3-1.6-1.2-3.1-2.6-4.6l0,0c0.3-0.3,0.4-0.8,0.2-1.1l-1.5-2.4
				c-0.3-0.4-0.8-0.5-1.2-0.2l-16,10.4c-0.4,0.3-0.5,0.8-0.2,1.2s0.8,0.5,1.2,0.2l15.2-9.9l0.7,1c-1,0.9-3.2,2.9-5.6,5.7
				c-3.6,4.3-5.9,8.4-6.9,12.4l-5.7-8.6c-0.3-0.4-0.8-0.5-1.2-0.2c-0.4,0.3-0.5,0.8-0.2,1.2L518,532c0.2,0.3,0.5,0.4,0.9,0.4
				c0.3-0.1,0.6-0.4,0.7-0.7c0,0,0,0,0-0.1c1.5,1,3.1,1.8,4.7,2.1c0.2,0.3,0.3,0.5,0.5,0.8c0.8,1.2,1.6,2,1.8,2.2
				c0.3,0.3,0.6,0.7,0.9,1c2.6,2.6,5.6,3.9,8.5,3.8c0.9,1.9,3,4.5,6.2,3.7C544,544.7,545.1,543.4,545.8,542.2L545.8,542.2z
				 M541.6,543.6c-2.9,0.7-4.3-3.1-4.4-3.3c-0.1-0.4-0.5-0.6-0.9-0.5c-6.4,0.7-10.7-7.1-10.7-7.2c-0.1-0.1-0.1-0.2-0.2-0.2
				c-0.6-1.2-1-2.6-1-4.1c0.1-0.4-0.3-0.9-0.8-0.9c-0.4-0.1-0.9,0.3-0.9,0.8c-0.1,1.2,0.2,2.4,0.5,3.5c-1.2-0.4-2.3-1.1-3.5-1.9
				c1.8-7.4,8.5-14,11.3-16.6c1,1,2.1,2.5,2.3,4.2c0.1,0.3,0.3,0.6,0.5,0.7c0,0,2.1,0.7,4.1,2.5c1.9,1.8,3.1,4,3.4,6.4
				c0,0.1,0,0.1,0,0.1c0.1,0.8,0.1,1.5,0.1,2.4c0,0.2,0.1,0.4,0.1,0.5c0.2,0.2,0.4,0.3,0.7,0.4c0.4,0.1,0.9-0.3,0.9-0.8
				c0.1-0.8,0.1-1.6,0-2.4c4-4.4,14.2-8.7,14.3-8.7c0.1-0.1,0.2-0.1,0.3-0.2c0.1-0.1,1.1-1.3,0.9-2.5c-0.1-0.4-0.3-1-1-1.5
				c-0.2-0.1-0.3-0.2-0.4-0.3c-1.4-0.9-3-1.8-3.1-4.5c-0.1-1.9,0.3-2.4,0.5-2.5c0.2,0,0.4-0.1,0.6-0.2c0.2-0.2,0.3-0.4,0.3-0.7
				c0,0,0-0.5,0.5-0.9s1.9-1,5.3-0.2c3.5,0.8,4.2,8.1,4.2,10.8c0,0.1,0,0.1,0,0.2c0.3,1.4-0.7,2.3-0.7,2.4c-0.1,0.1-0.2,0.2-0.2,0.3
				c-0.1,0.2-6.7,14-18.1,21.3c0-0.1,0-0.1,0-0.2c0-0.4-0.4-0.8-0.8-0.9c-0.4,0-0.8,0.4-0.9,0.8
				C544.8,539.7,544.6,542.8,541.6,543.6L541.6,543.6z"/>
		</g>
		<path class="st2" d="M537.4,530.7c-6.3-1.4-9.2-8.9-9.2-9c-0.2-0.4-0.7-0.7-1.1-0.5c-0.4,0.2-0.7,0.7-0.5,1.1
			c0.1,0.2,0.7,1.7,1.9,3.6c1.6,2.5,4.5,5.6,8.6,6.5c0.4,0.1,0.9-0.2,1-0.7C538.2,531.3,537.9,530.9,537.4,530.7L537.4,530.7z"/>
		<path class="st2" d="M557.5,522.4c-0.4-0.3-0.9-0.2-1.2,0.2c-0.1,0.1-4,5.6-10.9,8.5c-0.4,0.2-0.6,0.7-0.4,1.1
			c0,0.1,0.1,0.1,0.1,0.1c0.2,0.3,0.7,0.5,1,0.3c7.4-3.1,11.4-8.8,11.6-9.1C558,523.2,557.9,522.7,557.5,522.4L557.5,522.4z"/>
	</g>
	<g>
		<path class="st2" d="M99.7,177.6c1.2,0.6,3.7,1.4,6,0.7c8-2.5,7.9-9,6.7-13.8c-1.5-7,0.3-7.3,1.2-7.5c2-0.7,3,0.3,3.7,2.4
			c-1.4,1.7-2,3.9-1.4,5.9c1,3.2,4.5,5.1,7.8,4.1c3.2-1,5.1-4.5,4.1-7.8c-1-3.2-4.5-5.1-7.8-4.1c-0.3,0.1-0.3,0.1-0.6,0.2
			c-1.4-2.5-3.7-4.7-7-3.7c-4.7,1.5-4.6,6-3.5,10.5c1.6,6.3,0.3,9.3-4.1,10.7c-1.2,0.4-2.5,0.2-3.4-0.3c-2.3-0.9-3.6-6.3-3.6-6.3
			c5.9-1.9,10.2-9.1,9.4-18.6l-0.7-0.1c-0.2-3.8-0.9-8.1-1.9-11.1c-1-3.2-2.6-5.3-5.3-6.4c-2.6-1.2-5.2-1-6.9-0.4
			c-0.9-0.7-1.9-1-3.1-0.7c-1.5,0.4-2.6,2.1-2,3.9c0.5,1.8,2.1,2.6,3.9,2c1.2-0.4,1.9-1.2,1.9-2.2c1.5-0.4,3.1-0.3,5,0.4
			s2.9,2,3.6,4.4c0.8,2.6,1.5,6.7,1.8,10.8l-0.7-0.1c0.1,3.6-0.5,11.9-6.4,13.7l-3,0.9c-5.9,1.9-11.2-4.6-13.1-7.6l-0.5,0.5
			c-2.1-3.6-3.9-7.3-4.7-9.9c-0.8-2.4-0.6-4,0.5-5.7c0.8-1.5,2.5-2.4,3.9-3.2c0.6,0.8,1.6,1.1,2.9,0.7c1.8-0.5,2.6-2.1,2-3.9
			c-0.5-1.8-2.1-2.6-3.9-2c-1.2,0.4-1.9,1.2-2.2,2.3c-1.8,0.5-4,1.9-5.4,4.3c-1.5,2.4-1.6,5.1-0.6,8.3c0.9,3,2.8,6.9,4.9,10.4
			l-0.5,0.5c4.8,7.9,12.4,11.4,18.2,9.5C94.9,169.7,96.7,176.3,99.7,177.6L99.7,177.6z M123.1,166.4c-1.8,0.5-3.4-0.3-3.9-2
			c-0.5-1.8,0.3-3.4,2-3.9c1.8-0.5,3.4,0.3,3.9,2C125.7,164.2,124.5,165.9,123.1,166.4L123.1,166.4z"/>
	</g>
	<g>
		<g>
			<path class="st2" d="M983.2,128.3c0.5-7.6-1.7-15.2-3.6-20.2c-1.9-5-3.9-8.5-4.3-9.2c-0.1-0.5-0.7-2.2-2.5-3
				c-0.4-0.3-2.5-1.5-4.9-2.5c-3.8-1.5-6.7-1.4-8.5,0.3c-2.4,2.3-3.5,4.3-3.3,6c0.1,0.8,0.5,1.4,0.8,1.7c0,0.2,0,0.4,0,0.6
				c0.2,1,1,1.9,2.6,2.8c3.1,1.8,5.5,0.7,7.1-0.1c0.2-0.1,0.3-0.2,0.4-0.2c0.2-0.1,0.3-0.1,0.4-0.1c0.3,0.1,0.5,0.5,0.7,0.9
				c-0.3,1.5-1.7,10.2-0.7,16c-2.7-0.9-5.2-0.7-7-0.2c-2.1,0.5-3.7,1.5-4.5,2c-1.5-0.6-3.3-0.7-5.3-0.4l0,0
				c-0.1-0.4-0.4-0.8-0.8-0.8h-2.9c-0.4,0-0.8,0.4-0.8,0.8v19c0,0.4,0.4,0.8,0.8,0.8c0.4,0,0.8-0.4,0.8-0.8v-18.1h1.3
				c0.2,1.3,0.6,4.3,1.6,7.8c1.6,5.4,3.8,9.6,6.5,12.6h-10.3c-0.4,0-0.8,0.4-0.8,0.8c0,0.4,0.4,0.8,0.8,0.8h12.4
				c0.3,0,0.7-0.2,0.8-0.5s0-0.7-0.2-0.9l0,0c1.7-0.7,3.2-1.6,4.4-2.7c0.3,0,0.7,0.1,0.9,0.1c1.5,0,2.5-0.2,2.8-0.3
				c0.4-0.1,0.9-0.1,1.3-0.2c3.6-0.8,6.3-2.5,7.8-5c2.1,0.3,5.4,0,6.5-3.1C984.3,131.2,983.9,129.6,983.2,128.3L983.2,128.3z
				 M982.1,132.6c-1,2.9-5,1.9-5.2,1.9c-0.4-0.1-0.8,0.1-0.9,0.4c-2.9,5.7-11.8,5-11.9,5s-0.2,0-0.3,0c-1.3-0.2-2.7-0.5-4-1.4
				c-0.4-0.3-0.9-0.2-1.2,0.2s-0.2,0.9,0.2,1.2c1,0.8,2.1,1.2,3.2,1.5c-1,0.7-2.2,1.3-3.5,1.8c-5.2-5.6-7.1-14.7-7.7-18.5
				c1.4-0.3,3.2-0.4,4.7,0.4c0.3,0.2,0.7,0.1,0.9-0.1c0,0,1.8-1.4,4.3-2c2.5-0.7,5-0.4,7.3,0.7c0.1,0,0.1,0.1,0.1,0.1
				c0.7,0.3,1.4,0.8,2,1.3c0.2,0.1,0.3,0.2,0.5,0.2c0.3,0,0.5-0.1,0.7-0.3c0.3-0.4,0.2-0.9-0.2-1.2c-0.7-0.5-1.4-0.9-2-1.3
				c-1.5-5.7,0.5-16.6,0.5-16.7c0-0.1,0-0.3,0-0.4c-0.1-0.2-0.5-1.6-1.6-2.1c-0.4-0.2-1-0.3-1.8,0.1c-0.2,0.1-0.3,0.2-0.4,0.2
				c-1.5,0.7-3.2,1.5-5.5,0.2c-1.6-0.9-1.8-1.6-1.8-1.8c0.1-0.2,0.2-0.4,0.1-0.6c-0.1-0.2-0.2-0.4-0.4-0.5c0,0-0.4-0.3-0.5-0.9
				c-0.1-0.7,0.2-2.1,2.7-4.6c2.6-2.5,9.1,0.9,11.4,2.4c0.1,0.1,0.1,0.1,0.2,0.1c1.3,0.5,1.5,1.8,1.5,1.9s0.1,0.2,0.1,0.3
				c0.1,0.1,8,13.2,7.9,26.8c-0.1-0.1-0.1-0.1-0.1-0.1c-0.4-0.3-0.9-0.2-1.2,0.2c-0.3,0.4-0.2,0.9,0.2,1.2
				C980.5,127.8,983.1,129.7,982.1,132.6L982.1,132.6z"/>
		</g>
		<path class="st2" d="M969,129c-4.6,4.5-12.5,2.8-12.6,2.8c-0.4-0.1-0.9,0.2-1,0.7c-0.1,0.4,0.2,0.9,0.7,1c0.2,0.1,1.8,0.4,4,0.4
			c3,0,7.1-0.7,10.1-3.6c0.3-0.3,0.3-0.9,0-1.2S969.4,128.7,969,129L969,129z"/>
		<path class="st2" d="M973.1,107.7c-0.4,0.2-0.7,0.7-0.5,1.1c0,0.1,2.5,6.4,1.2,13.8c-0.1,0.4,0.2,0.9,0.7,1c0.1,0,0.1,0,0.2,0
			c0.4,0,0.8-0.3,0.8-0.7c1.4-7.9-1.2-14.4-1.3-14.7C974,107.7,973.5,107.5,973.1,107.7L973.1,107.7z"/>
	</g>
	<g>
		<path class="st2" d="M1258.1,518c0,0.5-0.4,0.9-0.9,0.9s-0.9-0.4-0.9-0.9s0.4-0.9,0.9-0.9C1257.7,517.2,1258.1,517.5,1258.1,518
			L1258.1,518z"/>
		<path class="st2" d="M1259.8,533c0,0.5-0.4,0.9-0.9,0.9s-0.9-0.4-0.9-0.9s0.4-0.9,0.9-0.9C1259.5,532.2,1259.8,532.5,1259.8,533
			L1259.8,533z"/>
		<path class="st2" d="M1237.7,526c0,0.5-0.4,0.9-0.9,0.9s-0.9-0.4-0.9-0.9s0.4-0.9,0.9-0.9C1237.3,525.1,1237.7,525.5,1237.7,526
			L1237.7,526z"/>
		<path class="st2" d="M1251.9,520.7c0,0.5-0.4,0.9-0.9,0.9s-0.9-0.4-0.9-0.9s0.4-0.9,0.9-0.9S1251.9,520.2,1251.9,520.7
			L1251.9,520.7z"/>
		<path class="st2" d="M1265.2,525.1c0,0.5-0.4,0.9-0.9,0.9s-0.9-0.4-0.9-0.9s0.4-0.9,0.9-0.9
			C1264.8,524.2,1265.2,524.6,1265.2,525.1L1265.2,525.1z"/>
		<path class="st2" d="M1232.4,533c0,0.5-0.4,0.9-0.9,0.9s-0.9-0.4-0.9-0.9s0.4-0.9,0.9-0.9C1232,532.2,1232.4,532.5,1232.4,533
			L1232.4,533z"/>
		<path class="st2" d="M1233.3,494.1c-3.5-3.5-9.1-3.5-12.5,0c-1.6,1.6-2.6,3.9-2.6,6.3s0.9,4.6,2.6,6.3l13.7,13.7l12.5-12.5
			L1233.3,494.1z M1222.1,505.3c-1.3-1.3-2.1-3.1-2.1-5s0.7-3.7,2.1-5c1.4-1.4,3.2-2.1,5-2.1s3.6,0.7,5,2.1l12.5,12.5l-10,10
			L1222.1,505.3z"/>
		<path class="st2" d="M1268.7,486.1c-1.6-1.6-3.9-2.6-6.3-2.6s-4.6,0.9-6.3,2.6l-13.7,13.7l12.5,12.5l13.7-13.7
			c1.6-1.6,2.6-3.9,2.6-6.3S1270.4,487.8,1268.7,486.1L1268.7,486.1z M1267.5,497.4l-12.5,12.5l-10-10l12.5-12.5
			c1.3-1.3,3.1-2.1,5-2.1s3.7,0.7,5,2.1c1.3,1.3,2.1,3.1,2.1,5S1268.9,496,1267.5,497.4L1267.5,497.4z"/>
		<path class="st2" d="M1253.6,514.5c0-2-1.6-3.5-3.5-3.5c-2,0-3.5,1.6-3.5,3.5c0,2,1.6,3.5,3.5,3.5
			C1252.1,518,1253.6,516.4,1253.6,514.5L1253.6,514.5z M1248.4,514.5c0-1,0.8-1.8,1.8-1.8s1.8,0.8,1.8,1.8s-0.8,1.8-1.8,1.8
			C1249.1,516.2,1248.4,515.4,1248.4,514.5L1248.4,514.5z"/>
		<path class="st2" d="M1243.9,518c-2,0-3.5,1.6-3.5,3.5c0,2,1.6,3.5,3.5,3.5s3.5-1.6,3.5-3.5C1247.5,519.6,1245.9,518,1243.9,518
			L1243.9,518z M1243.9,523.3c-1,0-1.8-0.8-1.8-1.8s0.8-1.8,1.8-1.8s1.8,0.8,1.8,1.8C1245.7,522.5,1244.9,523.3,1243.9,523.3
			L1243.9,523.3z"/>
		<path class="st2" d="M1252.8,523.3c-2,0-3.5,1.6-3.5,3.5c0,2,1.6,3.5,3.5,3.5c2,0,3.5-1.6,3.5-3.5
			C1256.3,524.9,1254.7,523.3,1252.8,523.3L1252.8,523.3z M1252.8,528.6c-1,0-1.8-0.8-1.8-1.8s0.8-1.8,1.8-1.8s1.8,0.8,1.8,1.8
			C1254.5,527.8,1253.7,528.6,1252.8,528.6L1252.8,528.6z"/>
		<path class="st2" d="M1243.9,527.8c-2,0-3.5,1.6-3.5,3.5s1.6,3.5,3.5,3.5s3.5-1.6,3.5-3.5S1245.9,527.8,1243.9,527.8L1243.9,527.8
			z M1243.9,533c-1,0-1.8-0.8-1.8-1.8s0.8-1.8,1.8-1.8s1.8,0.8,1.8,1.8C1245.7,532.3,1244.9,533,1243.9,533L1243.9,533z"/>
	</g>
	<g>
		<path class="st2" d="M417.3,138.1c0,0.5-0.4,0.9-0.9,0.9s-0.9-0.4-0.9-0.9s0.4-0.9,0.9-0.9C416.9,137.3,417.3,137.7,417.3,138.1
			L417.3,138.1z"/>
		<path class="st2" d="M419.1,153.2c0,0.5-0.4,0.9-0.9,0.9s-0.9-0.4-0.9-0.9s0.4-0.9,0.9-0.9S419.1,152.7,419.1,153.2L419.1,153.2z"
			/>
		<path class="st2" d="M397,146.1c0,0.5-0.4,0.9-0.9,0.9s-0.9-0.4-0.9-0.9s0.4-0.9,0.9-0.9C396.6,145.2,397,145.6,397,146.1
			L397,146.1z"/>
		<path class="st2" d="M411.1,140.8c0,0.5-0.4,0.9-0.9,0.9s-0.9-0.4-0.9-0.9s0.4-0.9,0.9-0.9C410.7,139.9,411.1,140.3,411.1,140.8
			L411.1,140.8z"/>
		<path class="st2" d="M424.4,145.2c0,0.5-0.4,0.9-0.9,0.9s-0.9-0.4-0.9-0.9s0.4-0.9,0.9-0.9S424.4,144.7,424.4,145.2L424.4,145.2z"
			/>
		<path class="st2" d="M391.7,153.2c0,0.5-0.4,0.9-0.9,0.9s-0.9-0.4-0.9-0.9s0.4-0.9,0.9-0.9C391.3,152.3,391.7,152.7,391.7,153.2
			L391.7,153.2z"/>
		<path class="st2" d="M392.6,114.2c-3.5-3.5-9.1-3.5-12.5,0c-1.6,1.6-2.6,3.9-2.6,6.3s0.9,4.6,2.6,6.3l13.7,13.7l12.5-12.5
			L392.6,114.2z M381.4,125.4c-1.3-1.3-2.1-3.1-2.1-5s0.7-3.7,2.1-5c1.4-1.4,3.2-2.1,5-2.1s3.6,0.7,5,2.1l12.5,12.5l-10,10
			L381.4,125.4z"/>
		<path class="st2" d="M428,106.2c-1.6-1.6-3.9-2.6-6.3-2.6s-4.6,0.9-6.3,2.6L401.7,120l12.5,12.5l13.7-13.7
			c1.6-1.6,2.6-3.9,2.6-6.3C430.6,110.1,429.7,107.9,428,106.2L428,106.2z M426.7,117.5L414.2,130l-10-10l12.5-12.5
			c1.3-1.3,3.1-2.1,5-2.1s3.7,0.7,5,2.1c1.3,1.3,2.1,3.1,2.1,5C428.8,114.3,428.1,116.2,426.7,117.5L426.7,117.5z"/>
		<path class="st2" d="M412.9,134.6c0-2-1.6-3.5-3.5-3.5s-3.5,1.6-3.5,3.5c0,2,1.6,3.5,3.5,3.5S412.9,136.6,412.9,134.6L412.9,134.6
			z M407.6,134.6c0-1,0.8-1.8,1.8-1.8s1.8,0.8,1.8,1.8s-0.8,1.8-1.8,1.8C408.4,136.4,407.6,135.6,407.6,134.6L407.6,134.6z"/>
		<path class="st2" d="M403.1,138.1c-2,0-3.5,1.6-3.5,3.5c0,2,1.6,3.5,3.5,3.5c2,0,3.5-1.6,3.5-3.5
			C406.7,139.7,405.1,138.1,403.1,138.1L403.1,138.1z M403.1,143.4c-1,0-1.8-0.8-1.8-1.8s0.8-1.8,1.8-1.8s1.8,0.8,1.8,1.8
			C405,142.7,404.1,143.4,403.1,143.4L403.1,143.4z"/>
		<path class="st2" d="M412,143.4c-2,0-3.5,1.6-3.5,3.5s1.6,3.5,3.5,3.5s3.5-1.6,3.5-3.5S414,143.4,412,143.4L412,143.4z M412,148.8
			c-1,0-1.8-0.8-1.8-1.8s0.8-1.8,1.8-1.8s1.8,0.8,1.8,1.8C413.8,147.9,413,148.8,412,148.8L412,148.8z"/>
		<path class="st2" d="M403.1,147.9c-2,0-3.5,1.6-3.5,3.5s1.6,3.5,3.5,3.5c2,0,3.5-1.6,3.5-3.5S405.1,147.9,403.1,147.9L403.1,147.9
			z M403.1,153.2c-1,0-1.8-0.8-1.8-1.8s0.8-1.8,1.8-1.8s1.8,0.8,1.8,1.8C405,152.4,404.1,153.2,403.1,153.2L403.1,153.2z"/>
	</g>
	<g>
		<path class="st2" d="M601.3,321.2c0.9,0.9,3.1,2.5,5.6,2.5c8.4,0,10.2-6.2,10.6-11.2c0.6-7.1,2.5-6.8,3.4-6.8
			c2.1,0,2.8,1.3,2.8,3.4c-1.9,1.2-3.1,3.1-3.1,5.3c0,3.4,2.8,6.2,6.2,6.2s6.2-2.8,6.2-6.2c0-3.4-2.8-6.2-6.2-6.2
			c-0.3,0-0.3,0-0.6,0c-0.6-2.8-2.1-5.6-5.6-5.6c-4.9,0-6.2,4.3-6.5,9c-0.3,6.5-2.5,9-7.1,9c-1.3,0-2.5-0.6-3.1-1.3
			c-1.9-1.5-1.5-7.1-1.5-7.1c6.2,0,12.4-5.6,14.6-14.9l-0.6-0.3c0.9-3.7,1.5-8,1.5-11.2c0-3.4-0.9-5.9-3.1-7.8
			c-2.1-1.9-4.7-2.5-6.5-2.5c-0.6-0.9-1.5-1.5-2.8-1.5c-1.5,0-3.1,1.3-3.1,3.1c0,1.9,1.3,3.1,3.1,3.1c1.3,0,2.1-0.6,2.5-1.5
			c1.5,0,3.1,0.6,4.7,1.9c1.5,1.3,2.1,2.8,2.1,5.3c0,2.7-0.6,6.8-1.5,10.8l-0.6-0.3c-0.9,3.4-4,11.2-10.2,11.2h-3.1
			c-6.2,0-9.3-7.8-10.2-11.2l-0.6,0.3c-0.9-4-1.5-8.1-1.5-10.8c0-2.5,0.6-4,2.1-5.3c1.3-1.3,3.1-1.5,4.7-1.9
			c0.3,0.9,1.3,1.5,2.5,1.5c1.9,0,3.1-1.3,3.1-3.1c0-1.9-1.3-3.1-3.1-3.1c-1.3,0-2.1,0.6-2.8,1.5c-1.9,0-4.3,0.6-6.5,2.5
			c-2.1,1.9-3.1,4.3-3.1,7.8c0,3.1,0.6,7.4,1.5,11.4l-0.6,0.3c2.1,9,8.4,14.6,14.6,14.6C599.1,312.2,598.8,319,601.3,321.2
			L601.3,321.2z M627,317.5c-1.9,0-3.1-1.3-3.1-3.1c0-1.9,1.3-3.1,3.1-3.1s3.1,1.3,3.1,3.1S628.5,317.5,627,317.5L627,317.5z"/>
	</g>
	<g>
		<path class="st2" d="M815.8,370.2c-1.1,1.1-1.7,2.5-1.7,4v21.2c0,1.5,0.5,2.9,1.7,4c1.1,1.1,2.5,1.7,4,1.7h0.8v-32.6h-0.8
			C818.3,368.5,817,369.1,815.8,370.2L815.8,370.2z"/>
		<path class="st2" d="M846.8,364.4c0-0.7-0.2-1.3-0.7-1.8s-1-0.7-1.8-0.7h-14.7c-0.7,0-1.3,0.2-1.8,0.7s-0.7,1-0.7,1.8v4.1H823
			v32.6h27.7v-32.6h-4.1L846.8,364.4L846.8,364.4z M830.5,365.3h13v3.2h-13V365.3z M846.8,387.2c0,0.2-0.1,0.4-0.2,0.6
			s-0.3,0.2-0.6,0.2h-5.7v5.7c0,0.2-0.1,0.4-0.2,0.6c-0.2,0.2-0.3,0.2-0.6,0.2h-4.9c-0.2,0-0.4-0.1-0.6-0.2
			c-0.2-0.2-0.2-0.3-0.2-0.6V388H828c-0.2,0-0.4-0.1-0.6-0.2c-0.2-0.2-0.2-0.3-0.2-0.6v-4.9c0-0.2,0.1-0.4,0.2-0.6
			c0.2-0.2,0.3-0.2,0.6-0.2h5.7v-5.7c0-0.2,0.1-0.4,0.2-0.6c0.2-0.2,0.3-0.2,0.6-0.2h4.9c0.2,0,0.4,0.1,0.6,0.2
			c0.2,0.2,0.2,0.3,0.2,0.6v5.7h5.7c0.2,0,0.4,0.1,0.6,0.2c0.2,0.2,0.2,0.3,0.2,0.6L846.8,387.2L846.8,387.2z"/>
		<path class="st2" d="M858.1,370.2c-1.1-1.1-2.5-1.7-4-1.7h-0.8v32.6h0.8c1.5,0,2.9-0.5,4-1.7c1.1-1.1,1.7-2.5,1.7-4v-21.2
			C859.8,372.7,859.3,371.3,858.1,370.2L858.1,370.2z"/>
	</g>
	<g>
		<g>
			<path class="st2" d="M1238.5,98.2c-0.4,0.4-0.5,1-0.1,1.5c0.4,0.4,1,0.5,1.5,0.1c0.4-0.4,0.5-1,0.1-1.5
				C1239.6,97.9,1238.9,97.9,1238.5,98.2L1238.5,98.2z"/>
			<path class="st2" d="M1217.4,64.4l-6.3,5.4c-1.3,1.1-1.4,3.1-0.3,4.4s3.1,1.4,4.4,0.3l0.8-0.7l4.6,5.3c-0.4,0.3-3.6,3.1-3.9,3.4
				c-0.4,0.4-0.5,1-0.1,1.5c0.4,0.4,1,0.5,1.5,0.1l0.8-0.7c0.3,0.4,16.3,18.9,17.5,20.3c1.6,1.9,4,2.7,6.3,2.5l1.8,2
				c1.1,1.3,3.1,1.4,4.4,0.3l9.3,10.8c0.4,0.4,1,0.5,1.5,0.1c0.4-0.4,0.5-1,0.1-1.5l-9.3-10.8c1.3-1.1,1.4-3.1,0.3-4.4l-1.8-2
				c0.6-2.3,0-4.8-1.5-6.5c-3.8-4.4-13.7-15.8-17.5-20.3l0.8-0.7c0.4-0.4,0.5-1,0.1-1.5c-0.4-0.4-1-0.5-1.5-0.1
				c-0.3,0.3-3.6,3.1-3.9,3.4l-4.6-5.3l0.8-0.7c1.3-1.1,1.4-3.1,0.3-4.4C1220.7,63.4,1218.7,63.3,1217.4,64.4L1217.4,64.4z
				 M1249.1,104.2c0.4,0.4,0.3,1.1-0.1,1.5c-1.9,1.6-1.4,1.3-1.6,1.4c-0.4,0.4-1.1,0.3-1.5-0.1l-1.1-1.3c0.6-0.3,1.2-0.6,1.6-1
				c0.5-0.5,1-1,1.5-1.6L1249.1,104.2z M1241.2,90.4l-0.8,0.7c-0.4,0.4-0.5,1-0.1,1.5c0.4,0.4,1,0.5,1.5,0.1l0.8-0.7l1.4,1.6l-2.4,2
				c-0.4,0.4-0.5,1-0.1,1.5c0.4,0.4,1,0.5,1.5,0.1l2.4-2l0.4,0.5c1.9,2.2,1.6,5.5-0.6,7.4c-2.1,1.8-5.3,1.6-7.3-0.6l-5.9-6.8
				l7.9-6.8L1241.2,90.4z M1228.2,75.3l2.1,2.5l-2.4,2c-0.4,0.4-0.5,1-0.1,1.5c0.4,0.4,1,0.5,1.5,0.1l2.4-2l1.4,1.6l-0.8,0.7
				c-0.4,0.4-0.5,1-0.1,1.5c0.4,0.4,1,0.5,1.5,0.1l0.8-0.7l1.4,1.6l-2.4,2c-0.4,0.4-0.5,1-0.1,1.5c0.4,0.4,1,0.5,1.5,0.1l2.4-2
				l1.4,1.6l-7.9,6.8l-10.3-11.9L1228.2,75.3z M1223.7,76.5l-1.6,1.4l-4.6-5.3l1.6-1.4L1223.7,76.5z M1220.2,66.1
				c0.4,0.4,0.3,1.1-0.1,1.5c-0.5,0.4-5.4,4.7-6.3,5.4c-0.4,0.4-1.1,0.3-1.5-0.1s-0.3-1.1,0.1-1.5l6.3-5.4
				C1219.2,65.6,1219.8,65.6,1220.2,66.1L1220.2,66.1z"/>
		</g>
	</g>
	<g>
		<g>
			<path class="st2" d="M968.8,541.1c-0.5-0.2-1.2,0.1-1.3,0.7c-0.2,0.5,0.1,1.2,0.7,1.3c0.5,0.2,1.2-0.1,1.3-0.7
				C969.6,542,969.3,541.4,968.8,541.1L968.8,541.1z"/>
			<path class="st2" d="M987.5,506l-7.9-2.7c-1.6-0.5-3.4,0.3-4,1.9c-0.5,1.6,0.3,3.4,1.9,4l1,0.3l-2.3,6.7
				c-0.4-0.2-4.5-1.5-4.9-1.7c-0.5-0.2-1.2,0.1-1.3,0.7c-0.2,0.5,0.1,1.2,0.7,1.3l1,0.3c-0.2,0.5-8.1,23.6-8.7,25.3
				c-0.8,2.4-0.3,4.8,1,6.7l-0.9,2.5c-0.5,1.6,0.3,3.4,1.9,4l-4.7,13.5c-0.2,0.5,0.1,1.2,0.7,1.3c0.5,0.2,1.2-0.1,1.3-0.7l4.6-13.5
				c1.6,0.5,3.4-0.3,4-1.9l0.9-2.5c2.3-0.7,4.1-2.4,4.9-4.6c1.9-5.5,6.8-19.8,8.7-25.3l1,0.3c0.5,0.2,1.2-0.1,1.3-0.7
				c0.2-0.5-0.1-1.2-0.7-1.3c-0.4-0.2-4.5-1.5-4.9-1.7l2.3-6.7l1,0.3c1.6,0.5,3.4-0.3,4-1.9C989.9,508.3,989.1,506.5,987.5,506
				L987.5,506z M969,553.3c-0.2,0.5-0.8,0.8-1.3,0.7c-2.4-0.8-1.8-0.6-2-0.7c-0.5-0.2-0.8-0.8-0.7-1.3l0.5-1.6
				c0.5,0.4,1.1,0.7,1.8,0.9c0.7,0.3,1.4,0.4,2.2,0.4L969,553.3z M977,539.6l-1-0.3c-0.5-0.2-1.2,0.1-1.3,0.7
				c-0.2,0.5,0.1,1.2,0.7,1.3l1,0.3l-0.7,2l-3-1c-0.5-0.2-1.2,0.1-1.3,0.7c-0.2,0.5,0.1,1.2,0.7,1.3l3,1l-0.2,0.7
				c-0.9,2.7-4,4.2-6.7,3.2c-2.6-0.9-4.1-3.8-3.1-6.5l2.9-8.5l9.8,3.4L977,539.6z M983.4,520.8l-1,3.1l-3-1
				c-0.5-0.2-1.2,0.1-1.3,0.7c-0.2,0.5,0.1,1.2,0.7,1.3l3,1l-0.7,2l-1-0.3c-0.5-0.2-1.2,0.1-1.3,0.7c-0.2,0.5,0.1,1.2,0.7,1.3l1,0.3
				l-0.7,2l-3-1c-0.5-0.2-1.2,0.1-1.3,0.7c-0.2,0.5,0.1,1.2,0.7,1.3l3,1l-0.7,2l-9.8-3.4l5.1-14.9L983.4,520.8z M980.2,517.5l-2-0.7
				l2.3-6.7l2,0.7L980.2,517.5z M987.5,509.2c-0.2,0.5-0.8,0.8-1.3,0.7c-0.7-0.2-6.8-2.3-7.9-2.7c-0.5-0.2-0.8-0.8-0.7-1.3
				s0.8-0.8,1.3-0.7l7.9,2.7C987.3,508.1,987.6,508.7,987.5,509.2L987.5,509.2z"/>
		</g>
	</g>
</g>
</svg>
