<?xml version="1.0" encoding="utf-8"?>
<!-- Generator: Adobe Illustrator 23.0.2, SVG Export Plug-In . SVG Version: 6.00 Build 0)  -->
<svg version="1.1" id="Layer_1" xmlns="http://www.w3.org/2000/svg" xmlns:xlink="http://www.w3.org/1999/xlink" x="0px" y="0px"
	 viewBox="0 0 512 512" style="enable-background:new 0 0 512 512;" xml:space="preserve">
<style type="text/css">
	.st0{fill:#888888;}
</style>
<g id="Driver_License-Id-License-Transport-Identification">
	<path class="st0" d="M120,232h16v16h-16V232z"/>
	<path class="st0" d="M168,232h16v16h-16V232z"/>
	<path class="st0" d="M464,56H48C25.9,56,8,73.9,8,96v304c0,22.1,17.9,40,40,40h416c22.1,0,40-17.9,40-40V96
		C504,73.9,486.1,56,464,56z M488,400c0,13.2-10.8,24-24,24H48c-13.2,0-24-10.8-24-24V120h464V400z M488,104H24v-8
		c0-13.2,10.8-24,24-24h416c13.2,0,24,10.8,24,24V104z"/>
	<path class="st0" d="M222.8,332.1L184,314.8v-11.4c14.8-8.6,25.6-22.8,29.9-39.4h2.1c13.3,0,24-10.7,24-24s-10.7-24-24-24v-16
		c0-35.3-28.7-64-64-64s-64,28.7-64,64v16c-13.3,0-24,10.7-24,24s10.7,24,24,24h2.1c4.3,16.6,15.1,30.7,29.9,39.4v11.4l-38.8,17.3
		c-20.2,9-33.2,29-33.2,51.1V400c0,4.4,3.6,8,8,8h192c4.4,0,8-3.6,8-8v-16.8C256,361.1,243,341.1,222.8,332.1z M216,232
		c4.4,0,8,3.6,8,8s-3.6,8-8,8V232z M88,248c-4.4,0-8-3.6-8-8s3.6-8,8-8V248z M188.2,334.2l-1.9,7.5l-12.6-4.2l-3-5.8l5.4-2.7
		L188.2,334.2z M104,200c0-26.5,21.5-48,48-48s48,21.5,48,48v7.8c-6.2-1.1-11.2-5.7-12.8-11.8l-3.4-13.8c-1.1-4.3-5.4-6.9-9.7-5.8
		c-3.6,0.9-6,4.1-6.1,7.7c0,13.2-10.8,24-24,24h-40L104,200z M104,248v-24h40c12.3,0,23.8-5.6,31.4-15.3
		c5.3,8.7,14.4,14.3,24.6,15.1V248c0,26.5-21.5,48-48,48S104,274.5,104,248z M127.8,328.9l5.4,2.7l-3,5.8l-12.6,4.2l-1.9-7.5
		L127.8,328.9z M122,392H64v-8.8c0-15.8,9.3-30.1,23.8-36.6l13.2-5.8l3.3,13.1c0.5,2.2,2,4,3.9,5.1c1.2,0.6,2.5,1,3.8,1
		c0.9,0,1.7-0.2,2.6-0.4l18.9-6.3L122,392z M138.7,392l7.7-26.3c3.1,3.1,8.1,3.1,11.2,0l7.7,26.3H138.7z M145.8,342.4l3.2-6.4h6.1
		l3.2,6.4l-6.2,6.3L145.8,342.4z M168,315l-9.9,5h-12.2l-9.9-5v-5.1c10.5,2.8,21.5,2.8,32,0V315z M240,392h-58l-11.4-38.7l18.9,6.3
		c0.8,0.2,1.7,0.4,2.6,0.4c1.3,0,2.7-0.3,3.8-1c2-1.1,3.4-2.9,3.9-5.1l3.3-13.1l13.2,5.8c14.4,6.4,23.8,20.7,23.8,36.6L240,392z"/>
	<path class="st0" d="M272,144h32v16h-32V144z"/>
	<path class="st0" d="M336,144h16v16h-16V144z"/>
	<path class="st0" d="M368,144h16v16h-16V144z"/>
	<path class="st0" d="M400,144h16v16h-16V144z"/>
	<path class="st0" d="M432,144h16v16h-16V144z"/>
	<path class="st0" d="M272,248h48v16h-48V248z"/>
	<path class="st0" d="M336,216h32v16h-32V216z"/>
	<path class="st0" d="M384,216h64v16h-64V216z"/>
	<path class="st0" d="M336,248h112v16H336V248z"/>
	<path class="st0" d="M336,296h16v16h-16V296z"/>
	<path class="st0" d="M368,296h16v16h-16V296z"/>
	<path class="st0" d="M400,296h16v16h-16V296z"/>
	<path class="st0" d="M432,296h16v16h-16V296z"/>
	<path class="st0" d="M336,384h32v16h-32V384z"/>
	<path class="st0" d="M384,384h32v16h-32V384z"/>
	<path class="st0" d="M432,384h16v16h-16V384z"/>
</g>
</svg>
