<?xml version="1.0" encoding="utf-8"?>
<!-- Generator: Adobe Illustrator 23.0.2, SVG Export Plug-In . SVG Version: 6.00 Build 0)  -->
<svg version="1.1" id="Layer_1" xmlns="http://www.w3.org/2000/svg" xmlns:xlink="http://www.w3.org/1999/xlink" x="0px" y="0px"
	 viewBox="0 0 500.9 54" style="enable-background:new 0 0 500.9 54;" xml:space="preserve">
<style type="text/css">
	.st0{fill:#FFFFFF;stroke:#FFFFFF;stroke-miterlimit:10;}
	.st1{fill:#FFFFFF;stroke:#FFFFFF;stroke-width:0.73;stroke-miterlimit:10;}
	.st2{fill:#FFFFFF;stroke:#543C9E;stroke-width:2;}
</style>
<title>logo</title>
<g>
	<g id="Layer_1-2">
		<g id="Layer_1-2-2">
			<g id="Mask_Group_1">
				<g id="logo-brand">
					<g id="Group_1">
						<path id="Path_1" class="st0" d="M47,50.6l-0.2-18L35.4,47h-7.8L16.2,33.2v17.4H0V11h14.6l17.2,21.1L48.5,11h14.6l0.1,39.5
							L47,50.6z"/>
						<path id="Path_2" class="st0" d="M115.7,40.5v10H71.8V11h42.8v10.1H89.3v4.6h22.3v9.6H89.3v5.2L115.7,40.5z"/>
						<path id="Path_3" class="st0" d="M122.5,11h26c5.3-0.1,10.6,0.7,15.6,2.4c4,1.3,7.6,3.7,10.4,6.9c2.5,2.9,3.8,6.7,3.7,10.5
							c0.1,3.8-1.3,7.5-3.7,10.5c-2.8,3.2-6.4,5.6-10.5,6.9c-5,1.7-10.2,2.5-15.5,2.4h-26V11z M147.8,40.2c3.2,0.2,6.4-0.7,9.1-2.5
							c2.3-1.6,3.6-4.2,3.4-6.9c0.1-2.7-1.2-5.4-3.4-6.9c-2.7-1.7-5.9-2.6-9.1-2.5h-7.4v18.8H147.8z"/>
						<path id="Path_4" class="st0" d="M206.2,37.5l-3.9,3.3v9.8h-17.6V11h17.5v14.4L219.6,11H239l-21.1,17.4L240,50.6h-20.6
							L206.2,37.5z"/>
						<path id="Path_5" class="st0" d="M242.4,11h17.8v39.6h-17.8L242.4,11L242.4,11z"/>
						<path id="Path_6" class="st0" d="M280.2,21.4h-15.5V11h48.7v10.4H298v29.2h-17.8V21.4z"/>
					</g>
					<line id="Line_1" class="st1" x1="343.8" y1="10.3" x2="343.8" y2="52.7"/>
					<g id="Group_2">
						<path id="Path_7" class="st0" d="M375.6,24.7V12.6h2.4v5.3h8v-5.3h2.4v12.1H386v-5.3h-8v5.3H375.6z"/>
						<path id="Path_8" class="st0" d="M397,24.9c-1,0-2.1-0.2-3-0.6c-0.8-0.3-1.5-0.9-2-1.5c-0.5-0.7-0.7-1.6-0.7-2.5
							s0.2-1.7,0.7-2.5c0.5-0.7,1.2-1.3,2-1.7c0.9-0.4,1.9-0.6,2.9-0.6c0.7,0,1.3,0.1,2,0.3c1.3,0.3,2.3,1.1,2.9,2.2
							c0.3,0.7,0.5,1.4,0.5,2.1v0.6h-9.6v-1.4h7.2c0-0.4-0.1-0.9-0.4-1.2c-0.3-0.4-0.6-0.7-1.1-0.9c-1.1-0.5-2.3-0.5-3.3,0
							c-0.4,0.2-0.8,0.5-1.1,1c-0.3,0.4-0.4,0.8-0.4,1.3v1.1c0,1.1,0.6,2.1,1.6,2.5c0.6,0.2,1.2,0.3,1.8,0.3c0.4,0,0.8,0,1.2-0.1
							c0.4-0.1,0.7-0.2,1-0.4c0.2-0.2,0.5-0.4,0.6-0.7l2.2,0.3c-0.2,0.5-0.6,1-1,1.3c-0.5,0.4-1.1,0.7-1.7,0.9
							C398.6,24.8,397.8,24.9,397,24.9z"/>
						<path id="Path_9" class="st0" d="M408.3,24.9c-0.7,0-1.4-0.1-2.1-0.3c-1.2-0.2-2-1.3-2-2.4c0-0.5,0.1-0.9,0.4-1.3
							c0.3-0.3,0.6-0.6,1.1-0.8c0.5-0.2,1-0.4,1.5-0.5c0.6-0.1,1.1-0.2,1.7-0.2l1.8-0.1c0.3,0,0.7-0.1,1-0.2
							c0.2-0.1,0.3-0.3,0.3-0.5l0,0c0-0.5-0.2-0.9-0.6-1.2c-0.5-0.3-1.1-0.5-1.7-0.4c-0.6,0-1.3,0.1-1.9,0.4
							c-0.4,0.2-0.7,0.5-0.9,0.9l-2.2-0.4c0.3-0.5,0.6-1,1.1-1.3c0.5-0.4,1.1-0.6,1.8-0.8c0.7-0.2,1.4-0.3,2.2-0.3
							c0.5,0,1,0,1.5,0.1s1,0.2,1.5,0.5c0.5,0.2,0.9,0.5,1.2,0.9c0.3,0.5,0.5,1,0.5,1.5v6.1h-2.4v-1.2l0,0c-0.5,0.6-1.1,1-1.9,1.2
							C409.6,24.8,409,24.9,408.3,24.9z M408.9,23.4c0.6,0,1.1-0.1,1.7-0.3c0.4-0.2,0.8-0.4,1.1-0.8c0.2-0.3,0.4-0.6,0.4-1v-1.2
							c-0.1,0.1-0.3,0.2-0.5,0.2c-0.3,0.1-0.5,0.1-0.8,0.1l-0.9,0.1H409c-0.4,0-0.8,0.1-1.3,0.2c-0.3,0.1-0.6,0.2-0.9,0.5
							c-0.2,0.2-0.4,0.5-0.3,0.8c0,0.4,0.3,0.8,0.6,1C407.7,23.3,408.2,23.4,408.9,23.4L408.9,23.4z"/>
						<path id="Path_10" class="st0" d="M419.8,12.6v12.1h-2.4V12.6H419.8z"/>
						<path id="Path_11" class="st0" d="M428.6,15.6V17H422v-1.4H428.6z M423.8,13.4h2.4V22c0,0.3,0,0.6,0.2,0.8
							c0.1,0.2,0.3,0.3,0.5,0.4s0.5,0.1,0.7,0.1h0.8l0.4,1.5c-0.2,0.1-0.4,0.1-0.6,0.1c-0.3,0-0.7,0-1,0c-0.6,0-1.2-0.1-1.7-0.3
							c-1-0.2-1.8-1.1-1.8-2.2L423.8,13.4L423.8,13.4z"/>
						<path id="Path_12" class="st0" d="M433.5,19.3v5.4h-2.3V12.6h2.3v4.5h0.1c0.3-0.5,0.8-0.9,1.3-1.2c0.7-0.3,1.4-0.4,2.1-0.4
							s1.5,0.1,2.2,0.4c0.6,0.2,1.1,0.6,1.5,1.1c0.4,0.6,0.5,1.2,0.5,1.9v5.8H439v-5.6c0-0.6-0.2-1.2-0.7-1.5
							c-0.6-0.4-1.3-0.6-2-0.5c-0.5,0-1,0.1-1.5,0.3c-0.4,0.2-0.7,0.4-1,0.8C433.7,18.4,433.5,18.8,433.5,19.3z"/>
						<path id="Path_13" class="st0" d="M449.6,24.9c-1,0-2.1-0.2-3-0.6c-0.8-0.3-1.5-0.9-2-1.7c-0.9-1.5-0.9-3.4,0-4.9
							c0.5-0.7,1.2-1.3,2-1.6c0.9-0.4,2-0.6,3-0.6c0.8,0,1.7,0.1,2.5,0.4c0.7,0.2,1.3,0.6,1.8,1c0.4,0.4,0.7,1,0.8,1.5h-2.3
							c-0.2-0.5-0.5-0.8-0.9-1.1c-0.5-0.3-1.2-0.5-1.8-0.5c-0.6,0-1.2,0.1-1.7,0.4c-0.5,0.2-0.9,0.6-1.2,1.1c-0.5,1.1-0.5,2.3,0,3.4
							c0.3,0.5,0.7,0.9,1.1,1.1c0.9,0.5,2,0.6,3,0.3c0.3-0.1,0.7-0.3,0.9-0.5c0.2-0.2,0.4-0.5,0.5-0.8h2.3c-0.1,0.6-0.4,1.1-0.8,1.5
							c-0.5,0.5-1.1,0.9-1.7,1.1C451.4,24.7,450.5,24.9,449.6,24.9z"/>
						<path id="Path_14" class="st0" d="M460.7,24.9c-0.7,0-1.4-0.1-2.1-0.3c-1.1-0.3-2-1.3-2-2.4c0-0.5,0.1-0.9,0.4-1.3
							c0.3-0.3,0.6-0.6,1.1-0.8c0.5-0.2,1-0.4,1.5-0.5c0.6-0.1,1.1-0.2,1.7-0.2l1.8-0.1c0.3,0,0.7-0.1,1-0.2
							c0.2-0.1,0.3-0.3,0.3-0.5l0,0c0-0.5-0.2-0.9-0.6-1.2c-0.5-0.3-1.1-0.5-1.7-0.4c-0.6,0-1.3,0.1-1.9,0.4
							c-0.4,0.2-0.7,0.5-0.9,0.9l-2.2-0.4c0.3-0.5,0.7-1,1.2-1.3c0.5-0.4,1.1-0.6,1.7-0.7c0.7-0.2,1.4-0.2,2.1-0.2
							c0.5,0,1,0,1.5,0.1s1,0.2,1.5,0.5c0.5,0.2,0.9,0.6,1.2,1c0.3,0.5,0.5,1,0.5,1.5v6.1h-2.3v-1.3h-0.1c-0.2,0.3-0.4,0.5-0.7,0.7
							c-0.4,0.3-0.8,0.4-1.2,0.6C461.9,24.8,461.3,24.9,460.7,24.9z M461.2,23.4c0.6,0,1.1-0.1,1.7-0.3c0.4-0.2,0.8-0.4,1.1-0.8
							c0.2-0.3,0.4-0.6,0.4-1v-1.2c-0.1,0.1-0.3,0.1-0.5,0.2c-0.3,0.1-0.6,0.1-0.8,0.1c-0.3,0-0.6,0.1-0.9,0.1h-0.7
							c-0.4,0-0.8,0.1-1.3,0.2c-0.3,0.1-0.6,0.2-0.9,0.5c-0.2,0.2-0.4,0.5-0.3,0.8c0,0.4,0.2,0.8,0.6,1
							C460.1,23.3,460.6,23.4,461.2,23.4L461.2,23.4z"/>
						<path id="Path_15" class="st0" d="M469.7,24.7v-9.1h2.3V17h0.1c0.2-0.5,0.7-0.9,1.2-1.2c0.6-0.3,1.3-0.5,2-0.4h1v1.7h-0.5
							c-0.2,0-0.5,0-0.7,0c-0.5,0-1,0.1-1.5,0.3c-0.4,0.1-0.8,0.3-1.1,0.6c-0.2,0.3-0.4,0.7-0.4,1.1v5.6H469.7z"/>
						<path id="Path_16" class="st0" d="M483.4,24.9c-1.1,0-2.2-0.2-3.2-0.6c-0.8-0.3-1.5-0.8-2-1.5s-0.7-1.6-0.7-2.5
							s0.2-1.8,0.7-2.5s1.2-1.3,2-1.7c0.9-0.4,1.9-0.6,2.9-0.6c0.7,0,1.3,0.1,2,0.3c1.3,0.3,2.3,1.1,2.9,2.2
							c0.3,0.7,0.5,1.4,0.5,2.1v0.6H479v-1.3h7.3c0-0.4-0.1-0.9-0.4-1.2c-0.3-0.4-0.6-0.7-1.1-0.9c-1.1-0.4-2.3-0.4-3.3,0
							c-0.5,0.2-0.8,0.5-1.1,1c-0.3,0.4-0.4,0.8-0.4,1.3v1.1c0,0.5,0.1,1.1,0.4,1.5s0.7,0.8,1.2,1c0.6,0.2,1.2,0.3,1.8,0.3
							c0.4,0,0.8,0,1.2-0.1c0.4-0.1,0.7-0.2,1-0.4c0.2-0.2,0.5-0.4,0.6-0.7l2.2,0.3c-0.2,0.5-0.5,1-0.9,1.3
							c-0.5,0.4-1.1,0.7-1.7,0.9C485,24.8,484.2,24.9,483.4,24.9z"/>
					</g>
					<g id="Group_3">
						<path id="Path_17" class="st0" d="M389.8,42.5h-2.5c-0.1-0.4-0.3-0.7-0.5-1c-0.3-0.3-0.6-0.6-0.9-0.8
							c-0.4-0.2-0.8-0.4-1.3-0.5s-1-0.2-1.5-0.2c-0.9,0-1.7,0.2-2.5,0.5c-0.7,0.3-1.3,0.9-1.7,1.5c-0.4,0.8-0.7,1.6-0.6,2.5
							c0,0.9,0.2,1.7,0.6,2.5c0.4,0.7,1,1.2,1.8,1.5s1.6,0.5,2.5,0.5c0.5,0,1,0,1.5-0.2c0.4-0.1,0.9-0.3,1.3-0.5s0.7-0.4,1-0.7
							s0.4-0.6,0.5-1h2.5c-0.1,0.6-0.4,1.2-0.8,1.6c-0.4,0.5-0.9,0.9-1.4,1.3c-0.6,0.4-1.3,0.7-2,0.8c-0.8,0.2-1.6,0.3-2.5,0.3
							c-1.3,0-2.6-0.2-3.7-0.8c-1-0.5-1.9-1.2-2.6-2.2c-1.3-2-1.3-4.6,0-6.6c0.6-0.9,1.5-1.7,2.6-2.1c1.2-0.5,2.4-0.8,3.7-0.7
							c0.8,0,1.6,0.1,2.4,0.3c0.7,0.2,1.4,0.4,2,0.8c0.5,0.3,1,0.8,1.4,1.3C389.4,41.2,389.7,41.8,389.8,42.5z"/>
						<path id="Path_18" class="st0" d="M397.6,50.8c-1,0-2.1-0.2-3-0.6c-0.8-0.4-1.5-0.9-2-1.6c-0.5-0.7-0.7-1.6-0.7-2.4
							c0-0.9,0.2-1.7,0.7-2.5c0.5-0.7,1.2-1.3,2-1.6c1.9-0.8,4-0.8,5.9,0c0.8,0.3,1.5,0.9,2,1.6c0.5,0.7,0.7,1.6,0.7,2.5
							s-0.2,1.7-0.7,2.4s-1.2,1.3-2,1.6C399.6,50.6,398.6,50.8,397.6,50.8z M397.6,49.2c0.6,0,1.3-0.1,1.8-0.4
							c0.5-0.3,0.8-0.7,1.1-1.2c0.5-1,0.5-2.2,0-3.2c-0.2-0.5-0.6-0.9-1.1-1.2c-1.2-0.6-2.5-0.6-3.7,0c-0.5,0.3-0.8,0.7-1.1,1.2
							c-0.4,1-0.4,2.2,0,3.2c0.2,0.5,0.6,0.9,1.1,1.2C396.4,49.1,397,49.3,397.6,49.2L397.6,49.2z"/>
						<path id="Path_19" class="st0" d="M405.9,50.6v-9h2.3V43h0.2c0.3-0.5,0.7-0.9,1.2-1.2c0.6-0.3,1.3-0.4,2-0.4s1.4,0.1,2,0.4
							c0.5,0.3,0.9,0.7,1.1,1.2h0.1c0.3-0.5,0.8-0.9,1.4-1.2c0.7-0.3,1.5-0.5,2.3-0.4c1,0,1.9,0.2,2.7,0.8c0.7,0.6,1.1,1.4,1,2.3v6
							h-2.4v-5.9c0-0.5-0.2-1.1-0.7-1.3c-0.5-0.3-1-0.4-1.6-0.4c-1.1-0.2-2.1,0.5-2.4,1.5c0,0.1,0,0.2,0,0.3v5.8h-2.4v-6
							c0-0.5-0.2-0.9-0.6-1.2c-0.9-0.5-1.9-0.6-2.8-0.2c-0.4,0.2-0.7,0.4-0.9,0.7c-0.2,0.3-0.4,0.7-0.4,1.1v5.5L405.9,50.6z"/>
						<path id="Path_20" class="st0" d="M425.4,50.6v-9h2.3V43h0.1c0.3-0.5,0.7-0.9,1.2-1.2c0.6-0.3,1.3-0.4,2.1-0.4
							c0.7,0,1.4,0.1,2,0.4c0.5,0.3,0.9,0.7,1.2,1.2h0.1c0.3-0.5,0.8-0.9,1.4-1.2c0.7-0.3,1.5-0.5,2.3-0.4c1,0,1.9,0.2,2.7,0.8
							c0.7,0.6,1.1,1.4,1,2.3v6h-2.4v-5.9c0-0.5-0.2-1.1-0.7-1.3c-0.5-0.3-1-0.4-1.6-0.4c-1.1-0.2-2.1,0.5-2.4,1.5v6.1h-2.4v-6
							c0-0.5-0.2-0.9-0.6-1.2c-0.9-0.5-1.9-0.6-2.8-0.2c-0.4,0.2-0.7,0.4-0.9,0.7c-0.2,0.3-0.4,0.7-0.4,1.1v5.5L425.4,50.6z"/>
						<path id="Path_21" class="st0" d="M452.7,46.8v-5.3h2.4v9h-2.2V49h-0.1c-0.3,0.5-0.8,0.9-1.3,1.2c-0.7,0.3-1.5,0.5-2.3,0.5
							c-0.7,0-1.4-0.1-2-0.4c-0.6-0.2-1.1-0.6-1.4-1.2c-0.4-0.6-0.5-1.2-0.5-1.9v-5.8h2.4V47c0,0.6,0.2,1.1,0.7,1.5s1.1,0.6,1.8,0.6
							c0.5,0,0.9-0.1,1.3-0.3s0.8-0.4,1.1-0.8C452.7,47.7,452.8,47.3,452.7,46.8z"/>
						<path id="Path_22" class="st0" d="M460.5,45.2v5.4h-2.4v-9h2.3V43h0.2c0.3-0.5,0.8-0.9,1.3-1.1c0.7-0.3,1.5-0.5,2.2-0.5
							s1.5,0.1,2.1,0.4c0.6,0.2,1.1,0.6,1.5,1.2c0.4,0.6,0.5,1.2,0.5,1.9v5.8H466V45c0-0.6-0.2-1.2-0.7-1.5c-0.6-0.4-1.3-0.6-2-0.6
							c-0.5,0-1,0.1-1.5,0.3c-0.4,0.2-0.7,0.4-1,0.8C460.6,44.3,460.5,44.8,460.5,45.2z"/>
						<path id="Path_23" class="st0" d="M472.6,40.1c-0.4,0-0.7-0.1-1.1-0.3s-0.5-0.8-0.3-1.2c0-0.1,0.1-0.1,0.2-0.2l0.1-0.1
							c0.6-0.4,1.5-0.4,2.1,0c0.4,0.2,0.6,0.8,0.3,1.2c-0.1,0.1-0.2,0.2-0.3,0.3C473.4,40,473,40.1,472.6,40.1z M471.4,50.6v-9.1
							h2.4v9L471.4,50.6z"/>
						<path id="Path_24" class="st0" d="M482.6,41.5V43H476v-1.5H482.6z M477.8,39.4h2.4V48c0,0.3,0,0.5,0.2,0.8
							c0.1,0.2,0.3,0.3,0.5,0.3c0.2,0.1,0.5,0.1,0.7,0.1h0.8l0.4,1.5l-0.6,0.1c-0.3,0-0.6,0-0.9,0c-0.6,0-1.2-0.1-1.7-0.3
							c-1-0.2-1.8-1.1-1.8-2.2V39.4z"/>
						<path id="Path_25" class="st0" d="M486.7,54c-0.3,0-0.7,0-1,0c-0.2,0-0.4-0.1-0.6-0.1l0.6-1.4c0.5,0.1,1.1,0.1,1.6,0
							c0.5-0.2,0.9-0.5,1.1-1l0.3-0.6l-4.5-9.2h2.5l3.1,7h0.1l3.1-7h2.5l-5,10.3c-0.2,0.4-0.5,0.9-0.9,1.2s-0.8,0.6-1.3,0.7
							C487.8,53.9,487.2,54,486.7,54z"/>
						<path id="Path_26" class="st0" d="M499.3,50.7c-0.4,0-0.8-0.1-1.1-0.3c-0.5-0.3-0.6-0.9-0.3-1.4c0.1-0.1,0.2-0.2,0.3-0.3
							c0.7-0.5,1.5-0.5,2.2,0c0.3,0.2,0.5,0.5,0.5,0.8c0,0.2-0.1,0.4-0.2,0.6c-0.2,0.2-0.3,0.3-0.6,0.4
							C499.8,50.7,499.6,50.7,499.3,50.7z"/>
					</g>
				</g>
			</g>
		</g>
		<path class="st2" d="M71.2,7.8v11c0,0.6-0.5,1.1-1.1,1.1h-6.6v5.5c0,0.6-0.5,1.1-1.1,1.1H47.9c-0.6,0-1.1-0.5-1.1-1.1v-5.5h-7
			c-0.6,0-1.1-0.5-1.1-1.1v-11c0-0.6,0.5-1.1,1.1-1.1h7V1.1c0-0.6,0.5-1.1,1.1-1.1h14.5c0.6,0,1.1,0.5,1.1,1.1v5.6h6.6
			C70.7,6.7,71.2,7.2,71.2,7.8z"/>
	</g>
</g>
</svg>
