<svg xmlns="http://www.w3.org/2000/svg" xmlns:xlink="http://www.w3.org/1999/xlink" viewBox="0 0 512 512"><defs><style>.cls-1{fill:url(#radial-gradient);}.cls-2{fill:#b4b4b4;}.cls-3{fill:#f0ba7c;}.cls-4{fill:#fed299;}.cls-5{fill:#24bbb1;}.cls-6{fill:#48c1ba;}.cls-7{fill:#fff;}.cls-8{fill:#eff3f7;}.cls-9{fill:#d9dada;}.cls-10{fill:#676767;}.cls-11{fill:#147a86;}.cls-12{fill:#ebeceb;}.cls-13{fill:#4e4e4e;}.cls-14{fill:#0c6673;}</style><radialGradient id="radial-gradient" cx="256" cy="256" r="256" gradientUnits="userSpaceOnUse"><stop offset="0" stop-color="#288aca"/><stop offset="1" stop-color="#1e6c97"/></radialGradient></defs><title>maleDoctor</title><g id="Layer_2" data-name="Layer 2"><g id="Layer_1-2" data-name="Layer 1"><circle class="cls-1" cx="256" cy="256" r="256"/><path class="cls-2" d="M220.32,249.43h71.35l.39,4.88-34.87,52.86-37.46-53.39.59-4.35Z"/><path class="cls-3" d="M220.78,236.17,220.16,266l-50.59,27.66V395.06H339.89V293.65l-47-29.22-2.58-29.82-69.51,1.56Z"/><path class="cls-4" d="M197.4,149.21s-2.9-6.37-10.69-3.21.35,34.65,3.33,39,7.76,1.61,9.51,1.43c2.48,18.78,2.7,31.72,10.21,39.64,7.12,7.49,23.42,22.77,32,28.1A91.49,91.49,0,0,0,256,256.37a92.71,92.71,0,0,0,14.23-2.16c8.59-5.33,24.89-20.61,32-28.1,7.51-7.92,7.73-20.86,10.21-39.64,1.75.18,6.54,3,9.51-1.43s11.12-35.89,3.33-39-10.69,3.21-10.69,3.21,7.7-24.73-6-49.08c-9.37-16.68-30.76-25.34-52.61-26-21.84.63-43.23,9.29-52.61,26-13.68,24.35-6,49.08-6,49.08Z"/><path class="cls-5" d="M195.35,274.76,207.47,270l9.76-8.77,34.47,26.14h8.59l34.48-26.18,21.87,13.58,38,64.61L324.55,502.7a257.49,257.49,0,0,1-124.92,3.06l-54-161.22,49.68-69.78Z"/><path class="cls-6" d="M305.59,266.59l-13.92-17.16-31.38,37.93,26.93,29.93Z"/><path class="cls-6" d="M206.38,266.29l13.94-16.86,31.38,37.93-28,29.62Z"/><path class="cls-7" d="M206.38,266.29l-92.24,30a10.38,10.38,0,0,0-6.87,8.27L80.14,442A256.54,256.54,0,0,0,142,485.23l13.48-44a1.07,1.07,0,0,1,1.16-.75,1.05,1.05,0,0,1,1,1l1.95,51.69A255.25,255.25,0,0,0,256,512V494.83L206.39,266.29Z"/><path class="cls-8" d="M206.38,266.29l-10.56,3.24-28,47.76,35.33,1.11-21.69,12.35L256,494.84,206.39,266.29Z"/><path class="cls-8" d="M305.59,266.59l92.27,29.7c3.76,1.2,6.1,4.4,6.87,8.27L431.85,442A257,257,0,0,1,370,485.24l-13.49-44a1.08,1.08,0,0,0-2.11.25l-1.94,51.69A255.25,255.25,0,0,1,256,512h0V494.84l49.58-228.25Z"/><path class="cls-7" d="M305.59,266.59l5.86,1.78,32.69,49.23-35.33,1.1,21.69,12.36L256,494.84l49.59-228.25Z"/><path class="cls-9" d="M266.45,493.76a5.62,5.62,0,1,0,5.64,5.62A5.63,5.63,0,0,0,266.45,493.76Z"/><path class="cls-10" d="M307.88,156.58l5.42-.19,1.75-6.2,5.11-5.1c3.38-25.43,4.38-65-20.86-63.86,0,0-2.28-28.86-47.81-23.2S185.4,93.08,187.85,117.6s1.46,27.49,1.46,27.49l5.11,5.1.77,7.05,4.47-.28s1.4-9.43,2.8-13.58,1-12.55,1-12.55,53.78,3.43,68.31-15.06c9-11.41,29.59-31.19,30.62-3.8.31,8.13-2.71,20.3,3.07,29.16s2.45,15.44,2.45,15.44h0Z"/><path class="cls-11" d="M256,494.83l14.53-66.9-9.87-131.88,5.38-2.3-5.75-6.39H251.7l-5.9,6.24,5.54,2.45-9.63,133L256,494.83Z"/><path class="cls-7" d="M266,493.76a5.12,5.12,0,1,0,5.14,5.12A5.13,5.13,0,0,0,266,493.76Z"/><path class="cls-7" d="M346.39,409.07a18.36,18.36,0,1,1,21.21-15,18.35,18.35,0,0,1-21.21,15Z"/><path class="cls-11" d="M346.57,408a17.29,17.29,0,1,1,20-14.09,17.28,17.28,0,0,1-20,14.09Z"/><path class="cls-12" d="M347.89,400.4a9.56,9.56,0,1,1,11.05-7.8,9.56,9.56,0,0,1-11.05,7.8Z"/><path class="cls-7" d="M349,382.58l4.21.72,2.26-13.09-4.21-.72Z"/><path class="cls-6" d="M208.24,412.7l7.87-1.57a12.43,12.43,0,0,0,9.76-14.58l-9.27-46.67c-3.49-17.61-17.27-26.59-33-28.58a58.39,58.39,0,0,0-18.48.73,57.78,57.78,0,0,0-17.36,6.38c-13.76,7.83-23,21.37-19.52,39l9.26,46.67a12.41,12.41,0,0,0,5.28,7.89h0a12.32,12.32,0,0,0,9.3,1.87l7.87-1.56L159.3,419l-7.87,1.57a9.13,9.13,0,0,1-6.82-1.37h0a9.09,9.09,0,0,1-3.87-5.78l-9.27-46.67c-3.17-16,5.32-28.34,17.91-35.51a56.08,56.08,0,0,1,33.8-6.7c14.41,1.82,27,10,30.18,25.95l9.26,46.67a9.12,9.12,0,0,1-7.15,10.69l-7.88,1.57.65,3.24Z"/><path class="cls-13" d="M219.1,356.8l-1.41-7.13c-3.61-18.16-17.78-27.41-34-29.46a60.45,60.45,0,0,0-36.52,7.24c-14.14,8.06-23.67,22-20.06,40.19l1.42,7.13,5.4-1.08-1.41-7.13c-3.07-15.45,5.16-27.39,17.36-34.33a55,55,0,0,1,33.13-6.57c14,1.76,26.17,9.65,29.23,25.08l1.42,7.13,5.41-1.07Z"/><path class="cls-14" d="M153.7,424.24l4.22-.84a4.63,4.63,0,1,0-.91-4.59l-4.21.83.91,4.59Z"/><path class="cls-14" d="M211.59,412.75l-4.21.83a4.62,4.62,0,1,1-.91-4.59l4.21-.83Z"/><path class="cls-10" d="M167.46,320.53l-1.61-8.09-3.19.63-3.2.63,1.63,8.18q1.83-.54,3.69-.9C165.67,320.8,166.56,320.65,167.46,320.53Z"/><path class="cls-11" d="M160.56,419.73a1.4,1.4,0,1,0-1.64-1.1,1.4,1.4,0,0,0,1.64,1.1Z"/><path class="cls-11" d="M202.22,411.45a1.4,1.4,0,1,0-1.65-1.1A1.41,1.41,0,0,0,202.22,411.45Z"/><path class="cls-7" d="M347.38,400.32a9,9,0,1,1,10.45-7.38,9,9,0,0,1-10.45,7.38Z"/><path class="cls-13" d="M206.43,268.72c-.14,0-49.86.41-41.46,43.91l-4.63.88c-9.46-49,45.88-49.49,46-49.49Z"/><path class="cls-13" d="M305.64,264.24c8.11.22,23.79,2.43,35.86,17.11,11.81,14.37,20.09,40.76,13.9,89.13l-4.66-.59c6-46.82-1.75-72-12.86-85.55-10.86-13.21-25-15.2-32.35-15.4l.11-4.7Z"/></g></g></svg>