<svg xmlns="http://www.w3.org/2000/svg" viewBox="0 0 384 384"><defs><style>.cls-1{fill:#258acd;}.cls-2{fill:#236184;}.cls-3{fill:#ffbb7d;}.cls-4{fill:#efa36a;}.cls-5{fill:#efebdc;}.cls-6{fill:#d6cfbd;}.cls-7{fill:#ffd4a6;}.cls-8{fill:#2b2b2b;}.cls-9{fill:#9d97a5;}.cls-10{fill:#7b7284;}</style></defs><title>Asset 1_1</title><g id="Layer_2" data-name="Layer 2"><g id="Layer_1-2" data-name="Layer 1"><path class="cls-1" d="M0,192C0,86,86,0,192,0S384,86,384,192a191.13,191.13,0,0,1-37,113.3c-34.93,47.72-91.36,11.31-155,11.31S71.91,353,37,305.3A191.13,191.13,0,0,1,0,192Z"/><path class="cls-2" d="M192,316.61c63.66,0,120.09,36.41,155-11.31A192.41,192.41,0,0,0,378.1,144.6L281.75,48.25H102.25l47.46,46.54-33.55,69.1,22.62,21.9c3.15,12.12,21.48,34.42,30.38,42.46l-45.41,36.88L37,305.3l.05.07C72,353,128.37,316.61,192,316.61Z"/><rect class="cls-3" x="149.98" y="195.37" width="84.05" height="89.13"/><rect class="cls-4" x="192" y="195.37" width="42.02" height="89.13"/><path class="cls-5" d="M289.16,249.22H234l-42,30.16-42-30.16H94.85A57.9,57.9,0,0,0,37,305.3a192,192,0,0,0,310,0,57.88,57.88,0,0,0-57.86-56.08Z"/><path class="cls-6" d="M347,305.3A191.74,191.74,0,0,1,192,384V279.38l42-30.16h55.14A57.88,57.88,0,0,1,347,305.3Z"/><path class="cls-7" d="M262.21,113.36c-3-45-39.39-61.67-70.21-61.67s-67.25,16.64-70.22,61.67c-8,1.54-13.63,12-12.74,20.45l1.37,19.24a15.92,15.92,0,0,0,17.34,14.39l1.48-.16c17.61,47.29,45.23,52.23,62.77,55,17.54-2.77,45.16-7.71,62.77-55l1.48.16a15.92,15.92,0,0,0,17.34-14.39L275,133.81c.89-8.45-4.77-18.91-12.75-20.45Z"/><path class="cls-3" d="M275,133.81l-1.37,19.24a15.92,15.92,0,0,1-17.34,14.39l-1.48-.16c-6,16.15-13.2,27.36-20.75,35.23-14.55,15.18-30.47,17.94-42,19.77V51.69c30.82,0,67.25,16.64,70.21,61.67,8,1.54,13.64,12,12.75,20.45Z"/><path class="cls-8" d="M281.75,48.25s-10-3-34-20-55.75-6-55.75-6-31.75-11-55.75,6-34,20-34,20,12.5,8.5,20.5,6.5c0,0-20.38,20.48-6.86,61.62L134.25,137l9.24-44.13a30.91,30.91,0,0,1,33.67-23.37L192,71.25l14.84-1.77a30.92,30.92,0,0,1,33.67,23.37L249.75,137l18.35-20.61c13.53-41.14-6.85-61.62-6.85-61.62,8,2,20.5-6.5,20.5-6.5Z"/><path d="M261.25,54.75s11.49,11.54,11.49,34.71a86,86,0,0,1-4.64,26.91L249.75,137l-9.24-44.13a30.9,30.9,0,0,0-33.67-23.36L192,71.25v-49s31.75-11,55.75,6,34,20,34,20-12.5,8.5-20.5,6.5Z"/><path class="cls-9" d="M150,229.25l-26.23,20,35.9,61.63L192,279.38Z"/><path class="cls-10" d="M234,229.25l26.23,20-35.9,61.63L192,279.38Z"/></g></g></svg>