<?xml version="1.0" encoding="utf-8"?>
<!-- Generator: Adobe Illustrator 23.0.2, SVG Export Plug-In . SVG Version: 6.00 Build 0)  -->
<svg version="1.1" id="Layer_1" xmlns="http://www.w3.org/2000/svg" xmlns:xlink="http://www.w3.org/1999/xlink" x="0px" y="0px"
	 viewBox="0 0 315 60.2" style="enable-background:new 0 0 315 60.2;" xml:space="preserve">
<style type="text/css">
	.st0{fill:#FFFFFF;}
	.st1{fill:#FFFFFF;stroke:#543C9E;stroke-width:2;stroke-miterlimit:10;}
</style>
<title>miniLogo</title>
<g>
	<g id="Layer_1-2">
		<g id="Group_1">
			<path id="Path_1" class="st0" d="M47.3,60.2l-0.1-23L35.6,55.7h-7.9L16.3,38v22.1H0V9.9h14.7l17.3,26.8L48.8,9.9h14.7l0.1,50.3
				L47.3,60.2z"/>
			<path id="Path_2" class="st0" d="M116.3,47.4v12.8h-44V9.9h43.1v12.8H89.8v5.9h22.4v12.2H89.8v6.6L116.3,47.4L116.3,47.4z"/>
			<path id="Path_3" class="st0" d="M123.2,9.9h26.1c5.4-0.1,10.7,0.9,15.6,3.1c4.2,1.9,7.9,4.9,10.4,8.8c2.6,4,3.9,8.6,3.7,13.4
				c0.1,4.7-1.2,9.4-3.7,13.4c-2.6,3.9-6.2,6.9-10.4,8.7c-4.9,2.1-10.3,3.1-15.6,3h-26.1V9.9z M148.5,47c3.4,0.2,6.6-1,9.2-3.1
				c2.4-2.3,3.7-5.6,3.4-8.9c0.2-3.3-1.1-6.5-3.4-8.8c-2.6-2.2-5.8-3.3-9.2-3.1H141V47H148.5z"/>
			<path id="Path_4" class="st0" d="M207.3,43.5l-3.9,4.2v12.4h-17.6V9.9h17.6v18.3l17.4-18.3h19.4L218.9,32l22.3,28.2h-20.7
				L207.3,43.5z"/>
			<path id="Path_5" class="st0" d="M243.6,9.9h17.9v50.3h-17.9V9.9z"/>
			<path id="Path_6" class="st0" d="M281.6,23h-15.5V9.9H315V23h-15.5v37.2h-17.8L281.6,23z"/>
		</g>
		<path class="st1" d="M71.4,9v13.5c0,0.6-0.5,1.1-1.1,1.1h-6.8v6.8c0,0.6-0.5,1.1-1.1,1.1H48.8c-0.6,0-1.1-0.5-1.1-1.1v-6.8H41
			c-0.6,0-1.1-0.5-1.1-1.1V9c0-0.6,0.5-1.1,1.1-1.1h6.8V1.1c0-0.6,0.5-1.1,1.1-1.1h13.5c0.6,0,1.1,0.5,1.1,1.1v6.8h6.8
			C70.9,7.9,71.4,8.4,71.4,9z"/>
	</g>
</g>
</svg>
