<svg xmlns="http://www.w3.org/2000/svg" viewBox="0 0 315 60.21"><defs><style>.cls-1{fill:#2d2d2d;}.cls-2{fill:#764bcb;}</style></defs><title>miniLogo</title><g id="Layer_2" data-name="Layer 2"><g id="Layer_1-2" data-name="Layer 1"><g id="Group_1" data-name="Group 1"><path id="Path_1" data-name="Path 1" class="cls-1" d="M47.29,60.19l-.14-22.95L35.64,55.66H27.76L16.26,38.05V60.19H0V9.85H14.68L31.94,36.69,48.75,9.85h14.7l.13,50.34Z"/><path id="Path_2" data-name="Path 2" class="cls-1" d="M116.25,47.41v12.8h-44V9.85h43.08V22.66H89.77v5.91h22.42V40.79H89.77v6.6h26.48Z"/><path id="Path_3" data-name="Path 3" class="cls-1" d="M123.17,9.85h26.1a38,38,0,0,1,15.65,3.06,24.19,24.19,0,0,1,10.44,8.76,23.66,23.66,0,0,1,3.74,13.38,23.58,23.58,0,0,1-3.74,13.36,23.93,23.93,0,0,1-10.44,8.73,37.3,37.3,0,0,1-15.63,3H123.17ZM148.53,47a13.16,13.16,0,0,0,9.2-3.13A11.28,11.28,0,0,0,161.17,35a11.21,11.21,0,0,0-3.44-8.8,13.22,13.22,0,0,0-9.2-3.14H141V47Z"/><path id="Path_4" data-name="Path 4" class="cls-1" d="M207.28,43.53l-3.94,4.23V60.19H185.71V9.85h17.55V28.12L220.68,9.85h19.45L218.93,32l22.26,28.17H220.52Z"/><path id="Path_5" data-name="Path 5" class="cls-1" d="M243.61,9.85h17.88V60.19H243.61Z"/><path id="Path_6" data-name="Path 6" class="cls-1" d="M281.62,23H266.1V9.85H315V23H299.49V60.19H281.64Z"/></g><rect class="cls-2" x="47.72" width="15.76" height="31.53" rx="1.12"/><rect class="cls-2" x="47.72" width="15.76" height="31.53" rx="1.12" transform="translate(39.84 71.36) rotate(-90)"/></g></g></svg>