<svg xmlns="http://www.w3.org/2000/svg" viewBox="0 0 159.87 25.56"><defs><style>.cls-1{fill:#2d2d2d;}</style></defs><title>Asset 1</title><g id="Layer_2" data-name="Layer 2"><g id="Layer_1-2" data-name="Layer 1"><g id="Mask_Group_1" data-name="Mask Group 1"><g id="logo-brand"><g id="Group_1" data-name="Group 1"><path id="Path_1" data-name="Path 1" class="cls-1" d="M24,25.55,23.93,13.9l-5.84,9.35h-4L8.25,14.31V25.55H0V0H7.45l8.76,13.62L24.74,0H32.2l.07,25.55Z"/><path id="Path_2" data-name="Path 2" class="cls-1" d="M59,19.06v6.5H36.65V0H58.51V6.5H45.56v3H56.94v6.2H45.56v3.35H59Z"/><path id="Path_3" data-name="Path 3" class="cls-1" d="M62.51,0H75.76A19.33,19.33,0,0,1,83.7,1.55,12.27,12.27,0,0,1,89,6a12,12,0,0,1,1.9,6.79A12,12,0,0,1,89,19.57,12.18,12.18,0,0,1,83.7,24a19,19,0,0,1-7.93,1.55H62.51ZM75.38,18.84a6.67,6.67,0,0,0,4.67-1.59,5.73,5.73,0,0,0,1.75-4.47,5.71,5.71,0,0,0-1.75-4.47,6.7,6.7,0,0,0-4.67-1.59h-3.8V18.84Z"/><path id="Path_4" data-name="Path 4" class="cls-1" d="M105.2,17.09l-2,2.15v6.31H94.25V0h8.91V9.27L112,0h9.87L111.11,11.25l11.3,14.3H111.92Z"/><path id="Path_5" data-name="Path 5" class="cls-1" d="M123.64,0h9.07V25.55h-9.07Z"/><path id="Path_6" data-name="Path 6" class="cls-1" d="M142.93,6.69h-7.88V0h24.82V6.68H152V25.55h-9.06Z"/></g></g></g></g></g></svg>