<svg xmlns="http://www.w3.org/2000/svg" viewBox="0 0 512 512"><defs><style>.cls-1{fill:#b8afdd;}.cls-2{fill:#fefefe;}.cls-3{fill:#4d4d4d;}.cls-4{fill:#ebecec;}.cls-5{fill:#0f7986;}.cls-6{fill:#076673;}.cls-7{fill:#666;}</style></defs><title>privateDoc</title><g id="Layer_2" data-name="Layer 2"><g id="Layer_1-2" data-name="Layer 1"><path class="cls-1" d="M256,0C397.39,0,512,114.62,512,256S397.39,512,256,512,0,397.39,0,256,114.62,0,256,0Z"/><path class="cls-2" d="M264.7,59h16.22A25.13,25.13,0,0,1,306,84.08v96.14c0,36.28-23.78,59.5-54.2,69.63a120,120,0,0,1-73.82,0c-30.35-10.12-54-33.31-54-69.65V84.08a25,25,0,0,1,7.36-17.71h0A25,25,0,0,1,149,59h16.23v6.68H149a18.33,18.33,0,0,0-13,5.4h0a18.32,18.32,0,0,0-5.4,13v96.14c0,33,21.68,54.07,49.45,63.33a113.17,113.17,0,0,0,69.64,0c27.84-9.27,49.6-30.4,49.6-63.31V84.08a18.45,18.45,0,0,0-18.38-18.39H264.7V59Z"/><path class="cls-3" d="M308.21,165.53v14.69c0,37.4-24.45,61.32-55.72,71.74a122.13,122.13,0,0,1-75.22,0c-31.2-10.4-55.57-34.29-55.57-71.75V165.53h11.14v14.69c0,31.84,21,52.25,47.91,61.22a111,111,0,0,0,68.25,0c27-9,48.07-29.43,48.07-61.22V165.53Z"/><circle class="cls-4" cx="359.45" cy="316.96" r="30.85"/><circle class="cls-5" cx="359.45" cy="316.96" r="26.92"/><circle class="cls-6" cx="359.45" cy="316.96" r="21.19"/><circle class="cls-4" cx="359.45" cy="316.96" r="16.08"/><rect class="cls-2" x="355.15" y="327.85" width="8.62" height="26.84"/><path class="cls-3" d="M365.92,352.68V379.6a79.42,79.42,0,0,1-158.84,0V267.78H220V379.6a66.48,66.48,0,0,0,133,0V352.68Z"/><path class="cls-6" d="M152.07,57.6h8.68a9.35,9.35,0,1,1,0,9.46h-8.68V57.6Z"/><path class="cls-6" d="M271.31,57.6h-8.67a9.35,9.35,0,1,0,0,9.46h8.67V57.6Z"/><path class="cls-7" d="M220.12,257.73v16.68H207V257.57c2.55.22,5.12.34,7.68.33,1.83,0,3.65-.06,5.47-.17Z"/><circle class="cls-5" cx="167.5" cy="58.68" r="2.83"/><circle class="cls-5" cx="253.17" cy="58.68" r="2.83" transform="translate(154.7 299.17) rotate(-80.78)"/><circle class="cls-2" cx="358.58" cy="316.08" r="15.2"/></g></g></svg>