<svg xmlns="http://www.w3.org/2000/svg" width="36" height="36" viewBox="0 0 36 36">
  <path id="Icon_awesome-user-alt" data-name="Icon awesome-user-alt" d="M16.5,18.563A9.281,9.281,0,1,0,7.219,9.281,9.284,9.284,0,0,0,16.5,18.563Zm8.25,2.063H21.2a11.22,11.22,0,0,1-9.4,0H8.25A8.249,8.249,0,0,0,0,28.875v1.031A3.1,3.1,0,0,0,3.094,33H29.906A3.1,3.1,0,0,0,33,29.906V28.875A8.249,8.249,0,0,0,24.75,20.625Z" transform="translate(1.5 1.5)" fill="none" stroke="rgba(86,86,90,0.62)" stroke-width="3"/>
</svg>
