<svg xmlns="http://www.w3.org/2000/svg" viewBox="0 0 807.64 102.17"><defs><style>.cls-1{fill:#fff;}</style></defs><title>pulse</title><g id="Layer_2" data-name="Layer 2"><g id="Layer_1-2" data-name="Layer 1"><path class="cls-1" d="M750.27,56.32c-1.45,0-2.72.45-3.06,1.08l-3.07,5.71L728.49,35.68c-.37-.67-1.75-1.12-3.29-1.06s-2.74.59-2.89,1.27L711.5,86.24l-18.78-85C692.56.55,691.21,0,689.6,0h0c-1.61,0-3,.55-3.13,1.27l-13,55.05h-125c-1.46,0-2.72.45-3.06,1.08l-3.07,5.71L526.6,35.68c-.38-.67-1.75-1.12-3.29-1.06s-2.74.59-2.89,1.27L509.61,86.24l-18.78-85C490.67.55,489.32,0,487.71,0s-3,.54-3.14,1.27l-13,55.05h-125c-1.46,0-2.72.45-3.06,1.08l-3.07,5.71L324.71,35.68c-.38-.67-1.76-1.12-3.29-1.06s-2.74.59-2.89,1.27L307.72,86.24l-18.78-85C288.78.55,287.43,0,285.82,0h0c-1.61,0-3,.55-3.14,1.27l-13,55.05h-125c-1.46,0-2.72.45-3.06,1.08l-3.07,5.71L122.82,35.68c-.38-.67-1.76-1.12-3.29-1.06s-2.75.59-2.89,1.27L105.82,86.24l-18.77-85C86.89.55,85.54,0,83.93,0h0c-1.6,0-3,.55-3.13,1.27l-13,55.05H3.15C1.41,56.32,0,57,0,57.73s1.41,1.42,3.15,1.42H70.58c1.61,0,3-.55,3.14-1.27L83.81,15.24l18.93,85.66c.16.72,1.51,1.27,3.13,1.27h0c1.62,0,3-.55,3.13-1.27l12.18-56.71,14.33,25.13c.36.63,1.62,1.07,3.05,1.07h0c1.44,0,2.7-.45,3-1.08l5.45-10.16h125.4c1.61,0,3-.55,3.13-1.27L285.7,15.24l18.93,85.66c.16.72,1.51,1.27,3.13,1.27h0c1.62,0,3-.55,3.13-1.27l12.17-56.71,14.34,25.13c.35.63,1.61,1.07,3,1.07h0c1.44,0,2.7-.45,3-1.08L349,59.15h125.4c1.61,0,3-.55,3.13-1.27l10.09-42.64,18.93,85.66c.16.72,1.51,1.27,3.13,1.27h0c1.62,0,3-.55,3.13-1.27L525,44.19,539.3,69.32c.35.63,1.61,1.07,3.05,1.07h0c1.45,0,2.7-.45,3-1.08l5.45-10.16h125.4c1.61,0,3-.55,3.13-1.27l10.09-42.64,18.93,85.66c.16.72,1.51,1.27,3.13,1.27h0c1.62,0,3-.55,3.13-1.27l12.17-56.71,14.34,25.13c.35.63,1.61,1.07,3,1.07h0c1.45,0,2.7-.45,3-1.08l5.45-10.16,54.89-.48v-2Z"/></g></g></svg>