<svg xmlns="http://www.w3.org/2000/svg" viewBox="0 0 345.83 456.12"><defs><style>.cls-1{fill:#888;}</style></defs><title>Asset 3</title><g id="Layer_2" data-name="Layer 2"><g id="Layer_1-2" data-name="Layer 1"><path class="cls-1" d="M224.66,69.66a7.19,7.19,0,1,0,6.48-12.83A129.89,129.89,0,0,0,70,252.42a7.19,7.19,0,0,0,11.35-8.83A115.52,115.52,0,0,1,224.66,69.66Z"/><path class="cls-1" d="M278.88,111.07a7.18,7.18,0,0,0-3.17,9.65A115.52,115.52,0,0,1,101.77,264a7.19,7.19,0,1,0-8.83,11.35,129.89,129.89,0,0,0,195.6-161.13A7.19,7.19,0,0,0,278.88,111.07Z"/><path class="cls-1" d="M249,86.16c1.8,1.59,3.57,3.26,5.27,5s3.37,3.47,5,5.27A7.19,7.19,0,0,0,270,86.87c-1.78-2-3.65-4-5.56-5.92s-3.9-3.78-5.92-5.56A7.19,7.19,0,0,0,249,86.16Z"/><path class="cls-1" d="M342.24,160.17l-9.46-15.51a10.09,10.09,0,0,1-1.35-6.83l2.81-17.91a24.38,24.38,0,0,0-9.78-23.61L309.81,85.65a10.07,10.07,0,0,1-3.88-5.79l-4.27-17.64a24.39,24.39,0,0,0-18-18L266,39.91A10.11,10.11,0,0,1,260.19,36L249.53,21.37a24.38,24.38,0,0,0-23.61-9.78L208,14.41a10.13,10.13,0,0,1-6.84-1.36L185.66,3.6a24.36,24.36,0,0,0-25.49,0l-15.51,9.45a10.1,10.1,0,0,1-6.83,1.36l-17.91-2.82a24.39,24.39,0,0,0-23.61,9.78L85.65,36a10.12,10.12,0,0,1-5.79,3.88L62.22,44.17a24.39,24.39,0,0,0-18,18L39.91,79.85A10.1,10.1,0,0,1,36,85.65L21.37,96.31a24.37,24.37,0,0,0-9.78,23.6l2.82,17.92a10.1,10.1,0,0,1-1.36,6.83L3.59,160.17a24.38,24.38,0,0,0,0,25.49l9.45,15.51A10.1,10.1,0,0,1,14.41,208l-2.82,17.92a24.37,24.37,0,0,0,9.78,23.6L36,260.18a10.15,10.15,0,0,1,3.88,5.8l4.26,17.64a24.38,24.38,0,0,0,18,18l7.37,1.79L19.73,414.63a7.19,7.19,0,0,0,7.41,10.08l40.11-4.8L90.36,453a7.18,7.18,0,0,0,5.89,3.08c.22,0,.45,0,.67,0a7.22,7.22,0,0,0,5.89-4.22l50.91-113.56,6.45,3.93a24.42,24.42,0,0,0,25.49,0l6.69-4.08,51,113.71a7.22,7.22,0,0,0,5.89,4.22c.22,0,.45,0,.67,0a7.18,7.18,0,0,0,5.89-3.08l23.11-33.13,40.11,4.8a7.19,7.19,0,0,0,7.41-10.08L276.53,303.38l7.09-1.72a24.38,24.38,0,0,0,18-18L305.92,266a10.15,10.15,0,0,1,3.88-5.8l14.66-10.66a24.38,24.38,0,0,0,9.78-23.61L331.43,208a10.12,10.12,0,0,1,1.35-6.84l9.46-15.51h0A24.4,24.4,0,0,0,342.24,160.17Zm-12.28,18-9.45,15.51a24.51,24.51,0,0,0-3.29,16.55L320,228.15a10,10,0,0,1-4,9.75l-14.66,10.66a24.51,24.51,0,0,0-9.39,14l-4.27,17.64a10.07,10.07,0,0,1-7.45,7.45L262.6,292a24.5,24.5,0,0,0-14.05,9.39L237.89,316a10,10,0,0,1-9.74,4l-17.91-2.81a24.48,24.48,0,0,0-16.55,3.28L178.18,330a10.08,10.08,0,0,1-10.53,0l-15.51-9.45a24.43,24.43,0,0,0-16.55-3.28L117.68,320a10.05,10.05,0,0,1-9.75-4L97.27,301.34a24.53,24.53,0,0,0-14-9.39l-17.64-4.27a10.07,10.07,0,0,1-7.45-7.44L53.88,262.6a24.55,24.55,0,0,0-9.4-14.05L29.83,237.89a10,10,0,0,1-4-9.74l2.82-17.91a24.5,24.5,0,0,0-3.29-16.55l-9.45-15.51a10.08,10.08,0,0,1,0-10.53l9.46-15.51a24.54,24.54,0,0,0,3.28-16.55l-2.82-17.91a10.07,10.07,0,0,1,4-9.74L44.49,97.27a24.48,24.48,0,0,0,9.39-14l4.27-17.64a10.06,10.06,0,0,1,7.45-7.44l17.64-4.27a24.5,24.5,0,0,0,14-9.4l10.66-14.65a10,10,0,0,1,9.74-4l17.91,2.82a24.57,24.57,0,0,0,16.56-3.28l15.51-9.46a10.06,10.06,0,0,1,10.52,0l15.51,9.46a24.56,24.56,0,0,0,16.55,3.28l17.92-2.82a10.08,10.08,0,0,1,9.74,4l10.66,14.66a24.51,24.51,0,0,0,14,9.39l17.64,4.27a10.09,10.09,0,0,1,7.45,7.45L292,83.24a24.48,24.48,0,0,0,9.39,14L316,107.94a10.08,10.08,0,0,1,4,9.74l-2.82,17.91a24.52,24.52,0,0,0,3.28,16.56l9.46,15.5A10.1,10.1,0,0,1,330,178.18Z"/><path class="cls-1" d="M180.82,93.39l14.66,45.13a8.31,8.31,0,0,0,7.9,5.74h47.45a8.31,8.31,0,0,1,4.89,15l-38.39,27.89a8.32,8.32,0,0,0-3,9.29L229,241.6a8.31,8.31,0,0,1-12.78,9.29L177.8,223a8.3,8.3,0,0,0-9.77,0l-38.38,27.89a8.31,8.31,0,0,1-12.79-9.29l14.66-45.13a8.32,8.32,0,0,0-3-9.29L90.12,159.29a8.31,8.31,0,0,1,4.88-15h47.45a8.31,8.31,0,0,0,7.9-5.74L165,93.39A8.31,8.31,0,0,1,180.82,93.39Z"/></g></g></svg>