<svg xmlns="http://www.w3.org/2000/svg" viewBox="0 0 394 377.57"><defs><style>.cls-1{fill:#888;}</style></defs><title>star_1</title><g id="Layer_2" data-name="Layer 2"><g id="Layer_1-2" data-name="Layer 1"><path class="cls-1" d="M393,142.67a20.92,20.92,0,0,0-18-14.39L261.23,118l-45-105.24a21,21,0,0,0-38.54,0L132.79,118,19,128.28a21,21,0,0,0-11.9,36.64l86,75.39L67.76,352A20.94,20.94,0,0,0,98.93,374.6L197,316l98.06,58.64A21,21,0,0,0,326.24,352L300.89,240.31l86-75.39A21,21,0,0,0,393,142.67Z"/></g></g></svg>