<svg xmlns="http://www.w3.org/2000/svg" xmlns:xlink="http://www.w3.org/1999/xlink" width="30" height="30" viewBox="0 0 30 30">
  <defs>
    <clipPath id="clip-path">
      <rect id="Rectangle_17" data-name="Rectangle 17" width="30" height="30" transform="translate(19 209)" fill="#fff" stroke="#707070" stroke-width="1"/>
    </clipPath>
  </defs>
  <g id="Mask_Group_13" data-name="Mask Group 13" transform="translate(-19 -209)" clip-path="url(#clip-path)">
    <g id="newsfeed" transform="translate(19 209)">
      <path id="Path_69" data-name="Path 69" d="M26.767,0H3.232A3.236,3.236,0,0,0,0,3.232V26.767A3.236,3.236,0,0,0,3.232,30H26.767A3.236,3.236,0,0,0,30,26.767V3.232A3.236,3.236,0,0,0,26.767,0ZM3.232,1.758H26.767a1.476,1.476,0,0,1,1.475,1.475v4.3H1.758v-4.3A1.476,1.476,0,0,1,3.232,1.758ZM26.767,28.242H3.232a1.476,1.476,0,0,1-1.474-1.475V9.289H28.242V26.767a1.476,1.476,0,0,1-1.475,1.475Zm0,0" transform="translate(0)" fill="#56565A"/>
      <path id="Path_70" data-name="Path 70" d="M10.92,6.779H24.1a.879.879,0,0,0,0-1.758H10.92a.879.879,0,0,0,0,1.758Zm0,0" transform="translate(-2.51 -1.255)" fill="#56565A"/>
      <path id="Path_71" data-name="Path 71" d="M5.9,21.841H9.665a.879.879,0,0,0,.879-.879V17.2a.879.879,0,0,0-.879-.879H5.9a.879.879,0,0,0-.879.879v3.766A.879.879,0,0,0,5.9,21.841Zm.879-3.766H8.787v2.008H6.779Zm0,0" transform="translate(-1.255 -4.079)" fill="#56565A"/>
      <path id="Path_72" data-name="Path 72" d="M29.121,21.339H15.941a.879.879,0,1,0,0,1.758h13.18a.879.879,0,0,0,0-1.758Zm0,0" transform="translate(-3.766 -5.335)" fill="#56565A"/>
      <path id="Path_73" data-name="Path 73" d="M26.611,26.36H5.9a.879.879,0,1,0,0,1.758H26.611a.879.879,0,1,0,0-1.758Zm0,0" transform="translate(-1.255 -6.59)" fill="#56565A"/>
      <path id="Path_74" data-name="Path 74" d="M26.611,31.38H5.9a.879.879,0,0,0,0,1.758H26.611a.879.879,0,0,0,0-1.758Zm0,0" transform="translate(-1.255 -7.845)" fill="#56565A"/>
      <path id="Path_75" data-name="Path 75" d="M29.121,16.318H15.941a.879.879,0,1,0,0,1.758h13.18a.879.879,0,0,0,0-1.758Zm0,0" transform="translate(-3.766 -4.079)" fill="#56565A"/>
    </g>
  </g>
</svg>
