<svg xmlns="http://www.w3.org/2000/svg" width="36" height="36" viewBox="0 0 36 36">
  <path id="Icon_material-contacts" data-name="Icon material-contacts" d="M35.4,0H6.6V3H35.4ZM6.6,36H35.4V33H6.6ZM35.4,6H6.6C4.62,6,3,7.35,3,9V27c0,1.65,1.62,3,3.6,3H35.4c1.98,0,3.6-1.35,3.6-3V9C39,7.35,37.38,6,35.4,6ZM21,10.125c2.232,0,4.05,1.515,4.05,3.375S23.232,16.875,21,16.875,16.95,15.36,16.95,13.5,18.768,10.125,21,10.125ZM30,25.5H12V23.25c0-2.505,5.994-3.75,9-3.75s9,1.245,9,3.75Z" transform="translate(-3)" fill="#77818c"/>
</svg>
