<svg height="512pt" viewBox="0 -53 512 511" width="512pt" xmlns="http://www.w3.org/2000/svg"><path d="m453.332031 64.5h-85.332031l-11.625-27.902344c-9.132812-21.910156-30.402344-36.097656-54.144531-36.097656h-94.527344c-22.359375 0-42.457031 12.4375-52.460937 32.425781l-15.785157 31.574219h-80.789062c-32.363281 0-58.667969 26.304688-58.667969 58.667969v224c0 32.363281 26.304688 58.664062 58.667969 58.664062h389.332031c30.273438 0 64-24.085937 64-58.664062v-224c0-32.363281-26.304688-58.667969-58.667969-58.667969zm-197.332031 266.667969c-58.816406 0-106.667969-47.851563-106.667969-106.667969s47.851563-106.667969 106.667969-106.667969 106.667969 47.851563 106.667969 106.667969-47.851563 106.667969-106.667969 106.667969zm170.644531-159.980469c-11.753906 0-21.332031-9.578125-21.332031-21.332031 0-11.753907 9.578125-21.335938 21.332031-21.335938 11.753907 0 21.335938 9.582031 21.335938 21.335938 0 11.753906-9.582031 21.332031-21.335938 21.332031zm0 0"/></svg>