<?xml version="1.0" encoding="utf-8"?>
<!-- Generator: Adobe Illustrator 24.0.0, SVG Export Plug-In . SVG Version: 6.00 Build 0)  -->
<svg version="1.1" id="Layer_1" xmlns="http://www.w3.org/2000/svg" xmlns:xlink="http://www.w3.org/1999/xlink" x="0px" y="0px"
	 viewBox="0 0 1279.59 1080" style="enable-background:new 0 0 1279.59 1080;" xml:space="preserve">
<style type="text/css">
	.st0{opacity:0.83;}
	.st1{fill:url(#SVGID_1_);}
	.st2{fill:url(#SVGID_2_);}
	.st3{fill:url(#SVGID_3_);}
</style>
<g id="Layer_2_1_" class="st0">
	<g id="Layer_1-2">
		
			<linearGradient id="SVGID_1_" gradientUnits="userSpaceOnUse" x1="1117.3182" y1="1223.3726" x2="1025.7173" y2="912.3442" gradientTransform="matrix(1 0 0 -1 0 1082)">
			<stop  offset="0.64" style="stop-color:#643EAE"/>
			<stop  offset="1" style="stop-color:#764BCB"/>
		</linearGradient>
		<path class="st1" d="M822.83,0c17.37,32.31,47.17,77.33,93.6,102.64c65.28,35.61,113.18,4.89,207.79,14.67
			c36.71,3.81,90.55,14.67,155.38,48.88V0H822.83z"/>
	</g>
</g>
<g id="Layer_2_2_" class="st0">
	<g id="Layer_1-2_1_">
		
			<linearGradient id="SVGID_2_" gradientUnits="userSpaceOnUse" x1="0" y1="667.3128" x2="85.8089" y2="667.3128" gradientTransform="matrix(1 0 0 -1 0 1082)">
			<stop  offset="0" style="stop-color:#643EAE"/>
			<stop  offset="0.41" style="stop-color:#663FB1"/>
			<stop  offset="0.71" style="stop-color:#6C44BB"/>
			<stop  offset="0.98" style="stop-color:#764BCB"/>
			<stop  offset="0.99" style="stop-color:#764BCB"/>
		</linearGradient>
		<path class="st2" d="M0,580.76c47.07,0,85.81-74.99,85.81-166.08S47.07,248.61,0,248.61V580.76z"/>
	</g>
</g>
<g id="Layer_2_3_" class="st0">
	<g id="Layer_1-2_2_">
		
			<linearGradient id="SVGID_3_" gradientUnits="userSpaceOnUse" x1="927.2468" y1="283.7177" x2="1209.377" y2="38.4939" gradientTransform="matrix(1 0 0 -1 0 1082)">
			<stop  offset="0.08" style="stop-color:#764BCB"/>
			<stop  offset="0.34" style="stop-color:#744AC8"/>
			<stop  offset="0.53" style="stop-color:#6D47BF"/>
			<stop  offset="0.69" style="stop-color:#6142AF"/>
			<stop  offset="0.81" style="stop-color:#543C9E"/>
		</linearGradient>
		<path class="st3" d="M815.49,1080c30.69-1.57,72.93-11.79,100.01-58.46c26.89-46.34,15.73-88.83,42.93-118.7
			c35.6-39.1,73.22,13.36,114.17-28.7c25.85-26.55,18.42-55.22,44.79-75.47c28.6-21.97,47.95,3.64,85.63-6.02
			c18.68-4.79,46-19.3,76.58-66.97V1080H815.49z"/>
	</g>
</g>
</svg>
