<?xml version="1.0" encoding="utf-8"?>
<!-- Generator: Adobe Illustrator 24.0.0, SVG Export Plug-In . SVG Version: 6.00 Build 0)  -->
<svg version="1.1" id="Capa_1" xmlns="http://www.w3.org/2000/svg" xmlns:xlink="http://www.w3.org/1999/xlink" x="0px" y="0px"
	 viewBox="0 0 159.5 159.5" style="enable-background:new 0 0 159.5 159.5;" xml:space="preserve">
<style type="text/css">
	.st0{fill:#FCD0A3;}
	.st1{fill:#58B99B;}
	.st2{opacity:0.16;fill:#FCD0A3;enable-background:new    ;}
	.st3{fill:#764BCB;}
	.st4{fill:#F5A251;}
	.st5{opacity:0.25;fill:#F5A251;enable-background:new    ;}
	.st6{fill:#F7B6AF;}
	.st7{opacity:0.29;fill:#FCD0A3;enable-background:new    ;}
	.st8{fill:#67657B;}
	.st9{fill:#8E8D9C;}
	.st10{fill:#5F5D73;}
	.st11{opacity:0.35;fill:#1D1A3A;enable-background:new    ;}
	.st12{fill:#FFFFFF;}
	.st13{fill:#3D5561;}
</style>
<g>
	<g>
		<path class="st0" d="M40.7,85c-4,0-7.7-3.4-7.7-7.7s3.7-7.7,7.7-7.7V85z"/>
		<path class="st0" d="M118.7,85c4,0,7.7-3.4,7.7-7.7s-3.7-7.7-7.7-7.7V85z"/>
	</g>
	<path class="st1" d="M83.6,131.7h-6.8c-1.2,0-2.5,0.1-3.7,0.2c4.7,0,9.4,0,14.1,0C86.1,131.8,84.9,131.7,83.6,131.7z"/>
	<g>
		<rect x="76.8" y="113.2" class="st0" width="7" height="21"/>
		<path class="st0" d="M80.3,120.6L80.3,120.6c-21.9,0-39.7-17.8-39.7-39.7V47c0-21.9,17.8-39.7,39.7-39.7l0,0
			c21.9,0,39.7,17.8,39.7,39.7v34C119.9,102.9,102.2,120.6,80.3,120.6z"/>
		<path class="st2" d="M58.7,110.2c-5.9-7.4-7.6-16.1-7.8-25.3c-0.2-9.2-0.3-17.5,0.3-26.7c0.5-8.9,2.3-17.6,6.8-25
			c6.2-10.1,17.3-19.7,28-25.5c-1.9-0.3-3.7-0.4-5.7-0.4l0,0C58.4,7.3,40.6,25.1,40.6,47v34c0,18,12,33.2,28.5,38.1
			C65.2,116.7,61.6,113.8,58.7,110.2z"/>
	</g>
	<path class="st3" d="M115.8,155.4c0-0.4-0.1-0.7-0.1-1.1c-0.3-1.7-0.8-3.4-1.5-5.1c-0.3-0.7-0.7-1.5-1.1-2.2
		c-1-1.8-2.3-3.5-3.8-5.1c-0.7-0.8-1.5-1.5-2.4-2.2c-2.6-2.2-5.7-4.1-9.2-5.4c-2.9-1.1-6-1.9-9.3-2.3c0-0.1,0-0.2,0-0.4
		c0-1.4-1.1-2.5-2.5-2.5l-1.5,0.3c-2.8,0.5-5.6,0.5-8.3,0l-1.5-0.3c-1.4,0-2.5,1.1-2.5,2.5c0,0.1,0,0.2,0,0.3
		c-3.3,0.4-6.5,1.2-9.4,2.3c-3.5,1.4-6.6,3.2-9.2,5.4c-0.8,0.7-1.6,1.4-2.4,2.2c-1.5,1.6-2.8,3.3-3.8,5.1c-0.4,0.7-0.7,1.4-1.1,2.2
		c-0.7,1.6-1.2,3.3-1.5,5.1c-0.1,0.7-0.2,1.5-0.2,2.2c1.2,0.2,2.3,0.4,3.5,0.6c4,0.6,8,1.1,11.9,1.5c0.2,0,0.3,0,0.5,0
		c2.2,0.2,4.3,0.4,6.5,0.5c4.3,0.3,8.7,0.4,13,0.4c8.7,0,17.3-0.5,25.9-1.6c2.2-0.3,4.3-0.6,6.5-0.9c1.2-0.2,2.3-0.4,3.5-0.6
		C115.8,156.1,115.8,155.7,115.8,155.4z"/>
	<g>
		<g>
			<path class="st4" d="M109.5,17.6c-1.9-1.9-4-3.6-6.2-5.1c-0.3-0.2-0.6-0.4-0.8-0.7c-0.1-1.6,0.5-3.2,0.1-4.9
				c-0.2-0.7-1.2-1-1.7-0.4c-0.3,0.3-0.6,0.6-1,0.9c-0.3-1.6-0.1-3.3,0.6-4.8c0.2-0.4,0.3-0.8,0.5-1.2c0.3-0.9-0.8-1.5-1.5-1.1
				C95.5,2,91.3,3.5,87,4.7c-2,0.5-4,0.7-6.1,0.7c-0.5,0-0.9,0-1.4,0C56.9,5.7,38.6,24.2,38.6,47v8c0,0.1-0.1,0.1-0.1,0.2
				c-0.1,2.4-1.1,4.7-3.3,5.7c-1.3,0.6-0.4,2.1,0.7,1.9c0.6-0.2,1.2-0.4,1.8-0.6c-0.5,1-1.1,1.9-1.8,2.8c-0.7,0.9,0.2,2,1.2,1.6
				c0.4-0.2,0.9-0.4,1.3-0.6c3.2-1.3,6.5-2.1,10-2.4c24.9-2.6,53.9-27.3,53.9-27.3c2.5-1.1,5.5,0,6.8,2.4l10.8,24.6l1.3-9.8
				C122.9,40.3,118.8,27,109.5,17.6z"/>
			<path class="st5" d="M115.2,44.9c-0.8-4.9,0.8-13.1-4-14.4c-3.8-1-4.4,1.8-8.8,5.6c2.5-1,5.4,0,6.7,2.5l10.8,24.6l0-0.1
				C118.5,56.3,116.2,51.8,115.2,44.9z"/>
		</g>
		<g>
			<path class="st4" d="M118.7,88.1c-0.2-0.2-6.4-4.1-15.2-4.1c-6.4,0-14.1,6.8-21.9,5.6C72.9,88.2,64,83.9,57,84
				c-8.5,0-15.2,3.8-15.2,6.2c0,10,4.7,19.3,13.5,24.7c0.4,0.2,0.9,0.1,1.2-0.2c4.5,4.5,9.5,8.2,15.2,11.3c0.7,0.4,1.3-0.1,1.4-0.7
				c2.5,0.4,4.9,0.6,7.4,0.4c2.4,0.1,4.9,0,7.4-0.4c0.1,0.6,0.8,1.1,1.4,0.7c5.7-3,10.7-6.8,15.2-11.3c0.3,0.3,0.8,0.4,1.2,0.2
				c8.8-5.5,11.9-14.7,13-24.7C118.9,89.8,118.9,88.2,118.7,88.1z"/>
			<g>
				<g>
					<path class="st0" d="M64.3,101.3h33.8c0,0-1.6,10.8-17.7,10.7C65.8,111.9,64.3,101.3,64.3,101.3z"/>
					<path class="st6" d="M78.3,106.2c-2,0.2-6.8,1.8-8.7,2.9c2.4,1.6,5.8,2.9,10.8,2.9c6,0,9.9-1.5,12.6-3.3
						C92.5,108.3,87.7,105.3,78.3,106.2z"/>
				</g>
				<g>
					<g>
						<path class="st7" d="M105,74.8c-0.8-0.1-1.5-0.2-1.7-0.2c-4.8-0.5-10.7-0.9-14.6,2.6c-1.2,1.1-0.8,2.6,0.8,2.9
							c0.6,0.1,1.3,0.1,1.9,0c5.5-0.5,11-1.1,16.6-1.5c1.4-0.1,3.1-0.9,1.9-2.3C108.9,75.2,106.3,75,105,74.8z"/>
						<path class="st7" d="M54.6,74.8c0.8-0.1,1.5-0.2,1.7-0.2c4.8-0.5,10.7-0.9,14.6,2.6c1.2,1.1,0.8,2.6-0.8,2.9
							c-0.6,0.1-1.3,0.1-1.9,0c-5.5-0.5-11-1.1-16.6-1.5c-1.4-0.1-3.1-0.9-1.9-2.3C50.7,75.2,53.3,75,54.6,74.8z"/>
					</g>
					<g>
						<g>
							<g>
								<g>
									<circle class="st8" cx="98.1" cy="69" r="3.3"/>
									<circle class="st9" cx="98.1" cy="69" r="3.1"/>
									<polygon class="st10" points="95.5,67.5 96.8,68.2 95.7,67.3 96.9,68.1 95.9,67 97,67.9 96.1,66.8 97.2,67.8 96.3,66.6 
										97.3,67.7 96.6,66.4 97.4,67.6 96.9,66.3 97.6,67.6 97.2,66.1 97.7,67.5 97.5,66.1 97.9,67.5 97.8,66 98.1,67.5 98.2,66 
										98.2,67.5 98.5,66 98.4,67.5 98.8,66.1 98.5,67.5 99.1,66.2 98.7,67.6 99.4,66.3 98.8,67.7 99.7,66.5 99,67.8 99.9,66.6 
										99.1,67.9 100.2,66.8 99.2,68 100.4,67.1 99.3,68.1 100.6,67.3 99.4,68.2 100.8,67.6 99.5,68.4 100.9,67.9 99.5,68.5 
										101,68.2 99.6,68.7 101,68.5 99.6,68.8 101.1,68.9 99.6,69 101.1,69.2 99.6,69.2 101,69.5 99.6,69.3 101,69.8 99.5,69.5 
										100.8,70.1 99.4,69.6 100.7,70.4 99.4,69.8 100.5,70.7 99.3,69.9 100.3,70.9 99.2,70 100.1,71.2 99,70.1 99.9,71.4 
										98.9,70.2 99.6,71.5 98.8,70.3 99.3,71.7 98.6,70.4 99,71.8 98.5,70.4 98.7,71.9 98.3,70.4 98.4,71.9 98.2,70.5 98.1,71.9 
										98,70.5 97.7,71.9 97.8,70.4 97.4,71.9 97.7,70.4 97.1,71.8 97.5,70.3 96.8,71.7 97.4,70.3 96.5,71.5 97.3,70.2 96.3,71.3 
										97.1,70.1 96,71.1 97,70 95.8,70.9 96.9,69.9 95.6,70.6 96.8,69.7 95.5,70.3 96.7,69.6 95.3,70 96.7,69.4 95.2,69.7 
										96.6,69.3 95.2,69.4 96.6,69.1 95.1,69.1 96.6,68.9 95.1,68.8 96.6,68.8 95.2,68.4 96.7,68.6 95.3,68.1 96.7,68.5 
										95.4,67.8 96.8,68.3 									"/>
								</g>
								<g>
									<circle class="st11" cx="98.1" cy="69" r="1.6"/>
									<path class="st12" d="M99.1,68.3C99.1,68.3,99.1,68.2,99.1,68.3c0-0.3-0.2-0.5-0.5-0.5c-0.3,0-0.5,0.2-0.5,0.5
										c0,0.3,0.2,0.5,0.5,0.5c0,0,0.1,0,0.1,0c0,0,0.1,0,0.1,0c0.2,0,0.3-0.1,0.3-0.3C99.1,68.4,99.1,68.3,99.1,68.3z"/>
								</g>
							</g>
							<g>
								<g>
									<circle class="st8" cx="63.8" cy="69" r="3.3"/>
									<circle class="st9" cx="63.8" cy="69" r="3.1"/>
									<polygon class="st10" points="61.2,67.5 62.5,68.2 61.3,67.3 62.6,68.1 61.5,67 62.7,67.9 61.8,66.8 62.8,67.8 62,66.6 
										63,67.7 62.3,66.4 63.1,67.6 62.6,66.3 63.2,67.6 62.9,66.1 63.4,67.5 63.2,66.1 63.5,67.5 63.5,66 63.7,67.5 63.8,66 
										63.9,67.5 64.1,66 64,67.5 64.5,66.1 64.2,67.5 64.8,66.2 64.3,67.6 65.1,66.3 64.5,67.7 65.3,66.5 64.6,67.8 65.6,66.6 
										64.7,67.9 65.8,66.8 64.9,68 66.1,67.1 65,68.1 66.3,67.3 65.1,68.2 66.4,67.6 65.1,68.4 66.5,67.9 65.2,68.5 66.6,68.2 
										65.2,68.7 66.7,68.5 65.2,68.8 66.7,68.9 65.3,69 66.7,69.2 65.2,69.2 66.7,69.5 65.2,69.3 66.6,69.8 65.2,69.5 66.5,70.1 
										65.1,69.6 66.4,70.4 65,69.8 66.2,70.7 64.9,69.9 66,70.9 64.8,70 65.8,71.2 64.7,70.1 65.5,71.4 64.6,70.2 65.3,71.5 
										64.4,70.3 65,71.7 64.3,70.4 64.7,71.8 64.1,70.4 64.4,71.9 64,70.4 64,71.9 63.8,70.5 63.7,71.9 63.7,70.5 63.4,71.9 
										63.5,70.4 63.1,71.9 63.3,70.4 62.8,71.8 63.2,70.3 62.5,71.7 63,70.3 62.2,71.5 62.9,70.2 61.9,71.3 62.8,70.1 61.7,71.1 
										62.7,70 61.5,70.9 62.6,69.9 61.3,70.6 62.5,69.7 61.1,70.3 62.4,69.6 61,70 62.3,69.4 60.9,69.7 62.3,69.3 60.8,69.4 
										62.3,69.1 60.8,69.1 62.3,68.9 60.8,68.8 62.3,68.8 60.8,68.4 62.3,68.6 60.9,68.1 62.4,68.5 61,67.8 62.4,68.3 									
										"/>
								</g>
								<g>
									<circle class="st11" cx="63.8" cy="69" r="1.6"/>
									<path class="st12" d="M64.8,68.3C64.8,68.3,64.8,68.2,64.8,68.3c0-0.3-0.2-0.5-0.5-0.5c-0.3,0-0.5,0.2-0.5,0.5
										c0,0.3,0.2,0.5,0.5,0.5c0,0,0.1,0,0.1,0c0,0,0.1,0,0.1,0c0.2,0,0.3-0.1,0.3-0.3C64.8,68.4,64.8,68.3,64.8,68.3z"/>
								</g>
							</g>
						</g>
						<g>
							<path class="st13" d="M106.9,61.1H89.3c-3.2,0-5.8,2.6-5.8,5.8V68h-5.6v-1.1c0-3.2-2.6-5.8-5.8-5.8H54.5
								c-3.2,0-5.8,2.6-5.8,5.8V71c0,3.2,2.6,5.8,5.8,5.8h17.6c3.2,0,5.8-2.6,5.8-5.8v-1.1h5.6V71c0,3.2,2.6,5.8,5.8,5.8h17.6
								c3.2,0,5.8-2.6,5.8-5.8v-4.1C112.7,63.7,110.1,61.1,106.9,61.1z M75.9,71c0,2.1-1.7,3.8-3.8,3.8H54.5c-2.1,0-3.8-1.7-3.8-3.8
								v-4.1c0-2.1,1.7-3.8,3.8-3.8h17.6c2.1,0,3.8,1.7,3.8,3.8V71z M110.7,71c0,2.1-1.7,3.8-3.8,3.8H89.3c-2.1,0-3.8-1.7-3.8-3.8
								v-4.1c0-2.1,1.7-3.8,3.8-3.8h17.6c2.1,0,3.8,1.7,3.8,3.8C110.7,66.9,110.7,71,110.7,71z"/>
						</g>
					</g>
				</g>
			</g>
		</g>
	</g>
</g>
</svg>
