<svg width="0" height="0" class="hidden">
  <symbol xmlns="http://www.w3.org/2000/svg" viewBox="0 0 510 510" id="google">
    <path d="M286.875 229.5v63.75h150.45c-15.3 89.25-86.7 153-175.95 153-104.55 0-191.25-86.7-191.25-191.25s86.7-191.25 191.25-191.25c53.55 0 99.45 22.95 132.6 58.65l45.9-45.9c-45.9-45.9-107.1-76.5-178.5-76.5-140.25 0-255 114.75-255 255s114.75 255 255 255 242.25-114.75 242.25-255v-25.5h-216.75z"></path>
  </symbol>
  <symbol xmlns="http://www.w3.org/2000/svg" viewBox="0 0 512 512" id="facebook">
    <path d="M448 0H64C28.704 0 0 28.704 0 64v384c0 35.296 28.704 64 64 64h192V336h-64v-80h64v-64c0-53.024 42.976-96 96-96h64v80h-32c-17.664 0-32-1.664-32 16v64h80l-32 80h-48v176h96c35.296 0 64-28.704 64-64V64c0-35.296-28.704-64-64-64z"></path>
  </symbol>
  <symbol xmlns="http://www.w3.org/2000/svg" viewBox="0 0 512 512" id="email">
    <path d="M339.392 258.624L512 367.744V144.896zM0 144.896v222.848l172.608-109.12zM480 80H32C16.032 80 3.36 91.904.96 107.232L256 275.264l255.04-168.032C508.64 91.904 495.968 80 480 80zM310.08 277.952l-45.28 29.824a15.983 15.983 0 0 1-8.8 2.624c-3.072 0-6.112-.864-8.8-2.624l-45.28-29.856L1.024 404.992C3.488 420.192 16.096 432 32 432h448c15.904 0 28.512-11.808 30.976-27.008L310.08 277.952z"></path>
  </symbol>
</svg>