<svg width="0" height="0" class="hidden">
  <symbol viewBox="0 -192 512 512" xmlns="http://www.w3.org/2000/svg" id="ellipsis">
    <path d="M320 64c0 35.348-28.652 64-64 64s-64-28.652-64-64 28.652-64 64-64 64 28.652 64 64zm-192 0c0 35.348-28.652 64-64 64S0 99.348 0 64 28.652 0 64 0s64 28.652 64 64zm384 0c0 35.348-28.652 64-64 64s-64-28.652-64-64 28.652-64 64-64 64 28.652 64 64zm0 0"></path>
  </symbol>
  <symbol xmlns="http://www.w3.org/2000/svg" viewBox="0 0 512 512" id="videocall">
    <path d="M506.688 86.765a10.657 10.657 0 0 0-10.645-.021l-133.376 76.203v-45.611c0-17.643-14.357-32-32-32H55.275C17.301 85.336 0 173.805 0 256.003S17.301 426.67 55.275 426.67h275.392c17.643 0 32-14.357 32-32v-45.611l133.376 76.203a10.68 10.68 0 0 0 5.291 1.408c1.856 0 3.691-.469 5.355-1.429a10.687 10.687 0 0 0 5.312-9.237v-320a10.717 10.717 0 0 0-5.313-9.239z"></path>
  </symbol>
  <symbol xmlns="http://www.w3.org/2000/svg" viewBox="0 0 405.333 405.333" id="phone-call">
    <path d="M373.333 266.88c-25.003 0-49.493-3.904-72.704-11.563-11.328-3.904-24.192-.896-31.637 6.699l-46.016 34.752c-52.8-28.181-86.592-61.952-114.389-114.368l33.813-44.928c8.512-8.512 11.563-20.971 7.915-32.64-7.723-23.36-11.648-47.872-11.648-72.832 0-17.643-14.357-32-32-32H32C14.357 0 0 14.357 0 32c0 205.845 167.488 373.333 373.333 373.333 17.643 0 32-14.357 32-32V298.88c0-17.643-14.357-32-32-32z"></path>
  </symbol>
  <symbol xmlns="http://www.w3.org/2000/svg" viewBox="0 0 448.011 448.011" id="send">
    <path d="M438.731 209.463l-416-192c-6.624-3.008-14.528-1.216-19.136 4.48a15.911 15.911 0 0 0-.384 19.648l136.8 182.4-136.8 182.4c-4.416 5.856-4.256 13.984.352 19.648 3.104 3.872 7.744 5.952 12.448 5.952 2.272 0 4.544-.48 6.688-1.472l416-192c5.696-2.624 9.312-8.288 9.312-14.528s-3.616-11.904-9.28-14.528z"></path>
  </symbol>
  <symbol viewBox="0 -21 511.987 511" xmlns="http://www.w3.org/2000/svg" id="image">
    <path d="M133.32 373.828c-34.152 0-64.53-21.867-75.562-54.422l-.746-2.453c-2.602-8.621-3.692-15.871-3.692-23.125V148.375L1.566 321.133c-6.656 25.41 8.512 51.754 33.961 58.773l329.88 88.344a48.935 48.935 0 0 0 12.288 1.578c21.246 0 40.66-14.101 46.102-34.883l19.219-61.117zm58.668-224c23.532 0 42.664-19.137 42.664-42.668s-19.132-42.668-42.664-42.668S149.32 83.63 149.32 107.16s19.137 42.668 42.668 42.668zm0 0"></path>
    <path d="M458.652.492h-320C109.258.492 85.32 24.43 85.32 53.828v234.664c0 29.399 23.938 53.336 53.332 53.336h320c29.399 0 53.336-23.937 53.336-53.336V53.828c0-29.398-23.937-53.336-53.336-53.336zm-320 42.668h320c5.891 0 10.668 4.778 10.668 10.668v151.445l-67.39-78.636c-7.149-8.383-17.496-12.864-28.61-13.117-11.05.062-21.418 4.968-28.5 13.46l-79.234 95.102-25.813-25.75c-14.59-14.59-38.335-14.59-52.906 0l-58.879 58.86V53.827c0-5.89 4.778-10.668 10.664-10.668zm0 0"></path>
  </symbol>
  <symbol xmlns="http://www.w3.org/2000/svg" viewBox="0 0 30.34 30.34" id="paper-clip">
    <path d="M22.562 12.491s1.227-.933.293-1.866c-.934-.933-1.842.271-1.842.271l-9.389 9.391s-2.199 2.838-3.871 1.122c-1.67-1.718 1.121-3.872 1.121-3.872l12.311-12.31s2.873-3.165 5.574-.466c2.697 2.7-.477 5.579-.477 5.579L12.449 24.173s-4.426 5.113-8.523 1.015 1.066-8.474 1.066-8.474L15.494 6.209s1.176-.982.295-1.866c-.885-.883-1.865.295-1.865.295L1.873 16.689s-4.549 4.989.531 10.068c5.08 5.082 10.072.533 10.072.533l16.563-16.565s3.314-3.655-.637-7.608-7.607-.639-7.607-.639L6.543 16.728s-3.65 2.969-.338 6.279c3.312 3.314 6.227-.39 6.227-.39l10.13-10.126z"></path>
  </symbol>
  <symbol viewBox="0 0 512 512" xmlns="http://www.w3.org/2000/svg" id="plus">
    <path d="M368 272H144c-8.832 0-16-7.168-16-16s7.168-16 16-16h224c8.832 0 16 7.168 16 16s-7.168 16-16 16zm0 0"></path>
    <path d="M256 384c-8.832 0-16-7.168-16-16V144c0-8.832 7.168-16 16-16s16 7.168 16 16v224c0 8.832-7.168 16-16 16zm0 0"></path>
    <path d="M453.332 512H58.668C26.305 512 0 485.695 0 453.332V58.668C0 26.305 26.305 0 58.668 0h394.664C485.695 0 512 26.305 512 58.668v394.664C512 485.695 485.695 512 453.332 512zM58.668 32C43.968 32 32 43.969 32 58.668v394.664C32 468.032 43.969 480 58.668 480h394.664c14.7 0 26.668-11.969 26.668-26.668V58.668C480 43.968 468.031 32 453.332 32zm0 0"></path>
  </symbol>
</svg>