<svg width="0" height="0" class="hidden">
  <symbol viewBox="0 -192 512 512" xmlns="http://www.w3.org/2000/svg" id="ellipsis">
    <path d="M320 64c0 35.348-28.652 64-64 64s-64-28.652-64-64 28.652-64 64-64 64 28.652 64 64zm-192 0c0 35.348-28.652 64-64 64S0 99.348 0 64 28.652 0 64 0s64 28.652 64 64zm384 0c0 35.348-28.652 64-64 64s-64-28.652-64-64 28.652-64 64-64 64 28.652 64 64zm0 0"></path>
  </symbol>
  <symbol xmlns="http://www.w3.org/2000/svg" viewBox="0 0 512 512" id="videocall">
    <path d="M506.688 86.765a10.657 10.657 0 0 0-10.645-.021l-133.376 76.203v-45.611c0-17.643-14.357-32-32-32H55.275C17.301 85.336 0 173.805 0 256.003S17.301 426.67 55.275 426.67h275.392c17.643 0 32-14.357 32-32v-45.611l133.376 76.203a10.68 10.68 0 0 0 5.291 1.408c1.856 0 3.691-.469 5.355-1.429a10.687 10.687 0 0 0 5.312-9.237v-320a10.717 10.717 0 0 0-5.313-9.239z"></path>
  </symbol>
  <symbol xmlns="http://www.w3.org/2000/svg" viewBox="0 0 405.333 405.333" id="phone-call">
    <path d="M373.333 266.88c-25.003 0-49.493-3.904-72.704-11.563-11.328-3.904-24.192-.896-31.637 6.699l-46.016 34.752c-52.8-28.181-86.592-61.952-114.389-114.368l33.813-44.928c8.512-8.512 11.563-20.971 7.915-32.64-7.723-23.36-11.648-47.872-11.648-72.832 0-17.643-14.357-32-32-32H32C14.357 0 0 14.357 0 32c0 205.845 167.488 373.333 373.333 373.333 17.643 0 32-14.357 32-32V298.88c0-17.643-14.357-32-32-32z"></path>
  </symbol>
  <symbol xmlns="http://www.w3.org/2000/svg" viewBox="0 0 448.011 448.011" id="send">
    <path d="M438.731 209.463l-416-192c-6.624-3.008-14.528-1.216-19.136 4.48a15.911 15.911 0 0 0-.384 19.648l136.8 182.4-136.8 182.4c-4.416 5.856-4.256 13.984.352 19.648 3.104 3.872 7.744 5.952 12.448 5.952 2.272 0 4.544-.48 6.688-1.472l416-192c5.696-2.624 9.312-8.288 9.312-14.528s-3.616-11.904-9.28-14.528z"></path>
  </symbol>
  <symbol viewBox="0 -64 512 512" xmlns="http://www.w3.org/2000/svg" id="image">
    <path d="M149.332 106.668c0 23.562-19.102 42.664-42.664 42.664C83.102 149.332 64 130.23 64 106.668 64 83.102 83.102 64 106.668 64c23.562 0 42.664 19.102 42.664 42.668zm0 0"></path>
    <path d="M448 0H64C28.715 0 0 28.715 0 64v256c0 1.195.297 2.324.363 3.52-.3 2.558-.172 5.14.766 7.574C6.399 361.09 32.512 384 64 384h384c35.285 0 64-28.715 64-64V64c0-35.285-28.715-64-64-64zM64 42.668h384c11.754 0 21.332 9.578 21.332 21.332v169.367l-112.21-112.215c-14.595-14.593-38.337-14.593-52.907 0L202.668 222.7l-26.883-26.879c-14.59-14.593-38.336-14.593-52.906 0l-80.211 80.211V64c0-11.754 9.578-21.332 21.332-21.332zm0 0"></path>
  </symbol>
  <symbol viewBox="-96 0 512 512" xmlns="http://www.w3.org/2000/svg" id="paperclip">
    <path d="M160 512C71.766 512 0 440.234 0 352V122.668c0-8.832 7.168-16 16-16s16 7.168 16 16V352c0 70.594 57.406 128 128 128s128-57.406 128-128V117.332C288 70.273 249.727 32 202.668 32c-47.063 0-85.336 38.273-85.336 85.332v213.336c0 23.531 19.137 42.664 42.668 42.664s42.668-19.133 42.668-42.664v-208c0-8.832 7.168-16 16-16s16 7.168 16 16v208c0 41.172-33.496 74.664-74.668 74.664s-74.668-33.492-74.668-74.664V117.332C85.332 52.652 137.961 0 202.668 0 267.371 0 320 52.652 320 117.332V352c0 88.234-71.766 160-160 160zm0 0"></path>
  </symbol>
  <symbol viewBox="0 0 512 512" xmlns="http://www.w3.org/2000/svg" id="plus">
    <path d="M368 272H144c-8.832 0-16-7.168-16-16s7.168-16 16-16h224c8.832 0 16 7.168 16 16s-7.168 16-16 16zm0 0"></path>
    <path d="M256 384c-8.832 0-16-7.168-16-16V144c0-8.832 7.168-16 16-16s16 7.168 16 16v224c0 8.832-7.168 16-16 16zm0 0"></path>
    <path d="M453.332 512H58.668C26.305 512 0 485.695 0 453.332V58.668C0 26.305 26.305 0 58.668 0h394.664C485.695 0 512 26.305 512 58.668v394.664C512 485.695 485.695 512 453.332 512zM58.668 32C43.968 32 32 43.969 32 58.668v394.664C32 468.032 43.969 480 58.668 480h394.664c14.7 0 26.668-11.969 26.668-26.668V58.668C480 43.968 468.031 32 453.332 32zm0 0"></path>
  </symbol>
</svg>