<svg width="0" height="0" class="hidden">
  <symbol xmlns="http://www.w3.org/2000/svg" viewBox="0 0 367.2 367.2" id="document">
    <path d="M183.4 114.4h-.4l-27.6 34.4-27.6 34.4v.4h20.8c4.8 0 8.8 4 8.8 8.8v54.4c0 1.6.8 3.2 2 4.4s2.8 2 4.4 2h38.8l4.4-2c1.2-1.2 2-2.8 2-4.4V192c0-4.8 4-8.8 8.8-8.8h20.8l-27.2-34.4-28-34.4z"></path>
    <path d="M271.4 76c-16.4 0-29.6-13.2-29.6-29.6V0h-182c-5.6 0-10.4 4.8-10.4 10.4v346.4c0 5.6 4.8 10.4 10.4 10.4h247.6c5.6 0 10.4-4.8 10.4-10.4V76h-46.4zm-26.8 123.6c-4.4 1.6-12.8 1.2-18 1.2v46c0 6.4-2.8 12.4-7.2 16.8s-10.4 7.2-16.8 7.2h-38.8c-6.4 0-12.4-2.8-16.8-7.2-4.4-4-7.2-10.4-7.2-16.8v-46c-9.6 0-18 1.6-24.4-5.2-6.8-6.8-6.8-16.8-.8-24.4l54.8-67.2c6.4-8.8 19.2-9.2 26-2.4l2 2 55.2 68.4c7.2 8 4.4 23.2-8 27.6z"></path>
    <path d="M271.4 58.8H305l-46-46.4v34c0 6.8 5.6 12.4 12.4 12.4z"></path>
  </symbol>
  <symbol xmlns="http://www.w3.org/2000/svg" viewBox="0 0 285.247 285.247" id="percussion-instrument">
    <path d="M73.416 78.551c6.3 4.554 10.427 11.936 10.491 20.27l.233 8.12 68.919-70.186c4.849-4.849 5.595-12.651 1.34-18.027-2.685-3.391-6.6-5.086-10.516-5.087-3.43 0-6.859 1.302-9.461 3.903L73.416 78.551zM16.828 191.558l4.458-5.182L33.431 98.07c.433-11.632 8.774-21.271 19.79-23.7l-.354-12.393c0-7.286-5.962-13.247-13.248-13.247s-13.247 5.961-13.247 13.247l-12.72 92.483a.045.045 0 0 1-.012.026L1.359 168.764a5.617 5.617 0 0 0 .291 7.639l15.178 15.155zM168.804 39.367c5.506 1.297 10.443 4.402 14.047 8.955a24.892 24.892 0 0 1 4.783 10.063l7.153-7.152c4.849-4.85 5.595-12.651 1.339-18.028-2.684-3.391-6.6-5.086-10.515-5.086-3.43 0-6.859 1.301-9.462 3.902l-7.345 7.346zm84.538 5.187a5.968 5.968 0 0 0 3.461-1.104l14.984-10.603a6 6 0 0 0 1.432-8.363 5.998 5.998 0 0 0-8.363-1.432l-14.984 10.603a6 6 0 0 0 3.47 10.899zM232.089 29.4a5.973 5.973 0 0 0 2.11.386 6 6 0 0 0 5.617-3.891l6.46-17.182a6 6 0 1 0-11.232-4.222l-6.46 17.182a6 6 0 0 0 3.505 7.727zm47.159 26.223h-.124l-18.351.154c-3.313.067-5.944 2.606-5.877 5.918.066 3.271 2.739 5.928 5.997 5.928h.124l18.351-.313c3.313-.068 5.944-2.732 5.877-6.045-.066-3.271-2.739-5.642-5.997-5.642z"></path>
    <path d="M237.96 176.552c5.572-5.572 5.179-14.941-1.183-19.977-2.382-1.886-5.241-2.789-8.106-2.789a14.081 14.081 0 0 0-9.922 4.129l-29.974 29.974a6.162 6.162 0 0 1-4.37 1.81 6.164 6.164 0 0 1-4.37-1.81l-.078-.079a6.687 6.687 0 0 1 0-9.458l48.349-48.35c4.85-4.849 5.596-12.651 1.34-18.028-2.684-3.391-6.6-5.086-10.515-5.086-3.43 0-6.859 1.301-9.462 3.903l-48.811 48.811a6.42 6.42 0 0 1-4.555 1.887 6.423 6.423 0 0 1-4.556-1.887 6.538 6.538 0 0 1 0-9.246l62.081-62.081c4.849-4.849 5.596-12.651 1.34-18.028-2.684-3.391-6.6-5.086-10.515-5.086-3.431 0-6.86 1.301-9.462 3.903l-62.374 62.373a6.508 6.508 0 0 1-4.617 1.913 6.508 6.508 0 0 1-4.617-1.913 6.449 6.449 0 0 1 0-9.121l48.518-48.518c4.849-4.849 5.596-12.651 1.34-18.028-2.684-3.391-6.6-5.086-10.515-5.086a13.34 13.34 0 0 0-9.462 3.903l-70.431 70.431c-1.251 1.251-2.795 1.813-4.309 1.813-3.103 0-6.088-2.36-6.191-5.986l-.625-21.825c0-7.286-5.961-13.248-13.247-13.248S45.413 91.734 45.413 99.02l-12.719 92.482a.05.05 0 0 1-.013.027l-12.28 14.276a5.616 5.616 0 0 0 .291 7.64l69.67 69.56a5.61 5.61 0 0 0 3.969 1.641 5.6 5.6 0 0 0 3.419-1.162l15.655-12.022a5.73 5.73 0 0 1 2.271-1.043c27.159-5.92 58.076-29.66 87.652-59.237l34.632-34.63z"></path>
    <path fill="none" stroke="#fff" stroke-width="0" stroke-linecap="round" stroke-linejoin="round" d="M162.927 38.684h.001"></path>
  </symbol>
  <symbol xmlns="http://www.w3.org/2000/svg" viewBox="0 0 97.713 97.713" id="location">
    <path d="M48.855 0C29.021 0 12.883 16.138 12.883 35.974c0 5.174 1.059 10.114 3.146 14.684 8.994 19.681 26.238 40.46 31.31 46.359a2.003 2.003 0 0 0 3.034 0c5.07-5.898 22.314-26.676 31.311-46.359 2.088-4.57 3.146-9.51 3.146-14.684C84.828 16.138 68.69 0 48.855 0zm0 54.659c-10.303 0-18.686-8.383-18.686-18.686 0-10.304 8.383-18.687 18.686-18.687s18.686 8.383 18.686 18.687c.001 10.303-8.382 18.686-18.686 18.686z"></path>
  </symbol>
  <symbol xmlns="http://www.w3.org/2000/svg" viewBox="0 0 480.56 480.56" id="telephone">
    <path d="M365.354 317.9c-15.7-15.5-35.3-15.5-50.9 0-11.9 11.8-23.8 23.6-35.5 35.6-3.2 3.3-5.9 4-9.8 1.8-7.7-4.2-15.9-7.6-23.3-12.2-34.5-21.7-63.4-49.6-89-81-12.7-15.6-24-32.3-31.9-51.1-1.6-3.8-1.3-6.3 1.8-9.4 11.9-11.5 23.5-23.3 35.2-35.1 16.3-16.4 16.3-35.6-.1-52.1-9.3-9.4-18.6-18.6-27.9-28-9.6-9.6-19.1-19.3-28.8-28.8-15.7-15.3-35.3-15.3-50.9.1-12 11.8-23.5 23.9-35.7 35.5-11.3 10.7-17 23.8-18.2 39.1-1.9 24.9 4.2 48.4 12.8 71.3 17.6 47.4 44.4 89.5 76.9 128.1 43.9 52.2 96.3 93.5 157.6 123.3 27.6 13.4 56.2 23.7 87.3 25.4 21.4 1.2 40-4.2 54.9-20.9 10.2-11.4 21.7-21.8 32.5-32.7 16-16.2 16.1-35.8.2-51.8-19-19.1-38.1-38.1-57.2-57.1zm-19.1-79.7l36.9-6.3c-5.8-33.9-21.8-64.6-46.1-89-25.7-25.7-58.2-41.9-94-46.9l-5.2 37.1c27.7 3.9 52.9 16.4 72.8 36.3 18.8 18.8 31.1 42.6 35.6 68.8zm57.7-160.4c-42.6-42.6-96.5-69.5-156-77.8l-5.2 37.1c51.4 7.2 98 30.5 134.8 67.2 34.9 34.9 57.8 79 66.1 127.5l36.9-6.3c-9.7-56.2-36.2-107.2-76.6-147.7z"></path>
  </symbol>
  <symbol xmlns="http://www.w3.org/2000/svg" viewBox="0 0 550.795 550.795" id="envlope">
    <path d="M501.613 491.782c12.381 0 23.109-4.088 32.229-12.16L377.793 323.567a2878.213 2878.213 0 0 0-10.801 7.767c-11.678 8.604-21.156 15.318-28.434 20.129-7.277 4.822-16.959 9.737-29.045 14.755-12.094 5.024-23.361 7.528-33.813 7.528h-.612c-10.453 0-21.72-2.503-33.813-7.528-12.093-5.018-21.775-9.933-29.045-14.755-7.277-4.811-16.75-11.524-28.434-20.129a1351.934 1351.934 0 0 0-10.771-7.809L16.946 479.622c9.119 8.072 19.854 12.16 32.234 12.16h452.433zM31.047 225.299C19.37 217.514 9.015 208.598 0 198.555V435.98l137.541-137.541c-27.516-19.21-62.969-43.562-106.494-73.14zm489.012 0c-41.865 28.336-77.447 52.73-106.75 73.195l137.486 137.492V198.555c-8.815 9.841-19.059 18.751-30.736 26.744z"></path>
    <path d="M501.613 59.013H49.181c-15.784 0-27.919 5.33-36.42 15.979C4.253 85.646.006 98.97.006 114.949c0 12.907 5.636 26.892 16.903 41.959 11.267 15.061 23.256 26.891 35.961 35.496 6.965 4.921 27.969 19.523 63.012 43.801a20367.497 20367.497 0 0 1 49.505 34.395 8855.122 8855.122 0 0 1 31.022 21.701c.985.691 2.534 1.799 4.59 3.269 2.215 1.591 5.018 3.61 8.476 6.107 6.659 4.816 12.191 8.709 16.597 11.683 4.4 2.975 9.731 6.298 15.985 9.988 6.249 3.685 12.143 6.456 17.675 8.299 5.533 1.842 10.655 2.766 15.367 2.766h.612c4.711 0 9.834-.924 15.368-2.766 5.531-1.843 11.42-4.608 17.674-8.299 6.248-3.69 11.572-7.02 15.986-9.988 4.406-2.974 9.938-6.866 16.598-11.683 3.451-2.497 6.254-4.517 8.469-6.102a643.575 643.575 0 0 1 4.596-3.274c6.684-4.651 17.1-11.892 31.104-21.616 25.482-17.705 63.01-43.764 112.742-78.281 14.957-10.447 27.453-23.054 37.496-37.803 10.025-14.749 15.051-30.22 15.051-46.408 0-13.525-4.873-25.098-14.598-34.737-9.736-9.627-21.265-14.443-34.584-14.443z"></path>
  </symbol>
  <symbol xmlns="http://www.w3.org/2000/svg" viewBox="0 0 492.195 492.195" id="information">
    <path d="M420.115 72.08C373.635 25.599 311.834 0 246.098 0 180.363 0 118.562 25.599 72.081 72.08 25.599 118.562 0 180.363 0 246.098s25.599 127.535 72.08 174.018c46.482 46.482 108.283 72.08 174.018 72.08 65.736 0 127.537-25.598 174.017-72.08 46.482-46.48 72.08-108.282 72.08-174.018 0-65.735-25.597-127.536-72.08-174.018zM246.098 442.195C137.97 442.195 50 354.227 50 246.098S137.97 50 246.098 50c108.128 0 196.097 87.969 196.097 196.098 0 108.129-87.968 196.097-196.097 196.097z"></path>
    <path d="M246.098 157.33h-38.667c-13.807 0-25 11.193-25 25 0 13.808 11.193 25 25 25h13.667v178.768c0 13.807 11.193 25 25 25s25-11.193 25-25V182.33c0-13.806-11.193-25-25-25z"></path>
    <circle cx="246.098" cy="110.099" r="30.667"></circle>
  </symbol>
</svg>