<svg width="0" height="0" class="hidden">
  <symbol xmlns="http://www.w3.org/2000/svg" viewBox="0 0 512 512" id="delete">
    <path d="M353.574 176.526l-40.078-1.47-8.689 237.284 40.078 1.464zm-117.626-.735h40.104v237.285h-40.104zm-28.762 236.543l-8.689-237.285-40.078 1.471 8.69 237.284z"></path>
    <path d="M17.379 76.867v40.104h41.789L92.32 493.706c.909 10.353 9.579 18.294 19.972 18.294h286.74c10.394 0 19.07-7.947 19.972-18.301l33.153-376.728h42.464V76.867H17.379zm363.286 395.029H130.654L99.426 116.971H411.9l-31.235 354.925z"></path>
    <path d="M321.504 0H190.496c-18.428 0-33.42 14.992-33.42 33.42v63.499h40.104V40.104h117.64v56.815h40.104V33.42c0-18.428-14.992-33.42-33.42-33.42z"></path>
  </symbol>
  <symbol xmlns="http://www.w3.org/2000/svg" viewBox="0 0 298.667 298.667" id="clear">
    <path d="M298.667 30.187L268.48 0 149.333 119.147 30.187 0 0 30.187l119.147 119.146L0 268.48l30.187 30.187L149.333 179.52 268.48 298.667l30.187-30.187L179.52 149.333z"></path>
  </symbol>
  <symbol xmlns="http://www.w3.org/2000/svg" viewBox="0 0 401.998 401.998" id="pointing">
    <path d="M73.092 164.452h255.813c4.949 0 9.233-1.807 12.848-5.424 3.613-3.616 5.427-7.898 5.427-12.847s-1.813-9.229-5.427-12.85L213.846 5.424C210.232 1.812 205.951 0 200.999 0s-9.233 1.812-12.85 5.424L60.242 133.331c-3.617 3.617-5.424 7.901-5.424 12.85 0 4.948 1.807 9.231 5.424 12.847 3.621 3.617 7.902 5.424 12.85 5.424zm255.813 73.097H73.092c-4.952 0-9.233 1.808-12.85 5.421-3.617 3.617-5.424 7.898-5.424 12.847s1.807 9.233 5.424 12.848L188.149 396.57c3.621 3.617 7.902 5.428 12.85 5.428s9.233-1.811 12.847-5.428l127.907-127.906c3.613-3.614 5.427-7.898 5.427-12.848 0-4.948-1.813-9.229-5.427-12.847-3.614-3.616-7.899-5.42-12.848-5.42z"></path>
  </symbol>
  <symbol xmlns="http://www.w3.org/2000/svg" viewBox="0 0 512 512" id="smileys">
    <path d="M437.019 74.981C388.668 26.629 324.38 0 256 0S123.332 26.629 74.981 74.981C26.628 123.332 0 187.62 0 256s26.628 132.668 74.981 181.019C123.332 485.371 187.62 512 256 512s132.668-26.629 181.019-74.981C485.372 388.668 512 324.38 512 256s-26.628-132.668-74.981-181.019zM256 481.524c-124.354 0-225.524-101.17-225.524-225.524S131.646 30.476 256 30.476 481.524 131.646 481.524 256 380.354 481.524 256 481.524z"></path>
    <path d="M200.622 188.396c-24.953-24.955-65.556-24.953-90.509 0-5.951 5.95-5.951 15.599 0 21.55 5.952 5.95 15.601 5.95 21.551 0 13.072-13.071 34.34-13.07 47.41 0 2.976 2.976 6.875 4.464 10.774 4.464s7.8-1.488 10.774-4.464c5.951-5.951 5.951-15.599 0-21.55zm201.262 0c-24.953-24.953-65.556-24.955-90.509 0-5.951 5.95-5.951 15.599 0 21.55 5.952 5.95 15.601 5.95 21.551 0 13.07-13.071 34.338-13.072 47.41 0 2.976 2.976 6.875 4.464 10.774 4.464s7.8-1.488 10.774-4.464c5.951-5.951 5.951-15.599 0-21.55zm-10.773 78.779H120.889c-8.416 0-15.238 6.823-15.238 15.238 0 82.902 67.447 150.349 150.349 150.349s150.349-67.447 150.349-150.349c0-8.416-6.822-15.238-15.238-15.238zM256 402.286c-60.938 0-111.402-45.703-118.909-104.635H374.91c-7.508 58.932-57.972 104.635-118.91 104.635z"></path>
  </symbol>
  <symbol xmlns="http://www.w3.org/2000/svg" viewBox="0 0 90.43 85.6" id="down-arrow">
    <path class="cls-1" d="M47.61,84.6,89.43,42.78A3.39,3.39,0,0,0,87,37H72.43A3.39,3.39,0,0,1,69,33.79L67.39,3.21A3.39,3.39,0,0,0,64,0H25.34A3.4,3.4,0,0,0,22,3.11L19.47,33.89A3.4,3.4,0,0,1,16.09,37H3.4A3.39,3.39,0,0,0,1,42.78L42.82,84.6A3.37,3.37,0,0,0,47.61,84.6Z"></path>
    </symbol>
  <symbol xmlns="http://www.w3.org/2000/svg" viewBox="0 0 90.43 85.6" id="up-arrow">
    <path class="cls-1" d="M47.61,1,89.43,42.81A3.39,3.39,0,0,1,87,48.6H72.43A3.38,3.38,0,0,0,69,51.8L67.39,82.39A3.39,3.39,0,0,1,64,85.6H25.34A3.4,3.4,0,0,1,22,82.48L19.47,51.71a3.39,3.39,0,0,0-3.38-3.11H3.4A3.39,3.39,0,0,1,1,42.81L42.82,1A3.39,3.39,0,0,1,47.61,1Z"></path>
    </symbol>
  <symbol viewBox="0 0 512 512" xmlns="http://www.w3.org/2000/svg" id="smile">
    <path d="M375 220c-11.046 0-20-8.954-20-20 0-5.514-4.486-10-10-10s-10 4.486-10 10c0 11.046-8.954 20-20 20s-20-8.954-20-20c0-27.57 22.43-50 50-50s50 22.43 50 50c0 11.046-8.954 20-20 20zm-157-20c0-27.57-22.43-50-50-50s-50 22.43-50 50c0 11.046 8.954 20 20 20s20-8.954 20-20c0-5.514 4.486-10 10-10s10 4.486 10 10c0 11.046 8.954 20 20 20s20-8.954 20-20zm170.461 275.107c9.448-5.723 12.467-18.021 6.745-27.468-5.723-9.448-18.022-12.468-27.468-6.745C334.143 461.244 295.505 472 256 472c-119.103 0-216-96.897-216-216S136.897 40 256 40s216 96.897 216 216c0 42.589-12.665 84.044-36.626 119.885-6.139 9.183-3.672 21.603 5.511 27.742 9.183 6.14 21.604 3.671 27.742-5.511C497.001 355.674 512 306.531 512 256c0-68.38-26.629-132.667-74.98-181.02C388.667 26.629 324.38 0 256 0S123.333 26.629 74.98 74.98C26.629 123.333 0 187.62 0 256s26.629 132.667 74.98 181.02C123.333 485.371 187.62 512 256 512c46.813 0 92.617-12.757 132.461-36.893zM342 291c-6.512 0-12.28 3.127-15.932 7.945 0 0-26.018 28.055-70.068 28.055s-70.068-28.055-70.068-28.055C182.28 294.127 176.512 291 170 291c-11.046 0-20 8.954-20 20 0 5.691 2.388 10.814 6.204 14.456C159.821 329.468 195.303 367 256 367s96.179-37.532 99.796-41.544C359.612 321.814 362 316.691 362 311c0-11.046-8.954-20-20-20z"></path>
  </symbol>
  <symbol viewBox="0 0 512 512" xmlns="http://www.w3.org/2000/svg" id="percussion-instrument">
     <path d="m374.706 274.881-58.69 58.69c-5.663 5.663-14.844 5.663-20.506 0l-.707-.707c-5.663-5.663-5.663-14.844 0-20.506l79.903-79.903c8.787-8.787 8.787-23.033 0-31.82s-23.033-8.787-31.82 0l-79.903 79.903c-5.663 5.663-14.844 5.663-20.506 0l-.707-.707c-5.663-5.663-5.663-14.843 0-20.506l101.116-101.116c8.787-8.787 8.787-23.033 0-31.82s-23.033-8.787-31.82 0l-101.116 101.116c-5.663 5.663-14.844 5.663-20.506 0s-5.663-14.844 0-20.506l79.903-79.903c8.787-8.787 8.787-23.033 0-31.82s-23.033-8.787-31.82 0c-17.731 17.732-161.769 161.769-167.76 167.76-4.328-35.356-9.773-88.882-9.776-88.917v.001c0-8.432-3.532-16.865-10.598-22.887-18.809-16.03-48.771-3.356-49.393 22.149 8.778 149.228-17.396 229.12 51.204 297.721 46.863 46.863 133.449 57.47 180.312 10.607l175.009-175.009c8.787-8.787 8.787-23.033 0-31.82s-23.033-8.787-31.819 0z"/><path d="m29.98 114.14c12.5 0 24.64 3.89 34.71 11.02-2.37-21.89-4.19-39.73-4.19-39.73 0-.01 0-.01 0-.02-.01-8.42-3.54-16.84-10.6-22.86-18.813-16.042-48.774-3.352-49.39 22.15.74 12.59 1.23 24.68 1.55 36.31 8.54-4.48 18.13-6.87 27.92-6.87z"/><path d="m92.62 197.76 123.69-123.7c8.97-8.96 20.6-14.28 33.12-15.22l20.43-20.43c8.78-8.79 8.78-23.03 0-31.82-8.82-8.8-23.048-8.772-31.82 0-14.29 14.28-110.47 110.47-150.51 150.51 1.45 4.91 2.28 10.02 2.43 15.24.35 3.34 1.34 13 2.66 25.42z"/><path d="m303.5 95.31c6.03-3.02 12.61-4.85 19.46-5.35l20.44-20.44c8.78-8.78 8.78-23.03 0-31.82-8.78-8.76-23.034-8.786-31.82 0l-29.48 29.48c9.754 6.362 17.64 16.203 21.4 28.13z"/><path d="m497 92h-30c-8.284 0-15 6.716-15 15s6.716 15 15 15h30c8.284 0 15-6.716 15-15s-6.716-15-15-15z"/><path d="m476.606 4.393c-5.857-5.858-15.355-5.858-21.213 0l-30 30c-5.858 5.858-5.858 15.355 0 21.213s15.356 5.858 21.213 0l30-30c5.859-5.857 5.859-15.355 0-21.213z"/>
    </symbol>
</svg>