<svg width="0" height="0" class="hidden">
	<symbol xmlns="http://www.w3.org/2000/svg" viewBox="0 0 512.001 512.001" id="care">
		<path d="M305.553 410.719h-38.799c-5.522 0-9.999 4.476-9.999 9.999 0 5.523 4.477 9.999 9.999 9.999h38.799c5.988 0 10.86 4.871 10.86 10.859 0 5.988-4.871 10.859-10.86 10.859H201.109c-15.7 0-30.464-6.922-40.504-18.992l-24.977-30.022c-13.402-16.11-32.907-25.545-53.777-26.142v-59.067h36.816c18.156 0 35.347 6.944 48.408 19.552l53.908 52.035c3.811 3.679 3.989 9.839.396 13.731-3.662 3.966-9.878 4.225-13.857.578l-42.323-38.796c-4.069-3.731-10.395-3.457-14.126.614-3.732 4.071-3.457 10.396.614 14.127l42.323 38.796c5.708 5.232 12.931 7.816 20.136 7.816 8.044 0 16.065-3.221 21.928-9.572 10.906-11.815 10.367-30.513-1.202-41.681l-53.908-52.035c-16.809-16.226-38.933-25.162-62.297-25.162H79.909c-3.762-8.904-12.585-15.169-22.843-15.169H9.999c-5.522 0-9.999 4.476-9.999 9.999v73.117c0 5.522 4.477 9.999 9.999 9.999s9.999-4.476 9.999-9.999v-63.119h37.069a4.792 4.792 0 0 1 4.787 4.787v80.143a4.792 4.792 0 0 1-4.787 4.787H46.682c-5.522 0-9.999 4.476-9.999 9.999 0 5.522 4.477 9.999 9.999 9.999h10.384c10.396 0 19.311-6.436 22.986-15.531 15.588.089 30.227 6.992 40.203 18.984l24.977 30.022c13.852 16.651 34.218 26.2 55.877 26.2h104.444c17.014 0 30.857-13.842 30.857-30.857s-13.843-30.857-30.857-30.857zm196.448-278.785c-5.522 0-9.999 4.476-9.999 9.999v67.025h-37.069a4.792 4.792 0 0 1-4.787-4.787v-80.143a4.792 4.792 0 0 1 4.787-4.787h9.651c5.522 0 9.999-4.476 9.999-9.999 0-5.522-4.477-9.999-9.999-9.999h-9.651c-10.396 0-19.311 6.436-22.986 15.531-15.588-.089-30.227-6.992-40.203-18.984l-24.977-30.021c-13.851-16.651-34.218-26.201-55.878-26.201H206.447c-17.014 0-30.857 13.842-30.857 30.856 0 17.014 13.843 30.856 30.857 30.856h42.708c5.522 0 9.999-4.476 9.999-9.999s-4.477-9.999-9.999-9.999h-42.708c-5.988 0-10.86-4.871-10.86-10.859 0-5.987 4.871-10.859 10.86-10.859H310.89c15.701 0 30.465 6.922 40.505 18.992l24.977 30.021c13.401 16.11 32.907 25.545 53.777 26.143v59.067h-36.816c-18.156 0-35.347-6.944-48.408-19.552L291.017 122.2c-3.811-3.679-3.989-9.838-.396-13.731 3.662-3.967 9.878-4.225 13.857-.578l42.324 38.796a9.999 9.999 0 1 0 13.512-14.741L317.99 93.151c-12.08-11.073-30.948-10.284-42.064 1.756-10.906 11.816-10.367 30.514 1.202 41.681l53.908 52.035c16.809 16.226 38.933 25.162 62.297 25.162h38.758c3.762 8.904 12.585 15.169 22.843 15.169h47.068c5.522 0 9.999-4.476 9.999-9.999v-77.024c-.001-5.521-4.478-9.997-10-9.997zM322.838 379.643c-2.274-5.032-8.184-7.277-13.212-5.004-5.064 2.205-7.38 8.097-5.175 13.159a10 10 0 0 0 9.172 6.009 9.965 9.965 0 0 0 3.987-.834l.215-.095c5.033-2.273 7.286-8.202 5.013-13.235zm24.855-16.834c-3.269-4.44-9.552-5.364-13.997-2.11-4.455 3.262-5.423 9.519-2.161 13.974a9.984 9.984 0 0 0 8.075 4.093c2.05 0 4.119-.628 5.899-1.931l.125-.092c4.429-3.28 5.327-9.496 2.059-13.934z">
		</path>
		<path d="M294.884 390.868c-1.139-5.385-6.426-8.833-11.816-7.719-5.384 1.069-8.904 6.284-7.872 11.684.916 4.79 5.107 8.123 9.81 8.123a10.062 10.062 0 0 0 2.183-.24c5.4-1.145 8.838-6.447 7.695-11.848zm73.697-49.807c-4.1-3.698-10.421-3.373-14.121.728l-.212.24c-3.608 4.181-3.142 10.495 1.039 14.102a9.957 9.957 0 0 0 6.526 2.428 9.977 9.977 0 0 0 7.512-3.394c3.682-4.101 3.351-10.411-.744-14.104zm-5.584 8.431l-1.112-1.006 1.204 1.086-.092-.08zm31.034-62.619c-5.284-1.603-10.874 1.412-12.477 6.697-1.624 5.278 1.338 10.873 6.616 12.497a9.969 9.969 0 0 0 2.943.445c4.274 0 8.231-2.762 9.553-7.061l.042-.137c1.602-5.285-1.393-10.839-6.677-12.441zm12.807-51.606a10.216 10.216 0 0 0-.073-.381c-1.129-5.404-6.425-8.861-11.827-7.734-5.383 1.122-8.844 6.386-7.76 11.768.917 4.771 5.098 8.11 9.806 8.11.585 0 1.179-.051 1.774-.158 5.436-.973 9.053-6.169 8.08-11.605zm-9.17 21.695c-5.483-.484-10.353 3.581-10.838 9.081-.009.097-.023.294-.029.391-.324 5.513 3.881 10.245 9.394 10.569.2.012.398.018.596.018 5.206 0 9.581-4.026 9.964-9.269.456-5.48-3.602-10.306-9.087-10.79zm-13.425 58.363c-4.8-2.721-10.906-1.035-13.628 3.77l-.139.25c-2.633 4.854-.856 10.967 3.997 13.6a10.02 10.02 0 0 0 4.789 1.221 9.918 9.918 0 0 0 8.743-5.2l-8.692-4.942 8.699 4.93c2.723-4.805 1.036-10.906-3.769-13.629zM202.895 124.9c-2.469-4.94-8.478-6.943-13.414-4.472l-.089.044c-4.94 2.47-6.897 8.453-4.427 13.392 1.749 3.499 5.293 5.513 8.967 5.513 1.514 0 3.05-.342 4.491-1.062 4.94-2.469 6.941-8.475 4.472-13.415zm28.927-8.337a9.996 9.996 0 0 0-12.308-7.302c-5.348 1.378-8.587 6.835-7.21 12.182a9.99 9.99 0 0 0 9.659 7.511c.824 0 1.662-.103 2.498-.318 5.366-1.301 8.662-6.706 7.361-12.073zm-55.366 22.756c-3.458-4.297-9.754-4.972-14.056-1.522l6.199 7.845-6.229-7.822c-4.32 3.44-5.033 9.73-1.594 14.05a9.984 9.984 0 0 0 7.83 3.771 9.963 9.963 0 0 0 6.222-2.177l.132-.106c4.29-3.465 4.954-9.742 1.496-14.039zm-53.313 71.142c-5.328-1.452-10.824 1.687-12.277 7.015-.025.091-.073.28-.096.372-1.3 5.365 1.996 10.76 7.36 12.063.792.192 1.584.284 2.364.284 4.486 0 8.562-3.044 9.698-7.581 1.371-5.288-1.762-10.711-7.049-12.153zm-6.37 29.379c-5.527-.307-10.241 3.892-10.561 9.404-.008.129-.013.257-.017.385-.162 5.517 4.179 10.114 9.697 10.279.102.003.202.005.303.005 5.36 0 9.789-4.253 9.987-9.637.25-5.459-3.938-10.118-9.409-10.436zm18.954-56.704c-4.891-2.566-10.934-.681-13.499 4.209l-.163.322c-2.437 4.953-.393 10.935 4.559 13.374a9.932 9.932 0 0 0 4.404 1.029c3.672 0 7.207-2.032 8.959-5.532 2.49-4.873.598-10.853-4.26-13.402zm18.058-24.057c-4.249-3.527-10.553-2.942-14.08 1.306l-.206.254c-3.428 4.327-2.695 10.605 1.63 14.035a9.943 9.943 0 0 0 6.202 2.163 9.997 9.997 0 0 0 7.816-3.746c3.464-4.247 2.864-10.503-1.362-14.012zm-25.712 118.949c-.973-5.436-6.172-9.053-11.605-8.079-5.436.974-9.053 6.169-8.08 11.605l.018.098c.866 4.833 5.063 8.19 9.804 8.19.591 0 1.19-.052 1.792-.16 5.436-.973 9.045-6.218 8.071-11.654zm162.259-75.903c-13.015 0-25.074 5.367-33.667 14.424-8.594-9.057-20.652-14.424-33.667-14.424-25.603 0-46.432 20.829-46.432 46.432 0 13.815 6.093 26.817 16.715 35.673.064.054.13.107.196.16l56.981 45.112a9.977 9.977 0 0 0 6.206 2.159 9.98 9.98 0 0 0 6.23-2.178l59.395-47.31a9.9 9.9 0 0 0 .831-.741c8.799-8.775 13.644-20.45 13.644-32.875 0-25.603-20.829-46.432-46.432-46.432zm19.028 64.783l-52.713 41.988-50.65-40.099a26.383 26.383 0 0 1-9.433-20.238c-.001-14.577 11.858-26.436 26.434-26.436a26.37 26.37 0 0 1 24.43 16.327 10 10 0 0 0 18.474 0 26.37 26.37 0 0 1 24.43-16.327c14.576 0 26.435 11.859 26.435 26.435 0 6.902-2.627 13.398-7.407 18.35z">
		</path>
		<circle cx="9.999" cy="402.76" r="9.964">
		</circle>
		<circle cx="502" cy="109.24" r="9.964">
		</circle>
	</symbol>
	<symbol viewBox="0 0 512 512" xmlns="http://www.w3.org/2000/svg" id="technical-support">
		<path d="M90.05 395.95c-7.167 0-14.058 1.788-20.171 5.148C37.676 359.816 20 308.535 20 256 20 125.867 125.867 20 256 20c15.82 0 31.633 1.574 47 4.68 5.406 1.093 10.688-2.407 11.781-7.82s-2.406-10.688-7.82-11.786C290.293 1.707 273.148 0 256 0 187.621 0 123.332 26.629 74.98 74.98 26.63 123.332 0 187.621 0 256c0 57.52 19.531 113.652 55.09 158.652-4.578 6.84-7.04 14.88-7.04 23.297 0 11.219 4.372 21.766 12.305 29.696 7.93 7.933 18.477 12.304 29.696 12.304s21.765-4.37 29.699-12.304c7.934-7.93 12.3-18.48 12.3-29.7 0-11.215-4.366-21.765-12.3-29.695-7.934-7.934-18.48-12.3-29.7-12.3zm15.555 57.554c-4.152 4.156-9.68 6.445-15.554 6.445s-11.399-2.289-15.555-6.445-6.445-9.68-6.445-15.555a21.855 21.855 0 0 1 6.445-15.558c4.152-4.157 9.68-6.442 15.555-6.442s11.398 2.29 15.554 6.442a21.856 21.856 0 0 1 6.446 15.558c0 5.875-2.29 11.399-6.446 15.555zM456.902 97.336c10.871-16.309 9.125-38.606-5.254-52.984-7.933-7.93-18.48-12.301-29.699-12.301s-21.765 4.37-29.699 12.3c-7.934 7.934-12.3 18.481-12.3 29.7s4.366 21.765 12.3 29.699 18.48 12.3 29.7 12.3c7.167 0 14.058-1.788 20.171-5.148C474.324 152.187 492 203.465 492 256c0 130.133-105.867 236-236 236-15.664 0-31.328-1.543-46.55-4.59-5.415-1.082-10.684 2.43-11.77 7.844-1.082 5.418 2.43 10.683 7.843 11.77A258.08 258.08 0 0 0 256 512c68.379 0 132.668-26.629 181.02-74.98C485.37 388.668 512 324.379 512 256c0-57.523-19.535-113.66-55.098-158.664zm-50.507-7.727a21.856 21.856 0 0 1-6.446-15.558c0-5.875 2.29-11.399 6.446-15.555 4.152-4.156 9.68-6.445 15.554-6.445s11.403 2.289 15.559 6.445c8.574 8.578 8.574 22.535 0 31.113a21.875 21.875 0 0 1-15.559 6.442 21.853 21.853 0 0 1-15.554-6.442zm0 0">
		</path>
		<path d="M214.734 428c0 5.523 4.48 10 10 10h62.528c5.523 0 10-4.477 10-10v-19.387a156.596 156.596 0 0 0 37.531-15.554l13.687 13.687a9.994 9.994 0 0 0 14.145-.004l44.195-44.226c3.903-3.907 3.903-10.239 0-14.141l-13.672-13.672a156.596 156.596 0 0 0 15.555-37.531h19.313c5.523 0 10-4.477 10-10v-62.527c0-5.524-4.477-10-10-10h-19.317a156.623 156.623 0 0 0-15.55-37.528l13.597-13.597a10.009 10.009 0 0 0 2.93-7.075 10.029 10.029 0 0 0-2.934-7.074l-44.23-44.195c-3.903-3.903-10.235-3.903-14.14.004l-13.579 13.582a156.596 156.596 0 0 0-37.531-15.555V84c0-5.523-4.477-10-10-10h-62.528c-5.52 0-10 4.477-10 10v19.21a156.464 156.464 0 0 0-37.527 15.552l-13.582-13.582c-3.902-3.903-10.234-3.907-14.14-.004l-44.227 44.199a9.987 9.987 0 0 0-2.934 7.07c0 2.653 1.055 5.2 2.93 7.075l13.598 13.597a156.568 156.568 0 0 0-15.555 37.528H84.02c-5.524 0-10 4.476-10 9.996l-.036 62.527c-.004 2.652 1.051 5.2 2.926 7.074s4.418 2.93 7.074 2.93h19.313a156.596 156.596 0 0 0 15.555 37.531l-13.672 13.672c-3.903 3.902-3.907 10.234 0 14.14l44.195 44.227a10.003 10.003 0 0 0 7.07 2.934h.004a10 10 0 0 0 7.07-2.93l13.684-13.687a156.728 156.728 0 0 0 37.531 15.554zm-33.609-55.973a10.003 10.003 0 0 0-12.5 1.328l-12.176 12.176-30.058-30.082 12.164-12.168a9.997 9.997 0 0 0 1.328-12.496c-9.067-14.031-15.442-29.41-18.942-45.715a10.003 10.003 0 0 0-9.777-7.898H93.988l.024-42.527h17.152a9.999 9.999 0 0 0 9.777-7.899c3.5-16.3 9.875-31.68 18.942-45.71a9.997 9.997 0 0 0-1.328-12.497l-12.086-12.09 30.082-30.058 12.074 12.078a10.007 10.007 0 0 0 12.5 1.328 136.809 136.809 0 0 1 45.71-18.942 10.006 10.006 0 0 0 7.9-9.777V94h42.527v17.074a9.996 9.996 0 0 0 7.898 9.778 136.936 136.936 0 0 1 45.711 18.941 9.992 9.992 0 0 0 12.496-1.328l12.078-12.074 30.082 30.058-12.086 12.086a9.998 9.998 0 0 0-1.328 12.5 136.97 136.97 0 0 1 18.942 45.711 9.996 9.996 0 0 0 9.777 7.899h17.184v42.527h-17.184a10.003 10.003 0 0 0-9.777 7.898 136.855 136.855 0 0 1-18.942 45.711 10.002 10.002 0 0 0 1.328 12.5l12.164 12.164-30.058 30.082-12.176-12.172a9.998 9.998 0 0 0-12.5-1.328 136.97 136.97 0 0 1-45.71 18.942 9.999 9.999 0 0 0-7.9 9.777V418h-42.527v-17.254c0-4.71-3.293-8.785-7.898-9.777-16.3-3.5-31.68-9.875-45.711-18.942zm0 0">
		</path>
		<path d="M338.629 256c0-45.563-37.067-82.629-82.629-82.629S173.371 210.437 173.371 256s37.066 82.629 82.629 82.629 82.629-37.066 82.629-82.629zm-145.258 0c0-34.535 28.094-62.629 62.629-62.629S318.629 221.47 318.629 256 290.535 318.629 256 318.629 193.371 290.535 193.371 256zM348.078 37.82c2.633 0 5.211-1.07 7.07-2.93a10.121 10.121 0 0 0 2.93-7.081c0-2.618-1.066-5.2-2.93-7.07a10.073 10.073 0 0 0-7.07-2.93 10.05 10.05 0 0 0-7.066 2.93 10.087 10.087 0 0 0-2.934 7.07c0 2.64 1.07 5.21 2.934 7.082a10.05 10.05 0 0 0 7.066 2.93zM164.36 474.36a10.08 10.08 0 0 0-7.07 2.93 10.08 10.08 0 0 0-2.93 7.07c0 2.64 1.07 5.21 2.93 7.07 1.858 1.86 4.44 2.93 7.07 2.93s5.21-1.07 7.07-2.93c1.86-1.86 2.93-4.442 2.93-7.07s-1.07-5.212-2.93-7.07a10.08 10.08 0 0 0-7.07-2.93zm0 0">
		</path>
	</symbol>
	<symbol viewBox="0 0 64 64" xmlns="http://www.w3.org/2000/svg" id="blog">
		<path d="M8 10h2v2H8zm4 0h2v2h-2zm4 0h2v2h-2zm5 10H9a1 1 0 0 0-1 1v10a1 1 0 0 0 1 1h12a1 1 0 0 0 1-1V21a1 1 0 0 0-1-1zm-1 10H10v-8h10zm6-10h4v2h-4zm6 0h16v2H32zm-6 4h22v2H26zm0 4h10v2H26zm12 0h6v2h-6zM8 36h14v2H8zm0 4h14v2H8zm0 4h14v2H8zm0 4h14v2H8z">
		</path>
		<path d="M59 19.091a4.866 4.866 0 0 0-5 .022V9a3 3 0 0 0-3-3H5a3 3 0 0 0-3 3v46a3 3 0 0 0 3 3h46a3 3 0 0 0 3-3V37.751l6.83-11.83a5.005 5.005 0 0 0-1.83-6.83zM38.845 48H28V38h14.309l-2.639 4.572a.994.994 0 0 0-.132.564l.212 3.3zm1.289 1.768l1-1.732 1.732 1-1 1.732a1 1 0 0 1-1.732-1zm4.135-2.232l-2.538-1.465-.154-2.4 4.846 2.8zm3.329-2.7l-1.732-1 7.5-12.99-1.732-1-7.5 12.99-1.732-1 8.5-14.722 5.2 3zm4.3-19.454l.5-.865 5.2 3-.5.866zM5 8h46a1 1 0 0 1 1 1v5.032H4V9a1 1 0 0 1 1-1zm47 47a1 1 0 0 1-1 1H5a1 1 0 0 1-1-1V16.032h48v5.184L43.464 36H27a1 1 0 0 0-1 1v12a1 1 0 0 0 1 1h11.02a3 3 0 0 0 5.58 1.768l1.348-2.336 2.96-1.464a1 1 0 0 0 .423-.4L52 41.215zm7.1-30.079l-.5.866-5.2-3 .5-.866a3 3 0 0 1 5.2 3z">
		</path>
	</symbol>
	<symbol viewBox="0 -26 512 512" xmlns="http://www.w3.org/2000/svg" id="speech-bubble">
		<path d="M256 100c-5.52 0-10 4.48-10 10s4.48 10 10 10 10-4.48 10-10-4.48-10-10-10zM90 280c5.52 0 10-4.48 10-10s-4.48-10-10-10-10 4.48-10 10 4.48 10 10 10zm0 0">
		</path>
		<path d="M336 0c-90.027 0-163.918 62.07-169.633 140.254C80.63 144.554 0 206.379 0 290c0 34.945 13.828 68.805 39 95.633 4.98 20.531-1.066 42.293-16.07 57.297A9.998 9.998 0 1 0 30 460c28.52 0 56.004-11.184 76.426-30.89C126.32 435.89 152.277 440 176 440c90.016 0 163.898-62.055 169.629-140.223 20.937-.93 42.715-4.797 59.945-10.668C425.996 308.816 453.48 320 482 320a9.998 9.998 0 0 0 7.07-17.07c-15.004-15.004-21.05-36.766-16.07-57.297 25.172-26.828 39-60.688 39-95.633C512 63.113 425.16 0 336 0zM176 420c-23.602 0-50.496-4.633-68.512-11.8a10 10 0 0 0-11.078 2.538c-12.074 13.2-27.773 22.403-44.879 26.633a80.872 80.872 0 0 0 6.098-59.52 9.98 9.98 0 0 0-2.445-4.226C32.496 350.258 20 320.559 20 290c0-70.469 71.438-130 156-130 79.852 0 150 55.527 150 130 0 71.684-67.29 130-150 130zm280.816-186.375a10.027 10.027 0 0 0-2.445 4.227 80.872 80.872 0 0 0 6.098 59.52c-17.106-4.227-32.805-13.435-44.88-26.634a10.007 10.007 0 0 0-11.077-2.539c-15.614 6.211-37.887 10.512-58.914 11.551-2.922-37.816-21.786-73.36-54.036-99.75H422c5.523 0 10-4.477 10-10s-4.477-10-10-10H260.84c-22.7-11.555-48.188-18.293-74.422-19.707C192.164 73.129 257.058 20 336 20c84.563 0 156 59.531 156 130 0 30.559-12.496 60.258-35.184 83.625zm0 0">
		</path>
		<path d="M256 260H130c-5.523 0-10 4.477-10 10s4.477 10 10 10h126c5.523 0 10-4.477 10-10s-4.477-10-10-10zm0 60H90c-5.523 0-10 4.477-10 10s4.477 10 10 10h166c5.523 0 10-4.477 10-10s-4.477-10-10-10zm166-220H296c-5.523 0-10 4.477-10 10s4.477 10 10 10h126c5.523 0 10-4.477 10-10s-4.477-10-10-10zm0 0">
		</path>
	</symbol>
	<symbol xmlns="http://www.w3.org/2000/svg" viewBox="0 0 512 512" id="doctor">
		<path d="M482.726 485.783l-22.65-132.603c-2.441-14.287-12.576-25.764-26.453-29.95l-61.092-18.433a67.95 67.95 0 0 0-17.578-40.175 68.085 68.085 0 0 0-29.704-18.999 124.42 124.42 0 0 0 5.372-6.377c14.528-18.477 22.306-38.833 24.286-52.724h4.713c12.258 0 22.231-9.972 22.231-22.231v-11.396c0-8.181-4.602-15.594-11.523-19.441V106.05a7.498 7.498 0 0 0-14.995 0v30.764c-2.92.507-6.404 1.383-9.968 2.884a7.53 7.53 0 0 0-1.056.472c-.805.367-1.611.754-2.414 1.19V80.938c0-16.693-13.58-30.273-30.273-30.273h-20.695a31.105 31.105 0 0 0-19.637 7.005l-2.031 1.66a20.999 20.999 0 0 1-13.257 4.73c-4.819 0-9.528-1.68-13.258-4.73l-2.03-1.66a31.11 31.11 0 0 0-19.637-7.005H200.38c-16.693 0-30.273 13.58-30.273 30.273v60.422a38.473 38.473 0 0 0-2.414-1.19 7.519 7.519 0 0 0-1.055-.472c-3.564-1.501-7.049-2.377-9.968-2.884V59.025c0-24.278 19.752-44.03 44.03-44.03h110.601c24.279 0 44.03 19.752 44.03 44.03v11.786a7.498 7.498 0 1 0 14.995 0V59.025C370.326 26.479 343.847 0 311.301 0H200.7c-32.547 0-59.025 26.479-59.025 59.025v74.43c-6.921 3.847-11.523 11.259-11.523 19.441v11.396c0 12.259 9.973 22.231 22.231 22.231h4.713c1.979 13.891 9.758 34.247 24.286 52.724a124.188 124.188 0 0 0 5.367 6.371c-25.98 8.252-44.926 31.61-47.277 59.179L78.378 323.23c-13.877 4.186-24.013 15.663-26.453 29.95l-9.198 53.849a7.497 7.497 0 1 0 14.781 2.524l9.198-53.849c1.476-8.644 7.608-15.586 16.003-18.118l56.505-17.049v14.831c-12.952 2.384-23.973 11.281-28.512 23.608a38.026 38.026 0 0 0-2.226 10.182l-5.461 70.095a19.11 19.11 0 0 0 5.01 14.423 19.114 19.114 0 0 0 13.989 6.116h9.348a7.497 7.497 0 1 0 0-14.995h-9.348a4.07 4.07 0 0 1-2.982-1.304 4.07 4.07 0 0 1-1.067-3.073l5.461-70.096a23.021 23.021 0 0 1 1.348-6.167c3.158-8.575 11.686-14.382 21.223-14.449l1.235-.009.172-.001c9.269 0 17.474 5.256 20.935 13.427a22.997 22.997 0 0 1 1.755 7.199l5.463 70.097a4.078 4.078 0 0 1-1.068 3.073 4.074 4.074 0 0 1-2.982 1.303h-9.348a7.497 7.497 0 1 0 0 14.995h9.348a19.108 19.108 0 0 0 13.989-6.116 19.11 19.11 0 0 0 5.011-14.422l-5.463-70.096a37.974 37.974 0 0 0-2.898-11.884c-4.939-11.657-15.5-19.762-27.938-21.955v-19.306l25.774-7.777c2.345 4.939 6.992 15.612 16.197 38.619 9.277 23.214 20.808 52.969 31.867 81.895.079.243.17.48.272.712a9889.647 9889.647 0 0 1 20.662 54.541 7.498 7.498 0 0 0 14.04 0 9730.632 9730.632 0 0 1 20.662-54.541c.103-.232.193-.47.272-.712 11.051-28.909 22.576-58.645 31.849-81.852 9.217-23.037 13.868-33.719 16.214-38.662l25.774 7.777v44.285c-17.858 3.469-31.385 19.219-31.385 38.077 0 21.391 17.403 38.795 38.795 38.795 21.392 0 38.795-17.403 38.795-38.795 0-18.796-13.438-34.508-31.21-38.045v-39.792l56.506 17.049c8.395 2.532 14.526 9.474 16.003 18.118l22.65 132.603a7.329 7.329 0 0 1-1.648 6.054 7.334 7.334 0 0 1-5.69 2.644H51.393a7.333 7.333 0 0 1-5.69-2.644 7.331 7.331 0 0 1-1.648-6.054l7.475-43.762a7.497 7.497 0 0 0-6.128-8.652c-4.08-.7-7.955 2.047-8.653 6.128l-7.475 43.762a22.4 22.4 0 0 0 4.968 18.248A22.398 22.398 0 0 0 51.393 512h409.214a22.394 22.394 0 0 0 17.151-7.969 22.4 22.4 0 0 0 4.968-18.248zM355.421 152.089c3.995-.996 7.202-.978 7.238-.977a7.664 7.664 0 0 0 3.664-.87c.334.831.531 1.724.531 2.654v11.396c0 3.99-3.246 7.236-7.236 7.236h-4.197v-19.439zm-198.842 19.439h-4.197c-3.99 0-7.236-3.246-7.236-7.236v-11.396c0-.93.198-1.823.531-2.653a7.646 7.646 0 0 0 3.664.869c.057.01 3.255-.008 7.238.981v19.435zm14.995 8.407v-19.698c2.272.681 4.757.588 7.051-.369a10.502 10.502 0 0 0 6.477-9.716V80.938c0-8.424 6.854-15.278 15.278-15.278h20.695c3.688 0 7.291 1.285 10.146 3.619l2.03 1.66A36.033 36.033 0 0 0 256 79.054a36.039 36.039 0 0 0 22.749-8.115l2.03-1.66a16.07 16.07 0 0 1 10.146-3.619h20.695c8.424 0 15.278 6.854 15.278 15.278v69.215c0 4.26 2.542 8.074 6.477 9.716a10.471 10.471 0 0 0 7.051.375v19.691c0 10.947-7.568 32.205-21.594 50.043-4.646 5.909-10.618 12.257-17.971 17.805a7.51 7.51 0 0 0-.669.505c-11.391 8.422-26.038 14.874-44.192 14.874s-32.801-6.452-44.193-14.875a7.608 7.608 0 0 0-.667-.503c-7.353-5.549-13.325-11.897-17.972-17.806-14.025-17.837-21.594-39.096-21.594-50.043zM305.12 301.07L256 337.784l-49.12-36.714c4.871-6.191 7.6-14.138 7.6-21.23v-12.086c11.551 6.212 25.334 10.404 41.52 10.404s29.97-4.192 41.52-10.404v12.086c0 7.092 2.729 15.039 7.6 21.23zm-110.753-8.369a20.5 20.5 0 0 0-12.642-.636 9.418 9.418 0 0 0-.539.144l-25.903 7.816c4.381-21.542 21.873-38.688 44.202-42.009v21.824c0 4.704-2.1 9.567-5.118 12.861zm20.349 60.188l-.041-.104a2233.66 2233.66 0 0 0-1.328-3.353l-1.081-2.722-.075-.189a2891.71 2891.71 0 0 0-3.212-8.039l-.225-.56-.876-2.177-.316-.783c-.28-.694-.558-1.384-.832-2.059l-.243-.599a3020.388 3020.388 0 0 0-2.392-5.874l-.584-1.424-.219-.534-.168-.408c-.866-2.104-1.689-4.087-2.47-5.952l-.019-.045c-.416-.993-.823-1.963-1.214-2.887l-.599-1.412 42.245 31.574-17.652 7.499-.094.04-7.37 3.131-1.235-3.123zm17.89 45.908a7797.43 7797.43 0 0 0-4.468-11.569 6045.963 6045.963 0 0 0-6.708-17.251l2.798-1.189 11.432 13.289-3.054 16.72zm23.539 60.938a7.466 7.466 0 0 0-.767-1.259c-3.388-8.955-7.688-20.286-12.447-32.753l7-38.325h12.138l7 38.325a11871.808 11871.808 0 0 0-12.924 34.012zm8.736-87.331h-17.762l-8.405-9.77L256 355.291l17.286 7.343-8.405 9.77zm18.981 14.824a7797.43 7797.43 0 0 0-4.468 11.569l-3.054-16.721 11.432-13.289 2.798 1.189c-2.137 5.47-4.37 11.213-6.708 17.252zm28.718-72.048a777.44 777.44 0 0 0-1.15 2.733l-.154.368c-.389.93-.785 1.88-1.195 2.869l-.082.2c-.354.853-.717 1.733-1.086 2.63l-.203.492-.253.617-.499 1.216-.622 1.519-.204.5a1458.71 1458.71 0 0 0-1.606 3.951l-.257.635-.824 2.039-.326.809-.867 2.155-.247.615a2635.385 2635.385 0 0 0-3.167 7.925l-.108.272-1.074 2.704-.203.511-1.133 2.861-.021.053-1.248 3.16-7.377-3.134-.077-.033-17.662-7.503 42.245-31.574c-.198.46-.398.93-.6 1.41zm18.234-22.97l-.004-.001c-.006-.002-.013-.003-.019-.006-4.35-1.305-8.99-1.089-13.157.498-3.019-3.294-5.118-8.157-5.118-12.861v-21.835a52.849 52.849 0 0 1 44.232 42.029l-25.934-7.824zm58.187 106.165c0 13.124-10.677 23.8-23.8 23.8s-23.8-10.676-23.8-23.8 10.677-23.8 23.8-23.8 23.8 10.676 23.8 23.8z">
		</path>
	</symbol>
	<symbol xmlns="http://www.w3.org/2000/svg" viewBox="0 0 512 512" id="timeline">
		<path d="M465.455 116.364c-25.6 0-46.545 20.945-46.545 46.545 0 4.189.465 8.145 1.629 11.869l-82.618 82.851c-3.724-1.164-7.913-1.629-12.102-1.629s-8.378.465-12.102 1.629l-59.345-59.345c1.164-3.724 1.629-7.913 1.629-12.102 0-25.6-20.945-46.545-46.545-46.545s-46.545 20.945-46.545 46.545c0 4.189.465 8.378 1.629 12.102L58.415 304.175c-3.724-1.164-7.68-1.629-11.869-1.629C20.945 302.545 0 323.491 0 349.091s20.945 46.545 46.545 46.545 46.545-20.945 46.545-46.545c0-4.189-.466-8.146-1.629-11.869l105.891-106.124c3.724 1.164 7.913 1.629 12.102 1.629s8.378-.465 12.102-1.629l59.345 59.346c-1.164 3.724-1.629 7.913-1.629 12.102 0 25.6 20.945 46.545 46.545 46.545s46.545-20.945 46.545-46.545c0-4.189-.465-8.378-1.629-12.102l82.851-82.618c3.724 1.164 7.68 1.629 11.869 1.629 25.6 0 46.545-20.945 46.545-46.545.002-25.601-20.943-46.546-46.543-46.546z">
		</path>
	</symbol>
	<symbol xmlns="http://www.w3.org/2000/svg" viewBox="0 0 406 512" id="trusted">
		<g>
			<path class="cls-1" d="M356.16,260.42H322.93a86.35,86.35,0,0,1,5.24,29.71V415.7A37.22,37.22,0,0,1,326,428.11h30.23l29.27-50.61A280,280,0,0,0,400,327.11c4.71-24.93,6.92-37.62-.05-48.51C388.75,261,362.37,260.42,356.16,260.42Z" />
			<path d="M78.55,290.13a86.35,86.35,0,0,1,5.24-29.71H50.57c-11,.28-33.52,2.58-43.84,18.19C4.37,282.17-.36,291,6.82,334.5a474.48,474.48,0,0,0,10,46.39,170.35,170.35,0,0,0,33.81,47.22h30a37,37,0,0,1-2.14-12.41Z" />
			<path d="M246.71,228.11H160c-39,0-70.78,27.82-70.78,62V415.7c0,6.85,6.34,12.41,14.16,12.41H303.33c7.82,0,14.15-5.55,14.15-12.41V290.13C317.48,255.93,285.73,228.11,246.71,228.11Z" />
			<path d="M203.36,63.66A74.57,74.57,0,1,0,278,138.25,74.67,74.67,0,0,0,203.36,63.66Z" />
			<path d="M72.39,133.18A55.75,55.75,0,1,0,128.17,189,55.84,55.84,0,0,0,72.39,133.18Z" />
			<path d="M334.34,133.18A55.78,55.78,0,1,0,390.12,189,55.85,55.85,0,0,0,334.34,133.18Z" />
			<path style="stroke-miterlimit:20;stroke-width:20px;" d="M406.94,205.8V98.35a27.73,27.73,0,0,0-26.29-27.76C291.7,66.06,243.89,29.68,223.31,8.4a27.63,27.63,0,0,0-39.68,0C163.05,29.68,115.24,66.06,26.29,70.59A27.73,27.73,0,0,0,0,98.35V307.46A169.6,169.6,0,0,0,84.56,453.92l84.86,49a68.25,68.25,0,0,0,68.1,0l84.86-49a169.6,169.6,0,0,0,84.56-146.46V205.8h-15V307.46a154.57,154.57,0,0,1-77.06,133.47l-84.86,49a53.22,53.22,0,0,1-53.1,0l-84.86-49A154.57,154.57,0,0,1,15,307.46V98.35A12.74,12.74,0,0,1,27.05,85.57c94.09-4.79,145.24-43.87,167.36-66.74a12.63,12.63,0,0,1,18.12,0c22.11,22.87,73.27,62,167.35,66.74a12.75,12.75,0,0,1,12.06,12.78V205.8Z" />
		</g>
	</symbol>
	<symbol xmlns="http://www.w3.org/2000/svg" viewBox="0 0 512 472.26" id="prescription">
		<g>
			<path class="cls-1" d="M359.72,83.94,319.64,0H44.08A44.08,44.08,0,0,0,0,44.08V330.13a44.07,44.07,0,0,0,44.08,44.08H397.87A44.08,44.08,0,0,0,442,330.13V122.3Z" />
			<path style="fill:#666666" d="M319.64,0V81.13a41.17,41.17,0,0,0,41.17,41.17H442Z" />
			<path style="fill:#555555" d="M60.73,136.86a7.73,7.73,0,0,0,7.73-7.73v-32l43.07,49-24,21.16a7.72,7.72,0,1,0,10.2,11.6l24-21.16,21.16,24a7.73,7.73,0,0,0,11.6-10.21l-21.16-24,24-21.16a7.73,7.73,0,1,0-10.21-11.6l-24,21.16L87.65,95.59c15.2-2,26.95-14.51,26.95-29.63,0-16.49-14-29.91-31.16-29.91H60.73A7.73,7.73,0,0,0,53,43.78v85.35a7.73,7.73,0,0,0,7.73,7.73ZM83.44,51.5C92,51.5,99.15,58.12,99.15,66S92,80.42,83.44,80.42c-3.42,0-9.75,0-14.84,0-.08-14.66,0-10.7-.09-29Z" />
			<path style="fill:#555555" d="M60.73,228.43h277a7.73,7.73,0,0,0,0-15.46h-277a7.73,7.73,0,1,0,0,15.46Z" />
			<path style="fill:#555555" d="M337.73,260.36h-277a7.73,7.73,0,0,0,0,15.46h277a7.73,7.73,0,0,0,0-15.46Z" />
			<path style="fill:#555555" d="M152.05,307.75H60.73a7.73,7.73,0,0,0,0,15.46h91.32a7.73,7.73,0,0,0,0-15.46Z" />
			<path style="fill:#ff889e;" d="M430.92,329.25l-81.09-19.14L308.64,351.3a70.58,70.58,0,0,0-20.43,43.32,71.75,71.75,0,0,0,0,13.59q.33,3.38,1,6.74c.44,2.23,1,4.45,1.62,6.64a70.53,70.53,0,0,0,17.84,29.93h0c.82.82,1.65,1.61,2.5,2.38l.86.75c.57.5,1.14,1,1.72,1.48l1,.84c.54.42,1.07.84,1.61,1.24l1.15.84,1.59,1.11,1.21.8c.53.34,1.07.68,1.61,1s.82.51,1.24.75,1.11.62,1.66.93l1.24.67c.61.32,1.22.61,1.84.91l1.11.54c1,.44,1.9.85,2.87,1.24.47.2,1,.38,1.44.56s1.05.41,1.57.59l1.59.54,1.46.47c.55.17,1.11.32,1.66.48L341,470q.85.23,1.71.42l1.38.3,1.77.36,1.33.22,1.83.29,1.22.14a70.75,70.75,0,0,0,58.59-20.23l41.18-41.18Z" />
			<path style="fill:#fff;" d="M491.24,268.92l-.59-.56h0a70.56,70.56,0,0,0-43.15-19.9h0c-1.11-.1-2.21-.17-3.32-.22H444q-1.62-.08-3.24-.06h-.22c-1.05,0-2.1,0-3.14.09l-.34,0c-1,0-2,.13-3,.23l-.44.05q-1.46.15-2.91.36l-.55.09c-.93.15-1.86.3-2.78.48l-.66.15c-.89.18-1.77.37-2.65.59l-.76.2c-.84.22-1.69.44-2.52.69l-.86.28c-.8.25-1.59.5-2.38.78l-1,.35c-.75.28-1.51.56-2.25.86l-1,.44c-.72.3-1.44.61-2.14.94-.37.16-.72.35-1.08.53-.68.33-1.35.65-2,1-.38.2-.75.42-1.12.63-.64.35-1.29.7-1.92,1.07l-1.13.71c-.61.38-1.23.75-1.84,1.15-.37.25-.74.52-1.11.78-.6.41-1.2.81-1.78,1.24l-1.07.83c-.59.45-1.17.89-1.75,1.35-.28.23-.55.48-.82.71-1.55,1.31-3.07,2.67-4.53,4.13l-41.19,41.19L450.05,410.34l41.19-41.18h0A70.88,70.88,0,0,0,491.24,268.92Z" />
		</g>
	</symbol>
</svg>
