<svg width="0" height="0" class="hidden">
  <symbol viewBox="0 0 469.333 469.333" xmlns="http://www.w3.org/2000/svg" id="first-aid">
    <path d="M437.333 149.333H320V32c0-17.643-14.357-32-32-32H181.333c-17.643 0-32 14.357-32 32v117.333H32c-17.643 0-32 14.357-32 32V288c0 17.643 14.357 32 32 32h117.333v117.333c0 17.643 14.357 32 32 32H288c17.643 0 32-14.357 32-32V320h117.333c17.643 0 32-14.357 32-32V181.333c0-17.642-14.357-32-32-32z"></path>
  </symbol>
  <symbol xmlns="http://www.w3.org/2000/svg" viewBox="0 0 512.014 512.014" id="chat">
    <path d="M467.534 428.903c28.8-30.944 44.48-69.088 44.48-108.896 0-49.792-24.672-94.72-64.064-126.752-.8 114.112-108.064 206.752-239.936 206.752H118.99c34.496 56.896 104.416 96 185.024 96h192c6.464 0 12.32-3.904 14.784-9.888a16.08 16.08 0 0 0-3.456-17.44l-39.808-39.776z"></path>
    <path d="M208.014 16.007c-114.688 0-208 78.944-208 176 0 39.808 15.68 77.92 44.48 108.896L4.686 340.711a15.964 15.964 0 0 0-3.456 17.44c2.464 5.952 8.32 9.856 14.784 9.856h192c114.688 0 208-78.944 208-176s-93.312-176-208-176zm32 224h-128c-8.832 0-16-7.168-16-16s7.168-16 16-16h128c8.832 0 16 7.168 16 16s-7.168 16-16 16zm64-64h-192c-8.832 0-16-7.168-16-16s7.168-16 16-16h192c8.832 0 16 7.168 16 16s-7.168 16-16 16z"></path>
  </symbol>
  <symbol viewBox="0 0 512 512" xmlns="http://www.w3.org/2000/svg" id="dashboard">
    <path d="M197.332 0h-160C16.746 0 0 16.746 0 37.332v96c0 20.59 16.746 37.336 37.332 37.336h160c20.59 0 37.336-16.746 37.336-37.336v-96C234.668 16.746 217.922 0 197.332 0zm0 213.332h-160C16.746 213.332 0 230.078 0 250.668v224C0 495.254 16.746 512 37.332 512h160c20.59 0 37.336-16.746 37.336-37.332v-224c0-20.59-16.746-37.336-37.336-37.336zm277.336 128h-160c-20.59 0-37.336 16.746-37.336 37.336v96c0 20.586 16.746 37.332 37.336 37.332h160C495.254 512 512 495.254 512 474.668v-96c0-20.59-16.746-37.336-37.332-37.336zm0-341.332h-160c-20.59 0-37.336 16.746-37.336 37.332v224c0 20.59 16.746 37.336 37.336 37.336h160c20.586 0 37.332-16.746 37.332-37.336v-224C512 16.746 495.254 0 474.668 0zm0 0"></path>
  </symbol>
  <symbol viewBox="0 -10 511.991 511" xmlns="http://www.w3.org/2000/svg" id="star">
    <path d="M510.652 185.883a27.177 27.177 0 0 0-23.402-18.688l-147.797-13.418-58.41-136.75C276.73 6.98 266.918.497 255.996.497s-20.738 6.483-25.023 16.53l-58.41 136.75-147.82 13.418c-10.837 1-20.013 8.34-23.403 18.688a27.25 27.25 0 0 0 7.937 28.926L121 312.773 88.059 457.86c-2.41 10.668 1.73 21.7 10.582 28.098a27.087 27.087 0 0 0 15.957 5.184 27.14 27.14 0 0 0 13.953-3.86l127.445-76.203 127.422 76.203a27.197 27.197 0 0 0 29.934-1.324c8.851-6.398 12.992-17.43 10.582-28.098l-32.942-145.086 111.723-97.964a27.246 27.246 0 0 0 7.937-28.926zM258.45 409.605"></path>
  </symbol>
  <symbol xmlns="http://www.w3.org/2000/svg" viewBox="0 0 512 512" id="timeline">
    <path d="M465.455 116.364c-25.6 0-46.545 20.945-46.545 46.545 0 4.189.465 8.145 1.629 11.869l-82.618 82.851c-3.724-1.164-7.913-1.629-12.102-1.629s-8.378.465-12.102 1.629l-59.345-59.345c1.164-3.724 1.629-7.913 1.629-12.102 0-25.6-20.945-46.545-46.545-46.545s-46.545 20.945-46.545 46.545c0 4.189.465 8.378 1.629 12.102L58.415 304.175c-3.724-1.164-7.68-1.629-11.869-1.629C20.945 302.545 0 323.491 0 349.091s20.945 46.545 46.545 46.545 46.545-20.945 46.545-46.545c0-4.189-.466-8.146-1.629-11.869l105.891-106.124c3.724 1.164 7.913 1.629 12.102 1.629s8.378-.465 12.102-1.629l59.345 59.346c-1.164 3.724-1.629 7.913-1.629 12.102 0 25.6 20.945 46.545 46.545 46.545s46.545-20.945 46.545-46.545c0-4.189-.465-8.378-1.629-12.102l82.851-82.618c3.724 1.164 7.68 1.629 11.869 1.629 25.6 0 46.545-20.945 46.545-46.545.002-25.601-20.943-46.546-46.543-46.546z"></path>
  </symbol>
</svg>