<svg width="0" height="0" class="hidden">
  <symbol xmlns="http://www.w3.org/2000/svg" viewBox="0 0 512.011 512.011" id="more-arrow">
    <path d="M505.755 123.592c-8.341-8.341-21.824-8.341-30.165 0L256.005 343.176 36.421 123.592c-8.341-8.341-21.824-8.341-30.165 0s-8.341 21.824 0 30.165l234.667 234.667a21.275 21.275 0 0 0 15.083 6.251 21.275 21.275 0 0 0 15.083-6.251l234.667-234.667c8.34-8.341 8.34-21.824-.001-30.165z"></path>
  </symbol>
  <symbol xmlns="http://www.w3.org/2000/svg" viewBox="0 0 512 512" id="notification">
    <path d="M467.812 431.851l-36.629-61.056a181.363 181.363 0 0 1-25.856-93.312V224c0-67.52-45.056-124.629-106.667-143.04V42.667C298.66 19.136 279.524 0 255.993 0s-42.667 19.136-42.667 42.667V80.96C151.716 99.371 106.66 156.48 106.66 224v53.483c0 32.853-8.939 65.109-25.835 93.291L44.196 431.83a10.653 10.653 0 0 0-.128 10.752c1.899 3.349 5.419 5.419 9.259 5.419H458.66c3.84 0 7.381-2.069 9.28-5.397 1.899-3.329 1.835-7.468-.128-10.753zm-278.997 37.482C200.847 494.464 226.319 512 255.993 512s55.147-17.536 67.179-42.667H188.815z"></path>
  </symbol>
  <symbol xmlns="http://www.w3.org/2000/svg" viewBox="0 0 511.999 511.999" id="search">
    <path d="M508.874 478.708L360.142 329.976c28.21-34.827 45.191-79.103 45.191-127.309C405.333 90.917 314.416 0 202.666 0S0 90.917 0 202.667s90.917 202.667 202.667 202.667c48.206 0 92.482-16.982 127.309-45.191l148.732 148.732c4.167 4.165 10.919 4.165 15.086 0l15.081-15.082c4.165-4.166 4.165-10.92-.001-15.085zM202.667 362.667c-88.229 0-160-71.771-160-160s71.771-160 160-160 160 71.771 160 160-71.771 160-160 160z"></path>
  </symbol>
</svg>